<?xml version="1.0" encoding="utf-8" standalone="no"?>
<!DOCTYPE svg PUBLIC "-//W3C//DTD SVG 1.1//EN"
  "http://www.w3.org/Graphics/SVG/1.1/DTD/svg11.dtd">
<!-- Created with matplotlib (https://matplotlib.org/) -->
<svg height="290.99625pt" version="1.1" viewBox="0 0 392.14375 290.99625" width="392.14375pt" xmlns="http://www.w3.org/2000/svg" xmlns:xlink="http://www.w3.org/1999/xlink">
 <defs>
  <style type="text/css">
*{stroke-linecap:butt;stroke-linejoin:round;}
  </style>
 </defs>
 <g id="figure_1">
  <g id="patch_1">
   <path d="M 0 290.99625 
L 392.14375 290.99625 
L 392.14375 0 
L 0 0 
z
" style="fill:#ffffff;"/>
  </g>
  <g id="axes_1">
   <g id="patch_2">
    <path d="M 50.14375 134.836364 
L 202.325568 134.836364 
L 202.325568 36 
L 50.14375 36 
z
" style="fill:#ffffff;"/>
   </g>
   <g id="matplotlib.axis_1"/>
   <g id="matplotlib.axis_2">
    <g id="ytick_1">
     <g id="line2d_1">
      <defs>
       <path d="M 0 0 
L -3.5 0 
" id="mfaffe0bdb1" style="stroke:#000000;stroke-width:0.8;"/>
      </defs>
      <g>
       <use style="stroke:#000000;stroke-width:0.8;" x="50.14375" xlink:href="#mfaffe0bdb1" y="134.836364"/>
      </g>
     </g>
     <g id="text_1">
      <!-- 0.00 -->
      <defs>
       <path d="M 31.78125 66.40625 
Q 24.171875 66.40625 20.328125 58.90625 
Q 16.5 51.421875 16.5 36.375 
Q 16.5 21.390625 20.328125 13.890625 
Q 24.171875 6.390625 31.78125 6.390625 
Q 39.453125 6.390625 43.28125 13.890625 
Q 47.125 21.390625 47.125 36.375 
Q 47.125 51.421875 43.28125 58.90625 
Q 39.453125 66.40625 31.78125 66.40625 
z
M 31.78125 74.21875 
Q 44.046875 74.21875 50.515625 64.515625 
Q 56.984375 54.828125 56.984375 36.375 
Q 56.984375 17.96875 50.515625 8.265625 
Q 44.046875 -1.421875 31.78125 -1.421875 
Q 19.53125 -1.421875 13.0625 8.265625 
Q 6.59375 17.96875 6.59375 36.375 
Q 6.59375 54.828125 13.0625 64.515625 
Q 19.53125 74.21875 31.78125 74.21875 
z
" id="DejaVuSans-48"/>
       <path d="M 10.6875 12.40625 
L 21 12.40625 
L 21 0 
L 10.6875 0 
z
" id="DejaVuSans-46"/>
      </defs>
      <g transform="translate(20.878125 138.635582)scale(0.1 -0.1)">
       <use xlink:href="#DejaVuSans-48"/>
       <use x="63.623047" xlink:href="#DejaVuSans-46"/>
       <use x="95.410156" xlink:href="#DejaVuSans-48"/>
       <use x="159.033203" xlink:href="#DejaVuSans-48"/>
      </g>
     </g>
    </g>
    <g id="ytick_2">
     <g id="line2d_2">
      <g>
       <use style="stroke:#000000;stroke-width:0.8;" x="50.14375" xlink:href="#mfaffe0bdb1" y="110.127273"/>
      </g>
     </g>
     <g id="text_2">
      <!-- 0.05 -->
      <defs>
       <path d="M 10.796875 72.90625 
L 49.515625 72.90625 
L 49.515625 64.59375 
L 19.828125 64.59375 
L 19.828125 46.734375 
Q 21.96875 47.46875 24.109375 47.828125 
Q 26.265625 48.1875 28.421875 48.1875 
Q 40.625 48.1875 47.75 41.5 
Q 54.890625 34.8125 54.890625 23.390625 
Q 54.890625 11.625 47.5625 5.09375 
Q 40.234375 -1.421875 26.90625 -1.421875 
Q 22.3125 -1.421875 17.546875 -0.640625 
Q 12.796875 0.140625 7.71875 1.703125 
L 7.71875 11.625 
Q 12.109375 9.234375 16.796875 8.0625 
Q 21.484375 6.890625 26.703125 6.890625 
Q 35.15625 6.890625 40.078125 11.328125 
Q 45.015625 15.765625 45.015625 23.390625 
Q 45.015625 31 40.078125 35.4375 
Q 35.15625 39.890625 26.703125 39.890625 
Q 22.75 39.890625 18.8125 39.015625 
Q 14.890625 38.140625 10.796875 36.28125 
z
" id="DejaVuSans-53"/>
      </defs>
      <g transform="translate(20.878125 113.926491)scale(0.1 -0.1)">
       <use xlink:href="#DejaVuSans-48"/>
       <use x="63.623047" xlink:href="#DejaVuSans-46"/>
       <use x="95.410156" xlink:href="#DejaVuSans-48"/>
       <use x="159.033203" xlink:href="#DejaVuSans-53"/>
      </g>
     </g>
    </g>
    <g id="ytick_3">
     <g id="line2d_3">
      <g>
       <use style="stroke:#000000;stroke-width:0.8;" x="50.14375" xlink:href="#mfaffe0bdb1" y="85.418182"/>
      </g>
     </g>
     <g id="text_3">
      <!-- 0.10 -->
      <defs>
       <path d="M 12.40625 8.296875 
L 28.515625 8.296875 
L 28.515625 63.921875 
L 10.984375 60.40625 
L 10.984375 69.390625 
L 28.421875 72.90625 
L 38.28125 72.90625 
L 38.28125 8.296875 
L 54.390625 8.296875 
L 54.390625 0 
L 12.40625 0 
z
" id="DejaVuSans-49"/>
      </defs>
      <g transform="translate(20.878125 89.217401)scale(0.1 -0.1)">
       <use xlink:href="#DejaVuSans-48"/>
       <use x="63.623047" xlink:href="#DejaVuSans-46"/>
       <use x="95.410156" xlink:href="#DejaVuSans-49"/>
       <use x="159.033203" xlink:href="#DejaVuSans-48"/>
      </g>
     </g>
    </g>
    <g id="ytick_4">
     <g id="line2d_4">
      <g>
       <use style="stroke:#000000;stroke-width:0.8;" x="50.14375" xlink:href="#mfaffe0bdb1" y="60.709091"/>
      </g>
     </g>
     <g id="text_4">
      <!-- 0.15 -->
      <g transform="translate(20.878125 64.50831)scale(0.1 -0.1)">
       <use xlink:href="#DejaVuSans-48"/>
       <use x="63.623047" xlink:href="#DejaVuSans-46"/>
       <use x="95.410156" xlink:href="#DejaVuSans-49"/>
       <use x="159.033203" xlink:href="#DejaVuSans-53"/>
      </g>
     </g>
    </g>
    <g id="ytick_5">
     <g id="line2d_5">
      <g>
       <use style="stroke:#000000;stroke-width:0.8;" x="50.14375" xlink:href="#mfaffe0bdb1" y="36"/>
      </g>
     </g>
     <g id="text_5">
      <!-- 0.20 -->
      <defs>
       <path d="M 19.1875 8.296875 
L 53.609375 8.296875 
L 53.609375 0 
L 7.328125 0 
L 7.328125 8.296875 
Q 12.9375 14.109375 22.625 23.890625 
Q 32.328125 33.6875 34.8125 36.53125 
Q 39.546875 41.84375 41.421875 45.53125 
Q 43.3125 49.21875 43.3125 52.78125 
Q 43.3125 58.59375 39.234375 62.25 
Q 35.15625 65.921875 28.609375 65.921875 
Q 23.96875 65.921875 18.8125 64.3125 
Q 13.671875 62.703125 7.8125 59.421875 
L 7.8125 69.390625 
Q 13.765625 71.78125 18.9375 73 
Q 24.125 74.21875 28.421875 74.21875 
Q 39.75 74.21875 46.484375 68.546875 
Q 53.21875 62.890625 53.21875 53.421875 
Q 53.21875 48.921875 51.53125 44.890625 
Q 49.859375 40.875 45.40625 35.40625 
Q 44.1875 33.984375 37.640625 27.21875 
Q 31.109375 20.453125 19.1875 8.296875 
z
" id="DejaVuSans-50"/>
      </defs>
      <g transform="translate(20.878125 39.799219)scale(0.1 -0.1)">
       <use xlink:href="#DejaVuSans-48"/>
       <use x="63.623047" xlink:href="#DejaVuSans-46"/>
       <use x="95.410156" xlink:href="#DejaVuSans-50"/>
       <use x="159.033203" xlink:href="#DejaVuSans-48"/>
      </g>
     </g>
    </g>
    <g id="text_6">
     <!-- Probability -->
     <defs>
      <path d="M 19.671875 64.796875 
L 19.671875 37.40625 
L 32.078125 37.40625 
Q 38.96875 37.40625 42.71875 40.96875 
Q 46.484375 44.53125 46.484375 51.125 
Q 46.484375 57.671875 42.71875 61.234375 
Q 38.96875 64.796875 32.078125 64.796875 
z
M 9.8125 72.90625 
L 32.078125 72.90625 
Q 44.34375 72.90625 50.609375 67.359375 
Q 56.890625 61.8125 56.890625 51.125 
Q 56.890625 40.328125 50.609375 34.8125 
Q 44.34375 29.296875 32.078125 29.296875 
L 19.671875 29.296875 
L 19.671875 0 
L 9.8125 0 
z
" id="DejaVuSans-80"/>
      <path d="M 41.109375 46.296875 
Q 39.59375 47.171875 37.8125 47.578125 
Q 36.03125 48 33.890625 48 
Q 26.265625 48 22.1875 43.046875 
Q 18.109375 38.09375 18.109375 28.8125 
L 18.109375 0 
L 9.078125 0 
L 9.078125 54.6875 
L 18.109375 54.6875 
L 18.109375 46.1875 
Q 20.953125 51.171875 25.484375 53.578125 
Q 30.03125 56 36.53125 56 
Q 37.453125 56 38.578125 55.875 
Q 39.703125 55.765625 41.0625 55.515625 
z
" id="DejaVuSans-114"/>
      <path d="M 30.609375 48.390625 
Q 23.390625 48.390625 19.1875 42.75 
Q 14.984375 37.109375 14.984375 27.296875 
Q 14.984375 17.484375 19.15625 11.84375 
Q 23.34375 6.203125 30.609375 6.203125 
Q 37.796875 6.203125 41.984375 11.859375 
Q 46.1875 17.53125 46.1875 27.296875 
Q 46.1875 37.015625 41.984375 42.703125 
Q 37.796875 48.390625 30.609375 48.390625 
z
M 30.609375 56 
Q 42.328125 56 49.015625 48.375 
Q 55.71875 40.765625 55.71875 27.296875 
Q 55.71875 13.875 49.015625 6.21875 
Q 42.328125 -1.421875 30.609375 -1.421875 
Q 18.84375 -1.421875 12.171875 6.21875 
Q 5.515625 13.875 5.515625 27.296875 
Q 5.515625 40.765625 12.171875 48.375 
Q 18.84375 56 30.609375 56 
z
" id="DejaVuSans-111"/>
      <path d="M 48.6875 27.296875 
Q 48.6875 37.203125 44.609375 42.84375 
Q 40.53125 48.484375 33.40625 48.484375 
Q 26.265625 48.484375 22.1875 42.84375 
Q 18.109375 37.203125 18.109375 27.296875 
Q 18.109375 17.390625 22.1875 11.75 
Q 26.265625 6.109375 33.40625 6.109375 
Q 40.53125 6.109375 44.609375 11.75 
Q 48.6875 17.390625 48.6875 27.296875 
z
M 18.109375 46.390625 
Q 20.953125 51.265625 25.265625 53.625 
Q 29.59375 56 35.59375 56 
Q 45.5625 56 51.78125 48.09375 
Q 58.015625 40.1875 58.015625 27.296875 
Q 58.015625 14.40625 51.78125 6.484375 
Q 45.5625 -1.421875 35.59375 -1.421875 
Q 29.59375 -1.421875 25.265625 0.953125 
Q 20.953125 3.328125 18.109375 8.203125 
L 18.109375 0 
L 9.078125 0 
L 9.078125 75.984375 
L 18.109375 75.984375 
z
" id="DejaVuSans-98"/>
      <path d="M 34.28125 27.484375 
Q 23.390625 27.484375 19.1875 25 
Q 14.984375 22.515625 14.984375 16.5 
Q 14.984375 11.71875 18.140625 8.90625 
Q 21.296875 6.109375 26.703125 6.109375 
Q 34.1875 6.109375 38.703125 11.40625 
Q 43.21875 16.703125 43.21875 25.484375 
L 43.21875 27.484375 
z
M 52.203125 31.203125 
L 52.203125 0 
L 43.21875 0 
L 43.21875 8.296875 
Q 40.140625 3.328125 35.546875 0.953125 
Q 30.953125 -1.421875 24.3125 -1.421875 
Q 15.921875 -1.421875 10.953125 3.296875 
Q 6 8.015625 6 15.921875 
Q 6 25.140625 12.171875 29.828125 
Q 18.359375 34.515625 30.609375 34.515625 
L 43.21875 34.515625 
L 43.21875 35.40625 
Q 43.21875 41.609375 39.140625 45 
Q 35.0625 48.390625 27.6875 48.390625 
Q 23 48.390625 18.546875 47.265625 
Q 14.109375 46.140625 10.015625 43.890625 
L 10.015625 52.203125 
Q 14.9375 54.109375 19.578125 55.046875 
Q 24.21875 56 28.609375 56 
Q 40.484375 56 46.34375 49.84375 
Q 52.203125 43.703125 52.203125 31.203125 
z
" id="DejaVuSans-97"/>
      <path d="M 9.421875 54.6875 
L 18.40625 54.6875 
L 18.40625 0 
L 9.421875 0 
z
M 9.421875 75.984375 
L 18.40625 75.984375 
L 18.40625 64.59375 
L 9.421875 64.59375 
z
" id="DejaVuSans-105"/>
      <path d="M 9.421875 75.984375 
L 18.40625 75.984375 
L 18.40625 0 
L 9.421875 0 
z
" id="DejaVuSans-108"/>
      <path d="M 18.3125 70.21875 
L 18.3125 54.6875 
L 36.8125 54.6875 
L 36.8125 47.703125 
L 18.3125 47.703125 
L 18.3125 18.015625 
Q 18.3125 11.328125 20.140625 9.421875 
Q 21.96875 7.515625 27.59375 7.515625 
L 36.8125 7.515625 
L 36.8125 0 
L 27.59375 0 
Q 17.1875 0 13.234375 3.875 
Q 9.28125 7.765625 9.28125 18.015625 
L 9.28125 47.703125 
L 2.6875 47.703125 
L 2.6875 54.6875 
L 9.28125 54.6875 
L 9.28125 70.21875 
z
" id="DejaVuSans-116"/>
      <path d="M 32.171875 -5.078125 
Q 28.375 -14.84375 24.75 -17.8125 
Q 21.140625 -20.796875 15.09375 -20.796875 
L 7.90625 -20.796875 
L 7.90625 -13.28125 
L 13.1875 -13.28125 
Q 16.890625 -13.28125 18.9375 -11.515625 
Q 21 -9.765625 23.484375 -3.21875 
L 25.09375 0.875 
L 2.984375 54.6875 
L 12.5 54.6875 
L 29.59375 11.921875 
L 46.6875 54.6875 
L 56.203125 54.6875 
z
" id="DejaVuSans-121"/>
     </defs>
     <g transform="translate(14.798438 112.044744)rotate(-90)scale(0.1 -0.1)">
      <use xlink:href="#DejaVuSans-80"/>
      <use x="60.287109" xlink:href="#DejaVuSans-114"/>
      <use x="101.369141" xlink:href="#DejaVuSans-111"/>
      <use x="162.550781" xlink:href="#DejaVuSans-98"/>
      <use x="226.027344" xlink:href="#DejaVuSans-97"/>
      <use x="287.306641" xlink:href="#DejaVuSans-98"/>
      <use x="350.783203" xlink:href="#DejaVuSans-105"/>
      <use x="378.566406" xlink:href="#DejaVuSans-108"/>
      <use x="406.349609" xlink:href="#DejaVuSans-105"/>
      <use x="434.132812" xlink:href="#DejaVuSans-116"/>
      <use x="473.341797" xlink:href="#DejaVuSans-121"/>
     </g>
    </g>
   </g>
   <g id="line2d_6">
    <path clip-path="url(#p7e1505f0cd)" d="M 57.061105 71.686799 
L 80.826253 74.962309 
L 129.205303 81.786333 
L 145.331652 83.76485 
L 163.155513 85.646353 
L 186.071905 87.669007 
L 195.408213 88.381708 
L 195.408213 88.381708 
" style="fill:none;stroke:#0000ff;stroke-linecap:square;stroke-width:1.5;"/>
   </g>
   <g id="line2d_7">
    <path clip-path="url(#p7e1505f0cd)" d="M 57.061105 102.374433 
L 72.3387 103.218948 
L 86.767539 104.186407 
L 132.600324 107.531809 
L 147.029163 108.337925 
L 160.609247 108.903325 
L 178.433108 109.369801 
L 195.408213 109.6188 
L 195.408213 109.6188 
" style="fill:none;stroke:#ff0000;stroke-dasharray:15,3;stroke-dashoffset:0;stroke-width:1.5;"/>
   </g>
   <g id="patch_3">
    <path d="M 50.14375 134.836364 
L 50.14375 36 
" style="fill:none;stroke:#000000;stroke-linecap:square;stroke-linejoin:miter;stroke-width:0.8;"/>
   </g>
   <g id="patch_4">
    <path d="M 202.325568 134.836364 
L 202.325568 36 
" style="fill:none;stroke:#000000;stroke-linecap:square;stroke-linejoin:miter;stroke-width:0.8;"/>
   </g>
   <g id="patch_5">
    <path d="M 50.14375 134.836364 
L 202.325568 134.836364 
" style="fill:none;stroke:#000000;stroke-linecap:square;stroke-linejoin:miter;stroke-width:0.8;"/>
   </g>
   <g id="patch_6">
    <path d="M 50.14375 36 
L 202.325568 36 
" style="fill:none;stroke:#000000;stroke-linecap:square;stroke-linejoin:miter;stroke-width:0.8;"/>
   </g>
   <g id="text_7">
    <!-- All education (mean) -->
    <defs>
     <path d="M 34.1875 63.1875 
L 20.796875 26.90625 
L 47.609375 26.90625 
z
M 28.609375 72.90625 
L 39.796875 72.90625 
L 67.578125 0 
L 57.328125 0 
L 50.6875 18.703125 
L 17.828125 18.703125 
L 11.1875 0 
L 0.78125 0 
z
" id="DejaVuSans-65"/>
     <path id="DejaVuSans-32"/>
     <path d="M 56.203125 29.59375 
L 56.203125 25.203125 
L 14.890625 25.203125 
Q 15.484375 15.921875 20.484375 11.0625 
Q 25.484375 6.203125 34.421875 6.203125 
Q 39.59375 6.203125 44.453125 7.46875 
Q 49.3125 8.734375 54.109375 11.28125 
L 54.109375 2.78125 
Q 49.265625 0.734375 44.1875 -0.34375 
Q 39.109375 -1.421875 33.890625 -1.421875 
Q 20.796875 -1.421875 13.15625 6.1875 
Q 5.515625 13.8125 5.515625 26.8125 
Q 5.515625 40.234375 12.765625 48.109375 
Q 20.015625 56 32.328125 56 
Q 43.359375 56 49.78125 48.890625 
Q 56.203125 41.796875 56.203125 29.59375 
z
M 47.21875 32.234375 
Q 47.125 39.59375 43.09375 43.984375 
Q 39.0625 48.390625 32.421875 48.390625 
Q 24.90625 48.390625 20.390625 44.140625 
Q 15.875 39.890625 15.1875 32.171875 
z
" id="DejaVuSans-101"/>
     <path d="M 45.40625 46.390625 
L 45.40625 75.984375 
L 54.390625 75.984375 
L 54.390625 0 
L 45.40625 0 
L 45.40625 8.203125 
Q 42.578125 3.328125 38.25 0.953125 
Q 33.9375 -1.421875 27.875 -1.421875 
Q 17.96875 -1.421875 11.734375 6.484375 
Q 5.515625 14.40625 5.515625 27.296875 
Q 5.515625 40.1875 11.734375 48.09375 
Q 17.96875 56 27.875 56 
Q 33.9375 56 38.25 53.625 
Q 42.578125 51.265625 45.40625 46.390625 
z
M 14.796875 27.296875 
Q 14.796875 17.390625 18.875 11.75 
Q 22.953125 6.109375 30.078125 6.109375 
Q 37.203125 6.109375 41.296875 11.75 
Q 45.40625 17.390625 45.40625 27.296875 
Q 45.40625 37.203125 41.296875 42.84375 
Q 37.203125 48.484375 30.078125 48.484375 
Q 22.953125 48.484375 18.875 42.84375 
Q 14.796875 37.203125 14.796875 27.296875 
z
" id="DejaVuSans-100"/>
     <path d="M 8.5 21.578125 
L 8.5 54.6875 
L 17.484375 54.6875 
L 17.484375 21.921875 
Q 17.484375 14.15625 20.5 10.265625 
Q 23.53125 6.390625 29.59375 6.390625 
Q 36.859375 6.390625 41.078125 11.03125 
Q 45.3125 15.671875 45.3125 23.6875 
L 45.3125 54.6875 
L 54.296875 54.6875 
L 54.296875 0 
L 45.3125 0 
L 45.3125 8.40625 
Q 42.046875 3.421875 37.71875 1 
Q 33.40625 -1.421875 27.6875 -1.421875 
Q 18.265625 -1.421875 13.375 4.4375 
Q 8.5 10.296875 8.5 21.578125 
z
M 31.109375 56 
z
" id="DejaVuSans-117"/>
     <path d="M 48.78125 52.59375 
L 48.78125 44.1875 
Q 44.96875 46.296875 41.140625 47.34375 
Q 37.3125 48.390625 33.40625 48.390625 
Q 24.65625 48.390625 19.8125 42.84375 
Q 14.984375 37.3125 14.984375 27.296875 
Q 14.984375 17.28125 19.8125 11.734375 
Q 24.65625 6.203125 33.40625 6.203125 
Q 37.3125 6.203125 41.140625 7.25 
Q 44.96875 8.296875 48.78125 10.40625 
L 48.78125 2.09375 
Q 45.015625 0.34375 40.984375 -0.53125 
Q 36.96875 -1.421875 32.421875 -1.421875 
Q 20.0625 -1.421875 12.78125 6.34375 
Q 5.515625 14.109375 5.515625 27.296875 
Q 5.515625 40.671875 12.859375 48.328125 
Q 20.21875 56 33.015625 56 
Q 37.15625 56 41.109375 55.140625 
Q 45.0625 54.296875 48.78125 52.59375 
z
" id="DejaVuSans-99"/>
     <path d="M 54.890625 33.015625 
L 54.890625 0 
L 45.90625 0 
L 45.90625 32.71875 
Q 45.90625 40.484375 42.875 44.328125 
Q 39.84375 48.1875 33.796875 48.1875 
Q 26.515625 48.1875 22.3125 43.546875 
Q 18.109375 38.921875 18.109375 30.90625 
L 18.109375 0 
L 9.078125 0 
L 9.078125 54.6875 
L 18.109375 54.6875 
L 18.109375 46.1875 
Q 21.34375 51.125 25.703125 53.5625 
Q 30.078125 56 35.796875 56 
Q 45.21875 56 50.046875 50.171875 
Q 54.890625 44.34375 54.890625 33.015625 
z
" id="DejaVuSans-110"/>
     <path d="M 31 75.875 
Q 24.46875 64.65625 21.28125 53.65625 
Q 18.109375 42.671875 18.109375 31.390625 
Q 18.109375 20.125 21.3125 9.0625 
Q 24.515625 -2 31 -13.1875 
L 23.1875 -13.1875 
Q 15.875 -1.703125 12.234375 9.375 
Q 8.59375 20.453125 8.59375 31.390625 
Q 8.59375 42.28125 12.203125 53.3125 
Q 15.828125 64.359375 23.1875 75.875 
z
" id="DejaVuSans-40"/>
     <path d="M 52 44.1875 
Q 55.375 50.25 60.0625 53.125 
Q 64.75 56 71.09375 56 
Q 79.640625 56 84.28125 50.015625 
Q 88.921875 44.046875 88.921875 33.015625 
L 88.921875 0 
L 79.890625 0 
L 79.890625 32.71875 
Q 79.890625 40.578125 77.09375 44.375 
Q 74.3125 48.1875 68.609375 48.1875 
Q 61.625 48.1875 57.5625 43.546875 
Q 53.515625 38.921875 53.515625 30.90625 
L 53.515625 0 
L 44.484375 0 
L 44.484375 32.71875 
Q 44.484375 40.625 41.703125 44.40625 
Q 38.921875 48.1875 33.109375 48.1875 
Q 26.21875 48.1875 22.15625 43.53125 
Q 18.109375 38.875 18.109375 30.90625 
L 18.109375 0 
L 9.078125 0 
L 9.078125 54.6875 
L 18.109375 54.6875 
L 18.109375 46.1875 
Q 21.1875 51.21875 25.484375 53.609375 
Q 29.78125 56 35.6875 56 
Q 41.65625 56 45.828125 52.96875 
Q 50 49.953125 52 44.1875 
z
" id="DejaVuSans-109"/>
     <path d="M 8.015625 75.875 
L 15.828125 75.875 
Q 23.140625 64.359375 26.78125 53.3125 
Q 30.421875 42.28125 30.421875 31.390625 
Q 30.421875 20.453125 26.78125 9.375 
Q 23.140625 -1.703125 15.828125 -13.1875 
L 8.015625 -13.1875 
Q 14.5 -2 17.703125 9.0625 
Q 20.90625 20.125 20.90625 31.390625 
Q 20.90625 42.671875 17.703125 53.65625 
Q 14.5 64.65625 8.015625 75.875 
z
" id="DejaVuSans-41"/>
    </defs>
    <g transform="translate(63.513097 30)scale(0.12 -0.12)">
     <use xlink:href="#DejaVuSans-65"/>
     <use x="68.408203" xlink:href="#DejaVuSans-108"/>
     <use x="96.191406" xlink:href="#DejaVuSans-108"/>
     <use x="123.974609" xlink:href="#DejaVuSans-32"/>
     <use x="155.761719" xlink:href="#DejaVuSans-101"/>
     <use x="217.285156" xlink:href="#DejaVuSans-100"/>
     <use x="280.761719" xlink:href="#DejaVuSans-117"/>
     <use x="344.140625" xlink:href="#DejaVuSans-99"/>
     <use x="399.121094" xlink:href="#DejaVuSans-97"/>
     <use x="460.400391" xlink:href="#DejaVuSans-116"/>
     <use x="499.609375" xlink:href="#DejaVuSans-105"/>
     <use x="527.392578" xlink:href="#DejaVuSans-111"/>
     <use x="588.574219" xlink:href="#DejaVuSans-110"/>
     <use x="651.953125" xlink:href="#DejaVuSans-32"/>
     <use x="683.740234" xlink:href="#DejaVuSans-40"/>
     <use x="722.753906" xlink:href="#DejaVuSans-109"/>
     <use x="820.166016" xlink:href="#DejaVuSans-101"/>
     <use x="881.689453" xlink:href="#DejaVuSans-97"/>
     <use x="942.96875" xlink:href="#DejaVuSans-110"/>
     <use x="1006.347656" xlink:href="#DejaVuSans-41"/>
    </g>
   </g>
   <g id="legend_1">
    <g id="patch_7">
     <path d="M 98.875568 73.35625 
L 195.325568 73.35625 
Q 197.325568 73.35625 197.325568 71.35625 
L 197.325568 43 
Q 197.325568 41 195.325568 41 
L 98.875568 41 
Q 96.875568 41 96.875568 43 
L 96.875568 71.35625 
Q 96.875568 73.35625 98.875568 73.35625 
z
" style="fill:#ffffff;opacity:0.8;stroke:#cccccc;stroke-linejoin:miter;"/>
    </g>
    <g id="line2d_8">
     <path d="M 100.875568 49.098437 
L 120.875568 49.098437 
" style="fill:none;stroke:#0000ff;stroke-linecap:square;stroke-width:1.5;"/>
    </g>
    <g id="line2d_9"/>
    <g id="text_8">
     <!-- Unemployed -->
     <defs>
      <path d="M 8.6875 72.90625 
L 18.609375 72.90625 
L 18.609375 28.609375 
Q 18.609375 16.890625 22.84375 11.734375 
Q 27.09375 6.59375 36.625 6.59375 
Q 46.09375 6.59375 50.34375 11.734375 
Q 54.59375 16.890625 54.59375 28.609375 
L 54.59375 72.90625 
L 64.5 72.90625 
L 64.5 27.390625 
Q 64.5 13.140625 57.4375 5.859375 
Q 50.390625 -1.421875 36.625 -1.421875 
Q 22.796875 -1.421875 15.734375 5.859375 
Q 8.6875 13.140625 8.6875 27.390625 
z
" id="DejaVuSans-85"/>
      <path d="M 18.109375 8.203125 
L 18.109375 -20.796875 
L 9.078125 -20.796875 
L 9.078125 54.6875 
L 18.109375 54.6875 
L 18.109375 46.390625 
Q 20.953125 51.265625 25.265625 53.625 
Q 29.59375 56 35.59375 56 
Q 45.5625 56 51.78125 48.09375 
Q 58.015625 40.1875 58.015625 27.296875 
Q 58.015625 14.40625 51.78125 6.484375 
Q 45.5625 -1.421875 35.59375 -1.421875 
Q 29.59375 -1.421875 25.265625 0.953125 
Q 20.953125 3.328125 18.109375 8.203125 
z
M 48.6875 27.296875 
Q 48.6875 37.203125 44.609375 42.84375 
Q 40.53125 48.484375 33.40625 48.484375 
Q 26.265625 48.484375 22.1875 42.84375 
Q 18.109375 37.203125 18.109375 27.296875 
Q 18.109375 17.390625 22.1875 11.75 
Q 26.265625 6.109375 33.40625 6.109375 
Q 40.53125 6.109375 44.609375 11.75 
Q 48.6875 17.390625 48.6875 27.296875 
z
" id="DejaVuSans-112"/>
     </defs>
     <g transform="translate(128.875568 52.598437)scale(0.1 -0.1)">
      <use xlink:href="#DejaVuSans-85"/>
      <use x="73.193359" xlink:href="#DejaVuSans-110"/>
      <use x="136.572266" xlink:href="#DejaVuSans-101"/>
      <use x="198.095703" xlink:href="#DejaVuSans-109"/>
      <use x="295.507812" xlink:href="#DejaVuSans-112"/>
      <use x="358.984375" xlink:href="#DejaVuSans-108"/>
      <use x="386.767578" xlink:href="#DejaVuSans-111"/>
      <use x="447.949219" xlink:href="#DejaVuSans-121"/>
      <use x="507.128906" xlink:href="#DejaVuSans-101"/>
      <use x="568.652344" xlink:href="#DejaVuSans-100"/>
     </g>
    </g>
    <g id="line2d_10">
     <path d="M 100.875568 63.776562 
L 120.875568 63.776562 
" style="fill:none;stroke:#ff0000;stroke-dasharray:15,3;stroke-dashoffset:0;stroke-width:1.5;"/>
    </g>
    <g id="line2d_11"/>
    <g id="text_9">
     <!-- Deep unemp -->
     <defs>
      <path d="M 19.671875 64.796875 
L 19.671875 8.109375 
L 31.59375 8.109375 
Q 46.6875 8.109375 53.6875 14.9375 
Q 60.6875 21.78125 60.6875 36.53125 
Q 60.6875 51.171875 53.6875 57.984375 
Q 46.6875 64.796875 31.59375 64.796875 
z
M 9.8125 72.90625 
L 30.078125 72.90625 
Q 51.265625 72.90625 61.171875 64.09375 
Q 71.09375 55.28125 71.09375 36.53125 
Q 71.09375 17.671875 61.125 8.828125 
Q 51.171875 0 30.078125 0 
L 9.8125 0 
z
" id="DejaVuSans-68"/>
     </defs>
     <g transform="translate(128.875568 67.276562)scale(0.1 -0.1)">
      <use xlink:href="#DejaVuSans-68"/>
      <use x="77.001953" xlink:href="#DejaVuSans-101"/>
      <use x="138.525391" xlink:href="#DejaVuSans-101"/>
      <use x="200.048828" xlink:href="#DejaVuSans-112"/>
      <use x="263.525391" xlink:href="#DejaVuSans-32"/>
      <use x="295.3125" xlink:href="#DejaVuSans-117"/>
      <use x="358.691406" xlink:href="#DejaVuSans-110"/>
      <use x="422.070312" xlink:href="#DejaVuSans-101"/>
      <use x="483.59375" xlink:href="#DejaVuSans-109"/>
      <use x="581.005859" xlink:href="#DejaVuSans-112"/>
     </g>
    </g>
   </g>
  </g>
  <g id="axes_2">
   <g id="patch_8">
    <path d="M 232.761932 134.836364 
L 384.94375 134.836364 
L 384.94375 36 
L 232.761932 36 
z
" style="fill:#ffffff;"/>
   </g>
   <g id="matplotlib.axis_3"/>
   <g id="matplotlib.axis_4"/>
   <g id="line2d_12">
    <path clip-path="url(#p762133b71c)" d="M 239.679287 53.183584 
L 240.528042 53.027696 
L 243.923063 52.895946 
L 246.469329 52.921824 
L 251.561861 53.007854 
L 253.259371 53.092413 
L 257.503148 53.330413 
L 271.083232 54.658844 
L 272.780742 54.895733 
L 280.41954 55.860732 
L 288.907092 57.025411 
L 290.604603 57.227098 
L 291.453358 57.407814 
L 292.302113 57.430627 
L 298.2434 58.28928 
L 302.487176 58.90122 
L 305.033442 59.295323 
L 314.36975 60.52503 
L 318.613526 61.142713 
L 338.983653 63.634228 
L 340.681163 63.792723 
L 350.866226 64.840709 
L 353.412492 65.084428 
L 356.807513 65.418814 
L 361.051289 65.773551 
L 378.026395 67.182959 
L 378.026395 67.182959 
" style="fill:none;stroke:#0000ff;stroke-dasharray:1.5,2.475;stroke-dashoffset:0;stroke-width:1.5;"/>
   </g>
   <g id="line2d_13">
    <path clip-path="url(#p762133b71c)" d="M 239.679287 82.461944 
L 240.528042 82.046415 
L 241.376798 81.875672 
L 243.074308 81.343689 
L 249.86435 80.288228 
L 254.108127 79.660921 
L 255.805637 79.562454 
L 260.898169 79.209997 
L 261.746924 79.245097 
L 262.595679 79.108615 
L 264.29319 79.16955 
L 265.9907 79.075797 
L 266.839456 79.033737 
L 267.688211 79.130057 
L 269.385721 79.108866 
L 270.234477 79.231506 
L 271.083232 79.161183 
L 271.931987 79.291142 
L 275.327008 79.287113 
L 277.873274 79.505152 
L 279.570784 79.397554 
L 281.268295 79.627128 
L 286.360827 80.030654 
L 287.209582 79.92849 
L 291.453358 80.293565 
L 292.302113 80.174768 
L 296.54589 80.597377 
L 299.092155 80.669093 
L 303.335932 81.109468 
L 305.033442 81.217887 
L 307.579708 81.373263 
L 308.428463 81.240764 
L 312.67224 81.594533 
L 315.218505 81.873364 
L 320.311037 82.281619 
L 321.159792 82.362087 
L 322.008547 82.326724 
L 322.857303 82.465874 
L 327.949834 82.660546 
L 329.647345 82.813972 
L 333.042366 82.908611 
L 335.588632 82.799139 
L 337.286142 83.145024 
L 339.832408 82.988144 
L 343.227429 83.197052 
L 350.866226 83.213817 
L 351.714982 83.153359 
L 353.412492 83.221603 
L 355.958758 83.207037 
L 358.505024 83.251734 
L 362.7488 83.128719 
L 363.597555 83.054127 
L 364.44631 83.197594 
L 366.992576 83.219547 
L 367.841332 83.237926 
L 369.538842 82.9751 
L 370.387597 83.113184 
L 375.480129 83.024419 
L 376.328884 82.888548 
L 377.177639 82.956802 
L 378.026395 82.873547 
L 378.026395 82.873547 
" style="fill:none;stroke:#ff0000;stroke-dasharray:1.5,2.475;stroke-dashoffset:0;stroke-width:1.5;"/>
   </g>
   <g id="line2d_14">
    <path clip-path="url(#p762133b71c)" d="M 239.679287 59.956512 
L 240.528042 60.435798 
L 242.225553 61.048146 
L 248.16684 63.072073 
L 258.351903 65.937654 
L 262.595679 66.976014 
L 264.29319 67.354757 
L 266.839456 67.958291 
L 270.234477 68.676043 
L 276.175763 69.822685 
L 277.873274 70.14258 
L 279.570784 70.56527 
L 282.11705 71.048248 
L 286.360827 71.749602 
L 293.150869 72.839589 
L 300.789666 74.116747 
L 303.335932 74.517238 
L 305.882197 74.887406 
L 307.579708 75.282721 
L 319.462282 76.867021 
L 324.554813 77.632097 
L 328.79859 78.168386 
L 331.344855 78.492726 
L 350.017471 80.901878 
L 355.110003 81.508832 
L 356.807513 81.691317 
L 363.597555 82.421849 
L 372.933863 83.46873 
L 376.328884 83.769366 
L 378.026395 83.979111 
L 378.026395 83.979111 
" style="fill:none;stroke:#0000ff;stroke-dasharray:1.5,2.475;stroke-dashoffset:0;stroke-width:1.5;"/>
   </g>
   <g id="line2d_15">
    <path clip-path="url(#p762133b71c)" d="M 239.679287 92.786506 
L 240.528042 93.331903 
L 241.376798 93.568483 
L 243.074308 94.23935 
L 248.16684 95.875944 
L 250.713106 96.599427 
L 252.410616 97.038867 
L 254.108127 97.375471 
L 256.654392 97.948697 
L 260.049413 98.672972 
L 265.9907 99.738618 
L 269.385721 100.299132 
L 279.570784 101.710089 
L 282.11705 102.026544 
L 285.512071 102.329647 
L 290.604603 102.859229 
L 294.848379 103.172178 
L 304.184687 104.085245 
L 306.730953 104.393071 
L 308.428463 104.568049 
L 321.159792 105.399112 
L 327.101079 105.826328 
L 359.353779 107.671463 
L 363.597555 107.841775 
L 372.933863 108.281636 
L 376.328884 108.351356 
L 378.026395 108.456756 
L 378.026395 108.456756 
" style="fill:none;stroke:#ff0000;stroke-dasharray:1.5,2.475;stroke-dashoffset:0;stroke-width:1.5;"/>
   </g>
   <g id="line2d_16">
    <path clip-path="url(#p762133b71c)" d="M 239.679287 56.598201 
L 252.410616 58.812051 
L 254.108127 59.067995 
L 257.503148 59.643083 
L 267.688211 61.238293 
L 275.327008 62.578905 
L 288.058337 64.607137 
L 290.604603 65.023437 
L 325.403568 70.103509 
L 327.949834 70.460398 
L 338.134897 71.695817 
L 342.378674 72.19703 
L 352.563737 73.351124 
L 357.656268 73.848292 
L 365.295066 74.6374 
L 377.177639 75.761023 
L 378.026395 75.876752 
L 378.026395 75.876752 
" style="fill:none;stroke:#0000ff;stroke-linecap:square;stroke-width:1.5;"/>
   </g>
   <g id="line2d_17">
    <path clip-path="url(#p762133b71c)" d="M 239.679287 87.905056 
L 244.771819 88.412807 
L 249.86435 88.980571 
L 252.410616 89.272341 
L 254.108127 89.39834 
L 256.654392 89.677399 
L 270.234477 90.909507 
L 272.780742 91.228016 
L 280.41954 92.001283 
L 282.11705 92.129166 
L 286.360827 92.518804 
L 303.335932 94.090292 
L 306.730953 94.356604 
L 310.125974 94.653896 
L 314.36975 94.942676 
L 316.916016 95.140852 
L 333.891121 96.254192 
L 336.437387 96.338779 
L 338.983653 96.513844 
L 361.051289 97.294341 
L 362.7488 97.304667 
L 372.085108 97.615489 
L 374.631374 97.605827 
L 378.026395 97.702416 
L 378.026395 97.702416 
" style="fill:none;stroke:#ff0000;stroke-dasharray:15,3;stroke-dashoffset:0;stroke-width:1.5;"/>
   </g>
   <g id="patch_9">
    <path d="M 232.761932 134.836364 
L 232.761932 36 
" style="fill:none;stroke:#000000;stroke-linecap:square;stroke-linejoin:miter;stroke-width:0.8;"/>
   </g>
   <g id="patch_10">
    <path d="M 384.94375 134.836364 
L 384.94375 36 
" style="fill:none;stroke:#000000;stroke-linecap:square;stroke-linejoin:miter;stroke-width:0.8;"/>
   </g>
   <g id="patch_11">
    <path d="M 232.761932 134.836364 
L 384.94375 134.836364 
" style="fill:none;stroke:#000000;stroke-linecap:square;stroke-linejoin:miter;stroke-width:0.8;"/>
   </g>
   <g id="patch_12">
    <path d="M 232.761932 36 
L 384.94375 36 
" style="fill:none;stroke:#000000;stroke-linecap:square;stroke-linejoin:miter;stroke-width:0.8;"/>
   </g>
   <g id="text_10">
    <!-- Dropout -->
    <g transform="translate(284.461903 30)scale(0.12 -0.12)">
     <use xlink:href="#DejaVuSans-68"/>
     <use x="77.001953" xlink:href="#DejaVuSans-114"/>
     <use x="118.083984" xlink:href="#DejaVuSans-111"/>
     <use x="179.265625" xlink:href="#DejaVuSans-112"/>
     <use x="242.742188" xlink:href="#DejaVuSans-111"/>
     <use x="303.923828" xlink:href="#DejaVuSans-117"/>
     <use x="367.302734" xlink:href="#DejaVuSans-116"/>
    </g>
   </g>
  </g>
  <g id="axes_3">
   <g id="patch_13">
    <path d="M 50.14375 253.44 
L 202.325568 253.44 
L 202.325568 154.603636 
L 50.14375 154.603636 
z
" style="fill:#ffffff;"/>
   </g>
   <g id="matplotlib.axis_5">
    <g id="xtick_1">
     <g id="line2d_18">
      <defs>
       <path d="M 0 0 
L 0 3.5 
" id="made3d80ffc" style="stroke:#000000;stroke-width:0.8;"/>
      </defs>
      <g>
       <use style="stroke:#000000;stroke-width:0.8;" x="77.431232" xlink:href="#made3d80ffc" y="253.44"/>
      </g>
     </g>
     <g id="text_11">
      <!-- 30 -->
      <defs>
       <path d="M 40.578125 39.3125 
Q 47.65625 37.796875 51.625 33 
Q 55.609375 28.21875 55.609375 21.1875 
Q 55.609375 10.40625 48.1875 4.484375 
Q 40.765625 -1.421875 27.09375 -1.421875 
Q 22.515625 -1.421875 17.65625 -0.515625 
Q 12.796875 0.390625 7.625 2.203125 
L 7.625 11.71875 
Q 11.71875 9.328125 16.59375 8.109375 
Q 21.484375 6.890625 26.8125 6.890625 
Q 36.078125 6.890625 40.9375 10.546875 
Q 45.796875 14.203125 45.796875 21.1875 
Q 45.796875 27.640625 41.28125 31.265625 
Q 36.765625 34.90625 28.71875 34.90625 
L 20.21875 34.90625 
L 20.21875 43.015625 
L 29.109375 43.015625 
Q 36.375 43.015625 40.234375 45.921875 
Q 44.09375 48.828125 44.09375 54.296875 
Q 44.09375 59.90625 40.109375 62.90625 
Q 36.140625 65.921875 28.71875 65.921875 
Q 24.65625 65.921875 20.015625 65.03125 
Q 15.375 64.15625 9.8125 62.3125 
L 9.8125 71.09375 
Q 15.4375 72.65625 20.34375 73.4375 
Q 25.25 74.21875 29.59375 74.21875 
Q 40.828125 74.21875 47.359375 69.109375 
Q 53.90625 64.015625 53.90625 55.328125 
Q 53.90625 49.265625 50.4375 45.09375 
Q 46.96875 40.921875 40.578125 39.3125 
z
" id="DejaVuSans-51"/>
      </defs>
      <g transform="translate(71.068732 268.038437)scale(0.1 -0.1)">
       <use xlink:href="#DejaVuSans-51"/>
       <use x="63.623047" xlink:href="#DejaVuSans-48"/>
      </g>
     </g>
    </g>
    <g id="xtick_2">
     <g id="line2d_19">
      <g>
       <use style="stroke:#000000;stroke-width:0.8;" x="111.381442" xlink:href="#made3d80ffc" y="253.44"/>
      </g>
     </g>
     <g id="text_12">
      <!-- 40 -->
      <defs>
       <path d="M 37.796875 64.3125 
L 12.890625 25.390625 
L 37.796875 25.390625 
z
M 35.203125 72.90625 
L 47.609375 72.90625 
L 47.609375 25.390625 
L 58.015625 25.390625 
L 58.015625 17.1875 
L 47.609375 17.1875 
L 47.609375 0 
L 37.796875 0 
L 37.796875 17.1875 
L 4.890625 17.1875 
L 4.890625 26.703125 
z
" id="DejaVuSans-52"/>
      </defs>
      <g transform="translate(105.018942 268.038437)scale(0.1 -0.1)">
       <use xlink:href="#DejaVuSans-52"/>
       <use x="63.623047" xlink:href="#DejaVuSans-48"/>
      </g>
     </g>
    </g>
    <g id="xtick_3">
     <g id="line2d_20">
      <g>
       <use style="stroke:#000000;stroke-width:0.8;" x="145.331652" xlink:href="#made3d80ffc" y="253.44"/>
      </g>
     </g>
     <g id="text_13">
      <!-- 50 -->
      <g transform="translate(138.969152 268.038437)scale(0.1 -0.1)">
       <use xlink:href="#DejaVuSans-53"/>
       <use x="63.623047" xlink:href="#DejaVuSans-48"/>
      </g>
     </g>
    </g>
    <g id="xtick_4">
     <g id="line2d_21">
      <g>
       <use style="stroke:#000000;stroke-width:0.8;" x="179.281863" xlink:href="#made3d80ffc" y="253.44"/>
      </g>
     </g>
     <g id="text_14">
      <!-- 60 -->
      <defs>
       <path d="M 33.015625 40.375 
Q 26.375 40.375 22.484375 35.828125 
Q 18.609375 31.296875 18.609375 23.390625 
Q 18.609375 15.53125 22.484375 10.953125 
Q 26.375 6.390625 33.015625 6.390625 
Q 39.65625 6.390625 43.53125 10.953125 
Q 47.40625 15.53125 47.40625 23.390625 
Q 47.40625 31.296875 43.53125 35.828125 
Q 39.65625 40.375 33.015625 40.375 
z
M 52.59375 71.296875 
L 52.59375 62.3125 
Q 48.875 64.0625 45.09375 64.984375 
Q 41.3125 65.921875 37.59375 65.921875 
Q 27.828125 65.921875 22.671875 59.328125 
Q 17.53125 52.734375 16.796875 39.40625 
Q 19.671875 43.65625 24.015625 45.921875 
Q 28.375 48.1875 33.59375 48.1875 
Q 44.578125 48.1875 50.953125 41.515625 
Q 57.328125 34.859375 57.328125 23.390625 
Q 57.328125 12.15625 50.6875 5.359375 
Q 44.046875 -1.421875 33.015625 -1.421875 
Q 20.359375 -1.421875 13.671875 8.265625 
Q 6.984375 17.96875 6.984375 36.375 
Q 6.984375 53.65625 15.1875 63.9375 
Q 23.390625 74.21875 37.203125 74.21875 
Q 40.921875 74.21875 44.703125 73.484375 
Q 48.484375 72.75 52.59375 71.296875 
z
" id="DejaVuSans-54"/>
      </defs>
      <g transform="translate(172.919363 268.038437)scale(0.1 -0.1)">
       <use xlink:href="#DejaVuSans-54"/>
       <use x="63.623047" xlink:href="#DejaVuSans-48"/>
      </g>
     </g>
    </g>
    <g id="text_15">
     <!-- Age -->
     <defs>
      <path d="M 45.40625 27.984375 
Q 45.40625 37.75 41.375 43.109375 
Q 37.359375 48.484375 30.078125 48.484375 
Q 22.859375 48.484375 18.828125 43.109375 
Q 14.796875 37.75 14.796875 27.984375 
Q 14.796875 18.265625 18.828125 12.890625 
Q 22.859375 7.515625 30.078125 7.515625 
Q 37.359375 7.515625 41.375 12.890625 
Q 45.40625 18.265625 45.40625 27.984375 
z
M 54.390625 6.78125 
Q 54.390625 -7.171875 48.1875 -13.984375 
Q 42 -20.796875 29.203125 -20.796875 
Q 24.46875 -20.796875 20.265625 -20.09375 
Q 16.0625 -19.390625 12.109375 -17.921875 
L 12.109375 -9.1875 
Q 16.0625 -11.328125 19.921875 -12.34375 
Q 23.78125 -13.375 27.78125 -13.375 
Q 36.625 -13.375 41.015625 -8.765625 
Q 45.40625 -4.15625 45.40625 5.171875 
L 45.40625 9.625 
Q 42.625 4.78125 38.28125 2.390625 
Q 33.9375 0 27.875 0 
Q 17.828125 0 11.671875 7.65625 
Q 5.515625 15.328125 5.515625 27.984375 
Q 5.515625 40.671875 11.671875 48.328125 
Q 17.828125 56 27.875 56 
Q 33.9375 56 38.28125 53.609375 
Q 42.625 51.21875 45.40625 46.390625 
L 45.40625 54.6875 
L 54.390625 54.6875 
z
" id="DejaVuSans-103"/>
     </defs>
     <g transform="translate(116.563565 281.716562)scale(0.1 -0.1)">
      <use xlink:href="#DejaVuSans-65"/>
      <use x="68.408203" xlink:href="#DejaVuSans-103"/>
      <use x="131.884766" xlink:href="#DejaVuSans-101"/>
     </g>
    </g>
   </g>
   <g id="matplotlib.axis_6">
    <g id="ytick_6">
     <g id="line2d_22">
      <g>
       <use style="stroke:#000000;stroke-width:0.8;" x="50.14375" xlink:href="#mfaffe0bdb1" y="253.44"/>
      </g>
     </g>
     <g id="text_16">
      <!-- 0.00 -->
      <g transform="translate(20.878125 257.239219)scale(0.1 -0.1)">
       <use xlink:href="#DejaVuSans-48"/>
       <use x="63.623047" xlink:href="#DejaVuSans-46"/>
       <use x="95.410156" xlink:href="#DejaVuSans-48"/>
       <use x="159.033203" xlink:href="#DejaVuSans-48"/>
      </g>
     </g>
    </g>
    <g id="ytick_7">
     <g id="line2d_23">
      <g>
       <use style="stroke:#000000;stroke-width:0.8;" x="50.14375" xlink:href="#mfaffe0bdb1" y="228.730909"/>
      </g>
     </g>
     <g id="text_17">
      <!-- 0.05 -->
      <g transform="translate(20.878125 232.530128)scale(0.1 -0.1)">
       <use xlink:href="#DejaVuSans-48"/>
       <use x="63.623047" xlink:href="#DejaVuSans-46"/>
       <use x="95.410156" xlink:href="#DejaVuSans-48"/>
       <use x="159.033203" xlink:href="#DejaVuSans-53"/>
      </g>
     </g>
    </g>
    <g id="ytick_8">
     <g id="line2d_24">
      <g>
       <use style="stroke:#000000;stroke-width:0.8;" x="50.14375" xlink:href="#mfaffe0bdb1" y="204.021818"/>
      </g>
     </g>
     <g id="text_18">
      <!-- 0.10 -->
      <g transform="translate(20.878125 207.821037)scale(0.1 -0.1)">
       <use xlink:href="#DejaVuSans-48"/>
       <use x="63.623047" xlink:href="#DejaVuSans-46"/>
       <use x="95.410156" xlink:href="#DejaVuSans-49"/>
       <use x="159.033203" xlink:href="#DejaVuSans-48"/>
      </g>
     </g>
    </g>
    <g id="ytick_9">
     <g id="line2d_25">
      <g>
       <use style="stroke:#000000;stroke-width:0.8;" x="50.14375" xlink:href="#mfaffe0bdb1" y="179.312727"/>
      </g>
     </g>
     <g id="text_19">
      <!-- 0.15 -->
      <g transform="translate(20.878125 183.111946)scale(0.1 -0.1)">
       <use xlink:href="#DejaVuSans-48"/>
       <use x="63.623047" xlink:href="#DejaVuSans-46"/>
       <use x="95.410156" xlink:href="#DejaVuSans-49"/>
       <use x="159.033203" xlink:href="#DejaVuSans-53"/>
      </g>
     </g>
    </g>
    <g id="ytick_10">
     <g id="line2d_26">
      <g>
       <use style="stroke:#000000;stroke-width:0.8;" x="50.14375" xlink:href="#mfaffe0bdb1" y="154.603636"/>
      </g>
     </g>
     <g id="text_20">
      <!-- 0.20 -->
      <g transform="translate(20.878125 158.402855)scale(0.1 -0.1)">
       <use xlink:href="#DejaVuSans-48"/>
       <use x="63.623047" xlink:href="#DejaVuSans-46"/>
       <use x="95.410156" xlink:href="#DejaVuSans-50"/>
       <use x="159.033203" xlink:href="#DejaVuSans-48"/>
      </g>
     </g>
    </g>
    <g id="text_21">
     <!-- Probability -->
     <g transform="translate(14.798438 230.648381)rotate(-90)scale(0.1 -0.1)">
      <use xlink:href="#DejaVuSans-80"/>
      <use x="60.287109" xlink:href="#DejaVuSans-114"/>
      <use x="101.369141" xlink:href="#DejaVuSans-111"/>
      <use x="162.550781" xlink:href="#DejaVuSans-98"/>
      <use x="226.027344" xlink:href="#DejaVuSans-97"/>
      <use x="287.306641" xlink:href="#DejaVuSans-98"/>
      <use x="350.783203" xlink:href="#DejaVuSans-105"/>
      <use x="378.566406" xlink:href="#DejaVuSans-108"/>
      <use x="406.349609" xlink:href="#DejaVuSans-105"/>
      <use x="434.132812" xlink:href="#DejaVuSans-116"/>
      <use x="473.341797" xlink:href="#DejaVuSans-121"/>
     </g>
    </g>
   </g>
   <g id="line2d_27">
    <path clip-path="url(#pd841878e00)" d="M 57.061105 181.800993 
L 59.607371 181.546808 
L 62.153637 181.425303 
L 68.094924 181.416717 
L 77.431232 181.911283 
L 85.070029 182.631156 
L 96.103847 183.890324 
L 103.742645 184.934295 
L 126.659037 188.110855 
L 132.600324 188.952649 
L 147.029163 190.789803 
L 160.609247 192.246718 
L 168.248044 192.895936 
L 183.525639 194.144424 
L 194.559458 194.986147 
L 195.408213 195.004899 
L 195.408213 195.004899 
" style="fill:none;stroke:#0000ff;stroke-dasharray:1.5,2.475;stroke-dashoffset:0;stroke-width:1.5;"/>
   </g>
   <g id="line2d_28">
    <path clip-path="url(#pd841878e00)" d="M 57.061105 213.548856 
L 59.607371 212.863167 
L 61.304882 212.524611 
L 64.699903 211.908786 
L 68.943679 211.457949 
L 71.489945 211.222395 
L 78.279987 210.913741 
L 79.977497 210.896261 
L 86.767539 210.903111 
L 88.46505 210.923199 
L 92.708826 211.078537 
L 96.103847 211.234732 
L 102.893889 211.60952 
L 105.440155 211.876706 
L 110.532687 212.12893 
L 114.776463 212.495563 
L 120.71775 212.932588 
L 140.239121 214.307542 
L 142.785387 214.43054 
L 152.121695 214.913495 
L 159.760492 215.115867 
L 162.306758 215.182717 
L 195.408213 215.020151 
L 195.408213 215.020151 
" style="fill:none;stroke:#ff0000;stroke-dasharray:1.5,2.475;stroke-dashoffset:0;stroke-width:1.5;"/>
   </g>
   <g id="line2d_29">
    <path clip-path="url(#pd841878e00)" d="M 57.061105 188.221104 
L 60.456126 189.477752 
L 65.548658 191.071248 
L 76.582476 193.835485 
L 87.616295 196.152802 
L 90.162561 196.654427 
L 95.255092 197.621549 
L 101.196379 198.674777 
L 113.927708 200.800962 
L 129.205303 203.104237 
L 157.214226 206.652104 
L 174.189331 208.484846 
L 180.130618 209.053079 
L 188.618171 209.862187 
L 195.408213 210.44662 
L 195.408213 210.44662 
" style="fill:none;stroke:#0000ff;stroke-dasharray:1.5,2.475;stroke-dashoffset:0;stroke-width:1.5;"/>
   </g>
   <g id="line2d_30">
    <path clip-path="url(#pd841878e00)" d="M 57.061105 221.581674 
L 59.607371 222.413579 
L 62.153637 223.125994 
L 69.792434 224.801712 
L 76.582476 225.946678 
L 83.372518 226.909265 
L 88.46505 227.579909 
L 91.860071 227.957676 
L 96.952603 228.535793 
L 107.986421 229.619738 
L 130.054058 231.391562 
L 146.180408 232.394104 
L 175.038087 233.690567 
L 180.979373 233.905891 
L 195.408213 234.31453 
L 195.408213 234.31453 
" style="fill:none;stroke:#ff0000;stroke-dasharray:1.5,2.475;stroke-dashoffset:0;stroke-width:1.5;"/>
   </g>
   <g id="line2d_31">
    <path clip-path="url(#pd841878e00)" d="M 57.061105 185.055236 
L 76.582476 187.956325 
L 90.162561 190.078921 
L 97.801358 191.27153 
L 129.205303 196.006218 
L 146.180408 198.268615 
L 163.155513 200.16484 
L 195.408213 203.096064 
L 195.408213 203.096064 
" style="fill:none;stroke:#0000ff;stroke-linecap:square;stroke-width:1.5;"/>
   </g>
   <g id="line2d_32">
    <path clip-path="url(#pd841878e00)" d="M 57.061105 217.788932 
L 73.187455 218.903406 
L 80.826253 219.522341 
L 129.205303 223.62162 
L 146.180408 224.753028 
L 163.155513 225.499575 
L 175.038087 225.869551 
L 186.071905 226.114336 
L 195.408213 226.245182 
L 195.408213 226.245182 
" style="fill:none;stroke:#ff0000;stroke-dasharray:15,3;stroke-dashoffset:0;stroke-width:1.5;"/>
   </g>
   <g id="patch_14">
    <path d="M 50.14375 253.44 
L 50.14375 154.603636 
" style="fill:none;stroke:#000000;stroke-linecap:square;stroke-linejoin:miter;stroke-width:0.8;"/>
   </g>
   <g id="patch_15">
    <path d="M 202.325568 253.44 
L 202.325568 154.603636 
" style="fill:none;stroke:#000000;stroke-linecap:square;stroke-linejoin:miter;stroke-width:0.8;"/>
   </g>
   <g id="patch_16">
    <path d="M 50.14375 253.44 
L 202.325568 253.44 
" style="fill:none;stroke:#000000;stroke-linecap:square;stroke-linejoin:miter;stroke-width:0.8;"/>
   </g>
   <g id="patch_17">
    <path d="M 50.14375 154.603636 
L 202.325568 154.603636 
" style="fill:none;stroke:#000000;stroke-linecap:square;stroke-linejoin:miter;stroke-width:0.8;"/>
   </g>
   <g id="text_22">
    <!-- High school -->
    <defs>
     <path d="M 9.8125 72.90625 
L 19.671875 72.90625 
L 19.671875 43.015625 
L 55.515625 43.015625 
L 55.515625 72.90625 
L 65.375 72.90625 
L 65.375 0 
L 55.515625 0 
L 55.515625 34.71875 
L 19.671875 34.71875 
L 19.671875 0 
L 9.8125 0 
z
" id="DejaVuSans-72"/>
     <path d="M 54.890625 33.015625 
L 54.890625 0 
L 45.90625 0 
L 45.90625 32.71875 
Q 45.90625 40.484375 42.875 44.328125 
Q 39.84375 48.1875 33.796875 48.1875 
Q 26.515625 48.1875 22.3125 43.546875 
Q 18.109375 38.921875 18.109375 30.90625 
L 18.109375 0 
L 9.078125 0 
L 9.078125 75.984375 
L 18.109375 75.984375 
L 18.109375 46.1875 
Q 21.34375 51.125 25.703125 53.5625 
Q 30.078125 56 35.796875 56 
Q 45.21875 56 50.046875 50.171875 
Q 54.890625 44.34375 54.890625 33.015625 
z
" id="DejaVuSans-104"/>
     <path d="M 44.28125 53.078125 
L 44.28125 44.578125 
Q 40.484375 46.53125 36.375 47.5 
Q 32.28125 48.484375 27.875 48.484375 
Q 21.1875 48.484375 17.84375 46.4375 
Q 14.5 44.390625 14.5 40.28125 
Q 14.5 37.15625 16.890625 35.375 
Q 19.28125 33.59375 26.515625 31.984375 
L 29.59375 31.296875 
Q 39.15625 29.25 43.1875 25.515625 
Q 47.21875 21.78125 47.21875 15.09375 
Q 47.21875 7.46875 41.1875 3.015625 
Q 35.15625 -1.421875 24.609375 -1.421875 
Q 20.21875 -1.421875 15.453125 -0.5625 
Q 10.6875 0.296875 5.421875 2 
L 5.421875 11.28125 
Q 10.40625 8.6875 15.234375 7.390625 
Q 20.0625 6.109375 24.8125 6.109375 
Q 31.15625 6.109375 34.5625 8.28125 
Q 37.984375 10.453125 37.984375 14.40625 
Q 37.984375 18.0625 35.515625 20.015625 
Q 33.0625 21.96875 24.703125 23.78125 
L 21.578125 24.515625 
Q 13.234375 26.265625 9.515625 29.90625 
Q 5.8125 33.546875 5.8125 39.890625 
Q 5.8125 47.609375 11.28125 51.796875 
Q 16.75 56 26.8125 56 
Q 31.78125 56 36.171875 55.265625 
Q 40.578125 54.546875 44.28125 53.078125 
z
" id="DejaVuSans-115"/>
    </defs>
    <g transform="translate(91.300597 148.603636)scale(0.12 -0.12)">
     <use xlink:href="#DejaVuSans-72"/>
     <use x="75.195312" xlink:href="#DejaVuSans-105"/>
     <use x="102.978516" xlink:href="#DejaVuSans-103"/>
     <use x="166.455078" xlink:href="#DejaVuSans-104"/>
     <use x="229.833984" xlink:href="#DejaVuSans-32"/>
     <use x="261.621094" xlink:href="#DejaVuSans-115"/>
     <use x="313.720703" xlink:href="#DejaVuSans-99"/>
     <use x="368.701172" xlink:href="#DejaVuSans-104"/>
     <use x="432.080078" xlink:href="#DejaVuSans-111"/>
     <use x="493.261719" xlink:href="#DejaVuSans-111"/>
     <use x="554.443359" xlink:href="#DejaVuSans-108"/>
    </g>
   </g>
  </g>
  <g id="axes_4">
   <g id="patch_18">
    <path d="M 232.761932 253.44 
L 384.94375 253.44 
L 384.94375 154.603636 
L 232.761932 154.603636 
z
" style="fill:#ffffff;"/>
   </g>
   <g id="matplotlib.axis_7">
    <g id="xtick_5">
     <g id="line2d_33">
      <g>
       <use style="stroke:#000000;stroke-width:0.8;" x="260.049413" xlink:href="#made3d80ffc" y="253.44"/>
      </g>
     </g>
     <g id="text_23">
      <!-- 30 -->
      <g transform="translate(253.686913 268.038437)scale(0.1 -0.1)">
       <use xlink:href="#DejaVuSans-51"/>
       <use x="63.623047" xlink:href="#DejaVuSans-48"/>
      </g>
     </g>
    </g>
    <g id="xtick_6">
     <g id="line2d_34">
      <g>
       <use style="stroke:#000000;stroke-width:0.8;" x="293.999624" xlink:href="#made3d80ffc" y="253.44"/>
      </g>
     </g>
     <g id="text_24">
      <!-- 40 -->
      <g transform="translate(287.637124 268.038437)scale(0.1 -0.1)">
       <use xlink:href="#DejaVuSans-52"/>
       <use x="63.623047" xlink:href="#DejaVuSans-48"/>
      </g>
     </g>
    </g>
    <g id="xtick_7">
     <g id="line2d_35">
      <g>
       <use style="stroke:#000000;stroke-width:0.8;" x="327.949834" xlink:href="#made3d80ffc" y="253.44"/>
      </g>
     </g>
     <g id="text_25">
      <!-- 50 -->
      <g transform="translate(321.587334 268.038437)scale(0.1 -0.1)">
       <use xlink:href="#DejaVuSans-53"/>
       <use x="63.623047" xlink:href="#DejaVuSans-48"/>
      </g>
     </g>
    </g>
    <g id="xtick_8">
     <g id="line2d_36">
      <g>
       <use style="stroke:#000000;stroke-width:0.8;" x="361.900045" xlink:href="#made3d80ffc" y="253.44"/>
      </g>
     </g>
     <g id="text_26">
      <!-- 60 -->
      <g transform="translate(355.537545 268.038437)scale(0.1 -0.1)">
       <use xlink:href="#DejaVuSans-54"/>
       <use x="63.623047" xlink:href="#DejaVuSans-48"/>
      </g>
     </g>
    </g>
    <g id="text_27">
     <!-- Age -->
     <g transform="translate(299.181747 281.716562)scale(0.1 -0.1)">
      <use xlink:href="#DejaVuSans-65"/>
      <use x="68.408203" xlink:href="#DejaVuSans-103"/>
      <use x="131.884766" xlink:href="#DejaVuSans-101"/>
     </g>
    </g>
   </g>
   <g id="matplotlib.axis_8"/>
   <g id="line2d_37">
    <path clip-path="url(#pa0071375c7)" d="M 239.679287 200.987311 
L 242.225553 200.752846 
L 244.771819 200.630913 
L 254.956882 200.655062 
L 268.536966 201.476586 
L 280.41954 202.540167 
L 283.814561 202.928474 
L 285.512071 203.062326 
L 288.907092 203.446113 
L 301.638421 204.852243 
L 305.033442 205.230862 
L 317.764771 206.631375 
L 322.857303 207.170586 
L 326.252324 207.492294 
L 330.4961 207.932932 
L 346.62245 209.296638 
L 354.261247 209.798583 
L 359.353779 210.163504 
L 378.026395 211.325823 
L 378.026395 211.325823 
" style="fill:none;stroke:#0000ff;stroke-dasharray:1.5,2.475;stroke-dashoffset:0;stroke-width:1.5;"/>
   </g>
   <g id="line2d_38">
    <path clip-path="url(#pa0071375c7)" d="M 239.679287 228.212549 
L 242.225553 227.752028 
L 244.771819 227.409645 
L 254.956882 226.590003 
L 267.688211 226.397357 
L 277.024519 226.517094 
L 283.814561 226.833263 
L 285.512071 226.851097 
L 288.058337 227.012219 
L 293.150869 227.182694 
L 297.394645 227.436419 
L 309.277219 228.036419 
L 313.520995 228.275505 
L 322.857303 228.758752 
L 326.252324 228.881976 
L 329.647345 229.047582 
L 338.983653 229.353857 
L 342.378674 229.415283 
L 359.353779 229.614702 
L 370.387597 229.693488 
L 377.177639 229.711583 
L 378.026395 229.669341 
L 378.026395 229.669341 
" style="fill:none;stroke:#ff0000;stroke-dasharray:1.5,2.475;stroke-dashoffset:0;stroke-width:1.5;"/>
   </g>
   <g id="line2d_39">
    <path clip-path="url(#pa0071375c7)" d="M 239.679287 206.253943 
L 242.225553 207.014751 
L 245.620574 207.851385 
L 251.561861 209.214612 
L 263.444434 211.308548 
L 271.083232 212.527417 
L 295.697134 215.76292 
L 320.311037 218.516776 
L 327.949834 219.268528 
L 361.900045 222.203177 
L 371.236353 222.930135 
L 378.026395 223.382874 
L 378.026395 223.382874 
" style="fill:none;stroke:#0000ff;stroke-dasharray:1.5,2.475;stroke-dashoffset:0;stroke-width:1.5;"/>
   </g>
   <g id="line2d_40">
    <path clip-path="url(#pa0071375c7)" d="M 239.679287 233.53021 
L 242.225553 234.081449 
L 245.620574 234.646782 
L 251.561861 235.535497 
L 264.29319 236.822036 
L 279.570784 238.021122 
L 314.36975 239.947222 
L 364.44631 241.684346 
L 378.026395 241.983701 
L 378.026395 241.983701 
" style="fill:none;stroke:#ff0000;stroke-dasharray:1.5,2.475;stroke-dashoffset:0;stroke-width:1.5;"/>
   </g>
   <g id="line2d_41">
    <path clip-path="url(#pa0071375c7)" d="M 239.679287 203.688995 
L 253.259371 205.195421 
L 261.746924 206.196509 
L 268.536966 206.96963 
L 309.277219 211.795649 
L 323.706058 213.336246 
L 344.076184 215.249555 
L 350.017471 215.726078 
L 365.295066 216.91828 
L 378.026395 217.777496 
L 378.026395 217.777496 
" style="fill:none;stroke:#0000ff;stroke-linecap:square;stroke-width:1.5;"/>
   </g>
   <g id="line2d_42">
    <path clip-path="url(#pa0071375c7)" d="M 239.679287 231.041844 
L 253.259371 231.626209 
L 261.746924 232.065135 
L 267.688211 232.348995 
L 328.79859 235.607165 
L 345.773695 236.207535 
L 352.563737 236.405059 
L 367.841332 236.771156 
L 378.026395 236.923096 
L 378.026395 236.923096 
" style="fill:none;stroke:#ff0000;stroke-dasharray:15,3;stroke-dashoffset:0;stroke-width:1.5;"/>
   </g>
   <g id="patch_19">
    <path d="M 232.761932 253.44 
L 232.761932 154.603636 
" style="fill:none;stroke:#000000;stroke-linecap:square;stroke-linejoin:miter;stroke-width:0.8;"/>
   </g>
   <g id="patch_20">
    <path d="M 384.94375 253.44 
L 384.94375 154.603636 
" style="fill:none;stroke:#000000;stroke-linecap:square;stroke-linejoin:miter;stroke-width:0.8;"/>
   </g>
   <g id="patch_21">
    <path d="M 232.761932 253.44 
L 384.94375 253.44 
" style="fill:none;stroke:#000000;stroke-linecap:square;stroke-linejoin:miter;stroke-width:0.8;"/>
   </g>
   <g id="patch_22">
    <path d="M 232.761932 154.603636 
L 384.94375 154.603636 
" style="fill:none;stroke:#000000;stroke-linecap:square;stroke-linejoin:miter;stroke-width:0.8;"/>
   </g>
   <g id="text_28">
    <!-- College -->
    <defs>
     <path d="M 64.40625 67.28125 
L 64.40625 56.890625 
Q 59.421875 61.53125 53.78125 63.8125 
Q 48.140625 66.109375 41.796875 66.109375 
Q 29.296875 66.109375 22.65625 58.46875 
Q 16.015625 50.828125 16.015625 36.375 
Q 16.015625 21.96875 22.65625 14.328125 
Q 29.296875 6.6875 41.796875 6.6875 
Q 48.140625 6.6875 53.78125 8.984375 
Q 59.421875 11.28125 64.40625 15.921875 
L 64.40625 5.609375 
Q 59.234375 2.09375 53.4375 0.328125 
Q 47.65625 -1.421875 41.21875 -1.421875 
Q 24.65625 -1.421875 15.125 8.703125 
Q 5.609375 18.84375 5.609375 36.375 
Q 5.609375 53.953125 15.125 64.078125 
Q 24.65625 74.21875 41.21875 74.21875 
Q 47.75 74.21875 53.53125 72.484375 
Q 59.328125 70.75 64.40625 67.28125 
z
" id="DejaVuSans-67"/>
    </defs>
    <g transform="translate(286.465341 148.603636)scale(0.12 -0.12)">
     <use xlink:href="#DejaVuSans-67"/>
     <use x="69.824219" xlink:href="#DejaVuSans-111"/>
     <use x="131.005859" xlink:href="#DejaVuSans-108"/>
     <use x="158.789062" xlink:href="#DejaVuSans-108"/>
     <use x="186.572266" xlink:href="#DejaVuSans-101"/>
     <use x="248.095703" xlink:href="#DejaVuSans-103"/>
     <use x="311.572266" xlink:href="#DejaVuSans-101"/>
    </g>
   </g>
  </g>
  <g id="text_29">
   <!-- Unemployment probability after pandemic shock -->
   <defs>
    <path d="M 37.109375 75.984375 
L 37.109375 68.5 
L 28.515625 68.5 
Q 23.6875 68.5 21.796875 66.546875 
Q 19.921875 64.59375 19.921875 59.515625 
L 19.921875 54.6875 
L 34.71875 54.6875 
L 34.71875 47.703125 
L 19.921875 47.703125 
L 19.921875 0 
L 10.890625 0 
L 10.890625 47.703125 
L 2.296875 47.703125 
L 2.296875 54.6875 
L 10.890625 54.6875 
L 10.890625 58.5 
Q 10.890625 67.625 15.140625 71.796875 
Q 19.390625 75.984375 28.609375 75.984375 
z
" id="DejaVuSans-102"/>
    <path d="M 9.078125 75.984375 
L 18.109375 75.984375 
L 18.109375 31.109375 
L 44.921875 54.6875 
L 56.390625 54.6875 
L 27.390625 29.109375 
L 57.625 0 
L 45.90625 0 
L 18.109375 26.703125 
L 18.109375 0 
L 9.078125 0 
z
" id="DejaVuSans-107"/>
   </defs>
   <g transform="translate(64.981563 16.318125)scale(0.12 -0.12)">
    <use xlink:href="#DejaVuSans-85"/>
    <use x="73.193359" xlink:href="#DejaVuSans-110"/>
    <use x="136.572266" xlink:href="#DejaVuSans-101"/>
    <use x="198.095703" xlink:href="#DejaVuSans-109"/>
    <use x="295.507812" xlink:href="#DejaVuSans-112"/>
    <use x="358.984375" xlink:href="#DejaVuSans-108"/>
    <use x="386.767578" xlink:href="#DejaVuSans-111"/>
    <use x="447.949219" xlink:href="#DejaVuSans-121"/>
    <use x="507.128906" xlink:href="#DejaVuSans-109"/>
    <use x="604.541016" xlink:href="#DejaVuSans-101"/>
    <use x="666.064453" xlink:href="#DejaVuSans-110"/>
    <use x="729.443359" xlink:href="#DejaVuSans-116"/>
    <use x="768.652344" xlink:href="#DejaVuSans-32"/>
    <use x="800.439453" xlink:href="#DejaVuSans-112"/>
    <use x="863.916016" xlink:href="#DejaVuSans-114"/>
    <use x="904.998047" xlink:href="#DejaVuSans-111"/>
    <use x="966.179688" xlink:href="#DejaVuSans-98"/>
    <use x="1029.65625" xlink:href="#DejaVuSans-97"/>
    <use x="1090.935547" xlink:href="#DejaVuSans-98"/>
    <use x="1154.412109" xlink:href="#DejaVuSans-105"/>
    <use x="1182.195312" xlink:href="#DejaVuSans-108"/>
    <use x="1209.978516" xlink:href="#DejaVuSans-105"/>
    <use x="1237.761719" xlink:href="#DejaVuSans-116"/>
    <use x="1276.970703" xlink:href="#DejaVuSans-121"/>
    <use x="1336.150391" xlink:href="#DejaVuSans-32"/>
    <use x="1367.9375" xlink:href="#DejaVuSans-97"/>
    <use x="1429.216797" xlink:href="#DejaVuSans-102"/>
    <use x="1464.40625" xlink:href="#DejaVuSans-116"/>
    <use x="1503.615234" xlink:href="#DejaVuSans-101"/>
    <use x="1565.138672" xlink:href="#DejaVuSans-114"/>
    <use x="1606.251953" xlink:href="#DejaVuSans-32"/>
    <use x="1638.039062" xlink:href="#DejaVuSans-112"/>
    <use x="1701.515625" xlink:href="#DejaVuSans-97"/>
    <use x="1762.794922" xlink:href="#DejaVuSans-110"/>
    <use x="1826.173828" xlink:href="#DejaVuSans-100"/>
    <use x="1889.650391" xlink:href="#DejaVuSans-101"/>
    <use x="1951.173828" xlink:href="#DejaVuSans-109"/>
    <use x="2048.585938" xlink:href="#DejaVuSans-105"/>
    <use x="2076.369141" xlink:href="#DejaVuSans-99"/>
    <use x="2131.349609" xlink:href="#DejaVuSans-32"/>
    <use x="2163.136719" xlink:href="#DejaVuSans-115"/>
    <use x="2215.236328" xlink:href="#DejaVuSans-104"/>
    <use x="2278.615234" xlink:href="#DejaVuSans-111"/>
    <use x="2339.796875" xlink:href="#DejaVuSans-99"/>
    <use x="2394.777344" xlink:href="#DejaVuSans-107"/>
   </g>
  </g>
 </g>
 <defs>
  <clipPath id="p7e1505f0cd">
   <rect height="98.836364" width="152.181818" x="50.14375" y="36"/>
  </clipPath>
  <clipPath id="p762133b71c">
   <rect height="98.836364" width="152.181818" x="232.761932" y="36"/>
  </clipPath>
  <clipPath id="pd841878e00">
   <rect height="98.836364" width="152.181818" x="50.14375" y="154.603636"/>
  </clipPath>
  <clipPath id="pa0071375c7">
   <rect height="98.836364" width="152.181818" x="232.761932" y="154.603636"/>
  </clipPath>
 </defs>
</svg>
