<?xml version="1.0" encoding="utf-8" standalone="no"?>
<!DOCTYPE svg PUBLIC "-//W3C//DTD SVG 1.1//EN"
  "http://www.w3.org/Graphics/SVG/1.1/DTD/svg11.dtd">
<!-- Created with matplotlib (https://matplotlib.org/) -->
<svg height="290.99625pt" version="1.1" viewBox="0 0 392.14375 290.99625" width="392.14375pt" xmlns="http://www.w3.org/2000/svg" xmlns:xlink="http://www.w3.org/1999/xlink">
 <defs>
  <style type="text/css">
*{stroke-linecap:butt;stroke-linejoin:round;}
  </style>
 </defs>
 <g id="figure_1">
  <g id="patch_1">
   <path d="M 0 290.99625 
L 392.14375 290.99625 
L 392.14375 0 
L 0 0 
z
" style="fill:#ffffff;"/>
  </g>
  <g id="axes_1">
   <g id="patch_2">
    <path d="M 50.14375 134.836364 
L 202.325568 134.836364 
L 202.325568 36 
L 50.14375 36 
z
" style="fill:#ffffff;"/>
   </g>
   <g id="matplotlib.axis_1"/>
   <g id="matplotlib.axis_2">
    <g id="ytick_1">
     <g id="line2d_1">
      <defs>
       <path d="M 0 0 
L -3.5 0 
" id="m42d90c9ed7" style="stroke:#000000;stroke-width:0.8;"/>
      </defs>
      <g>
       <use style="stroke:#000000;stroke-width:0.8;" x="50.14375" xlink:href="#m42d90c9ed7" y="134.836364"/>
      </g>
     </g>
     <g id="text_1">
      <!-- 0.00 -->
      <defs>
       <path d="M 31.78125 66.40625 
Q 24.171875 66.40625 20.328125 58.90625 
Q 16.5 51.421875 16.5 36.375 
Q 16.5 21.390625 20.328125 13.890625 
Q 24.171875 6.390625 31.78125 6.390625 
Q 39.453125 6.390625 43.28125 13.890625 
Q 47.125 21.390625 47.125 36.375 
Q 47.125 51.421875 43.28125 58.90625 
Q 39.453125 66.40625 31.78125 66.40625 
z
M 31.78125 74.21875 
Q 44.046875 74.21875 50.515625 64.515625 
Q 56.984375 54.828125 56.984375 36.375 
Q 56.984375 17.96875 50.515625 8.265625 
Q 44.046875 -1.421875 31.78125 -1.421875 
Q 19.53125 -1.421875 13.0625 8.265625 
Q 6.59375 17.96875 6.59375 36.375 
Q 6.59375 54.828125 13.0625 64.515625 
Q 19.53125 74.21875 31.78125 74.21875 
z
" id="DejaVuSans-48"/>
       <path d="M 10.6875 12.40625 
L 21 12.40625 
L 21 0 
L 10.6875 0 
z
" id="DejaVuSans-46"/>
      </defs>
      <g transform="translate(20.878125 138.635582)scale(0.1 -0.1)">
       <use xlink:href="#DejaVuSans-48"/>
       <use x="63.623047" xlink:href="#DejaVuSans-46"/>
       <use x="95.410156" xlink:href="#DejaVuSans-48"/>
       <use x="159.033203" xlink:href="#DejaVuSans-48"/>
      </g>
     </g>
    </g>
    <g id="ytick_2">
     <g id="line2d_2">
      <g>
       <use style="stroke:#000000;stroke-width:0.8;" x="50.14375" xlink:href="#m42d90c9ed7" y="110.127273"/>
      </g>
     </g>
     <g id="text_2">
      <!-- 0.05 -->
      <defs>
       <path d="M 10.796875 72.90625 
L 49.515625 72.90625 
L 49.515625 64.59375 
L 19.828125 64.59375 
L 19.828125 46.734375 
Q 21.96875 47.46875 24.109375 47.828125 
Q 26.265625 48.1875 28.421875 48.1875 
Q 40.625 48.1875 47.75 41.5 
Q 54.890625 34.8125 54.890625 23.390625 
Q 54.890625 11.625 47.5625 5.09375 
Q 40.234375 -1.421875 26.90625 -1.421875 
Q 22.3125 -1.421875 17.546875 -0.640625 
Q 12.796875 0.140625 7.71875 1.703125 
L 7.71875 11.625 
Q 12.109375 9.234375 16.796875 8.0625 
Q 21.484375 6.890625 26.703125 6.890625 
Q 35.15625 6.890625 40.078125 11.328125 
Q 45.015625 15.765625 45.015625 23.390625 
Q 45.015625 31 40.078125 35.4375 
Q 35.15625 39.890625 26.703125 39.890625 
Q 22.75 39.890625 18.8125 39.015625 
Q 14.890625 38.140625 10.796875 36.28125 
z
" id="DejaVuSans-53"/>
      </defs>
      <g transform="translate(20.878125 113.926491)scale(0.1 -0.1)">
       <use xlink:href="#DejaVuSans-48"/>
       <use x="63.623047" xlink:href="#DejaVuSans-46"/>
       <use x="95.410156" xlink:href="#DejaVuSans-48"/>
       <use x="159.033203" xlink:href="#DejaVuSans-53"/>
      </g>
     </g>
    </g>
    <g id="ytick_3">
     <g id="line2d_3">
      <g>
       <use style="stroke:#000000;stroke-width:0.8;" x="50.14375" xlink:href="#m42d90c9ed7" y="85.418182"/>
      </g>
     </g>
     <g id="text_3">
      <!-- 0.10 -->
      <defs>
       <path d="M 12.40625 8.296875 
L 28.515625 8.296875 
L 28.515625 63.921875 
L 10.984375 60.40625 
L 10.984375 69.390625 
L 28.421875 72.90625 
L 38.28125 72.90625 
L 38.28125 8.296875 
L 54.390625 8.296875 
L 54.390625 0 
L 12.40625 0 
z
" id="DejaVuSans-49"/>
      </defs>
      <g transform="translate(20.878125 89.217401)scale(0.1 -0.1)">
       <use xlink:href="#DejaVuSans-48"/>
       <use x="63.623047" xlink:href="#DejaVuSans-46"/>
       <use x="95.410156" xlink:href="#DejaVuSans-49"/>
       <use x="159.033203" xlink:href="#DejaVuSans-48"/>
      </g>
     </g>
    </g>
    <g id="ytick_4">
     <g id="line2d_4">
      <g>
       <use style="stroke:#000000;stroke-width:0.8;" x="50.14375" xlink:href="#m42d90c9ed7" y="60.709091"/>
      </g>
     </g>
     <g id="text_4">
      <!-- 0.15 -->
      <g transform="translate(20.878125 64.50831)scale(0.1 -0.1)">
       <use xlink:href="#DejaVuSans-48"/>
       <use x="63.623047" xlink:href="#DejaVuSans-46"/>
       <use x="95.410156" xlink:href="#DejaVuSans-49"/>
       <use x="159.033203" xlink:href="#DejaVuSans-53"/>
      </g>
     </g>
    </g>
    <g id="ytick_5">
     <g id="line2d_5">
      <g>
       <use style="stroke:#000000;stroke-width:0.8;" x="50.14375" xlink:href="#m42d90c9ed7" y="36"/>
      </g>
     </g>
     <g id="text_5">
      <!-- 0.20 -->
      <defs>
       <path d="M 19.1875 8.296875 
L 53.609375 8.296875 
L 53.609375 0 
L 7.328125 0 
L 7.328125 8.296875 
Q 12.9375 14.109375 22.625 23.890625 
Q 32.328125 33.6875 34.8125 36.53125 
Q 39.546875 41.84375 41.421875 45.53125 
Q 43.3125 49.21875 43.3125 52.78125 
Q 43.3125 58.59375 39.234375 62.25 
Q 35.15625 65.921875 28.609375 65.921875 
Q 23.96875 65.921875 18.8125 64.3125 
Q 13.671875 62.703125 7.8125 59.421875 
L 7.8125 69.390625 
Q 13.765625 71.78125 18.9375 73 
Q 24.125 74.21875 28.421875 74.21875 
Q 39.75 74.21875 46.484375 68.546875 
Q 53.21875 62.890625 53.21875 53.421875 
Q 53.21875 48.921875 51.53125 44.890625 
Q 49.859375 40.875 45.40625 35.40625 
Q 44.1875 33.984375 37.640625 27.21875 
Q 31.109375 20.453125 19.1875 8.296875 
z
" id="DejaVuSans-50"/>
      </defs>
      <g transform="translate(20.878125 39.799219)scale(0.1 -0.1)">
       <use xlink:href="#DejaVuSans-48"/>
       <use x="63.623047" xlink:href="#DejaVuSans-46"/>
       <use x="95.410156" xlink:href="#DejaVuSans-50"/>
       <use x="159.033203" xlink:href="#DejaVuSans-48"/>
      </g>
     </g>
    </g>
    <g id="text_6">
     <!-- Probability -->
     <defs>
      <path d="M 19.671875 64.796875 
L 19.671875 37.40625 
L 32.078125 37.40625 
Q 38.96875 37.40625 42.71875 40.96875 
Q 46.484375 44.53125 46.484375 51.125 
Q 46.484375 57.671875 42.71875 61.234375 
Q 38.96875 64.796875 32.078125 64.796875 
z
M 9.8125 72.90625 
L 32.078125 72.90625 
Q 44.34375 72.90625 50.609375 67.359375 
Q 56.890625 61.8125 56.890625 51.125 
Q 56.890625 40.328125 50.609375 34.8125 
Q 44.34375 29.296875 32.078125 29.296875 
L 19.671875 29.296875 
L 19.671875 0 
L 9.8125 0 
z
" id="DejaVuSans-80"/>
      <path d="M 41.109375 46.296875 
Q 39.59375 47.171875 37.8125 47.578125 
Q 36.03125 48 33.890625 48 
Q 26.265625 48 22.1875 43.046875 
Q 18.109375 38.09375 18.109375 28.8125 
L 18.109375 0 
L 9.078125 0 
L 9.078125 54.6875 
L 18.109375 54.6875 
L 18.109375 46.1875 
Q 20.953125 51.171875 25.484375 53.578125 
Q 30.03125 56 36.53125 56 
Q 37.453125 56 38.578125 55.875 
Q 39.703125 55.765625 41.0625 55.515625 
z
" id="DejaVuSans-114"/>
      <path d="M 30.609375 48.390625 
Q 23.390625 48.390625 19.1875 42.75 
Q 14.984375 37.109375 14.984375 27.296875 
Q 14.984375 17.484375 19.15625 11.84375 
Q 23.34375 6.203125 30.609375 6.203125 
Q 37.796875 6.203125 41.984375 11.859375 
Q 46.1875 17.53125 46.1875 27.296875 
Q 46.1875 37.015625 41.984375 42.703125 
Q 37.796875 48.390625 30.609375 48.390625 
z
M 30.609375 56 
Q 42.328125 56 49.015625 48.375 
Q 55.71875 40.765625 55.71875 27.296875 
Q 55.71875 13.875 49.015625 6.21875 
Q 42.328125 -1.421875 30.609375 -1.421875 
Q 18.84375 -1.421875 12.171875 6.21875 
Q 5.515625 13.875 5.515625 27.296875 
Q 5.515625 40.765625 12.171875 48.375 
Q 18.84375 56 30.609375 56 
z
" id="DejaVuSans-111"/>
      <path d="M 48.6875 27.296875 
Q 48.6875 37.203125 44.609375 42.84375 
Q 40.53125 48.484375 33.40625 48.484375 
Q 26.265625 48.484375 22.1875 42.84375 
Q 18.109375 37.203125 18.109375 27.296875 
Q 18.109375 17.390625 22.1875 11.75 
Q 26.265625 6.109375 33.40625 6.109375 
Q 40.53125 6.109375 44.609375 11.75 
Q 48.6875 17.390625 48.6875 27.296875 
z
M 18.109375 46.390625 
Q 20.953125 51.265625 25.265625 53.625 
Q 29.59375 56 35.59375 56 
Q 45.5625 56 51.78125 48.09375 
Q 58.015625 40.1875 58.015625 27.296875 
Q 58.015625 14.40625 51.78125 6.484375 
Q 45.5625 -1.421875 35.59375 -1.421875 
Q 29.59375 -1.421875 25.265625 0.953125 
Q 20.953125 3.328125 18.109375 8.203125 
L 18.109375 0 
L 9.078125 0 
L 9.078125 75.984375 
L 18.109375 75.984375 
z
" id="DejaVuSans-98"/>
      <path d="M 34.28125 27.484375 
Q 23.390625 27.484375 19.1875 25 
Q 14.984375 22.515625 14.984375 16.5 
Q 14.984375 11.71875 18.140625 8.90625 
Q 21.296875 6.109375 26.703125 6.109375 
Q 34.1875 6.109375 38.703125 11.40625 
Q 43.21875 16.703125 43.21875 25.484375 
L 43.21875 27.484375 
z
M 52.203125 31.203125 
L 52.203125 0 
L 43.21875 0 
L 43.21875 8.296875 
Q 40.140625 3.328125 35.546875 0.953125 
Q 30.953125 -1.421875 24.3125 -1.421875 
Q 15.921875 -1.421875 10.953125 3.296875 
Q 6 8.015625 6 15.921875 
Q 6 25.140625 12.171875 29.828125 
Q 18.359375 34.515625 30.609375 34.515625 
L 43.21875 34.515625 
L 43.21875 35.40625 
Q 43.21875 41.609375 39.140625 45 
Q 35.0625 48.390625 27.6875 48.390625 
Q 23 48.390625 18.546875 47.265625 
Q 14.109375 46.140625 10.015625 43.890625 
L 10.015625 52.203125 
Q 14.9375 54.109375 19.578125 55.046875 
Q 24.21875 56 28.609375 56 
Q 40.484375 56 46.34375 49.84375 
Q 52.203125 43.703125 52.203125 31.203125 
z
" id="DejaVuSans-97"/>
      <path d="M 9.421875 54.6875 
L 18.40625 54.6875 
L 18.40625 0 
L 9.421875 0 
z
M 9.421875 75.984375 
L 18.40625 75.984375 
L 18.40625 64.59375 
L 9.421875 64.59375 
z
" id="DejaVuSans-105"/>
      <path d="M 9.421875 75.984375 
L 18.40625 75.984375 
L 18.40625 0 
L 9.421875 0 
z
" id="DejaVuSans-108"/>
      <path d="M 18.3125 70.21875 
L 18.3125 54.6875 
L 36.8125 54.6875 
L 36.8125 47.703125 
L 18.3125 47.703125 
L 18.3125 18.015625 
Q 18.3125 11.328125 20.140625 9.421875 
Q 21.96875 7.515625 27.59375 7.515625 
L 36.8125 7.515625 
L 36.8125 0 
L 27.59375 0 
Q 17.1875 0 13.234375 3.875 
Q 9.28125 7.765625 9.28125 18.015625 
L 9.28125 47.703125 
L 2.6875 47.703125 
L 2.6875 54.6875 
L 9.28125 54.6875 
L 9.28125 70.21875 
z
" id="DejaVuSans-116"/>
      <path d="M 32.171875 -5.078125 
Q 28.375 -14.84375 24.75 -17.8125 
Q 21.140625 -20.796875 15.09375 -20.796875 
L 7.90625 -20.796875 
L 7.90625 -13.28125 
L 13.1875 -13.28125 
Q 16.890625 -13.28125 18.9375 -11.515625 
Q 21 -9.765625 23.484375 -3.21875 
L 25.09375 0.875 
L 2.984375 54.6875 
L 12.5 54.6875 
L 29.59375 11.921875 
L 46.6875 54.6875 
L 56.203125 54.6875 
z
" id="DejaVuSans-121"/>
     </defs>
     <g transform="translate(14.798438 112.044744)rotate(-90)scale(0.1 -0.1)">
      <use xlink:href="#DejaVuSans-80"/>
      <use x="60.287109" xlink:href="#DejaVuSans-114"/>
      <use x="101.369141" xlink:href="#DejaVuSans-111"/>
      <use x="162.550781" xlink:href="#DejaVuSans-98"/>
      <use x="226.027344" xlink:href="#DejaVuSans-97"/>
      <use x="287.306641" xlink:href="#DejaVuSans-98"/>
      <use x="350.783203" xlink:href="#DejaVuSans-105"/>
      <use x="378.566406" xlink:href="#DejaVuSans-108"/>
      <use x="406.349609" xlink:href="#DejaVuSans-105"/>
      <use x="434.132812" xlink:href="#DejaVuSans-116"/>
      <use x="473.341797" xlink:href="#DejaVuSans-121"/>
     </g>
    </g>
   </g>
   <g id="line2d_6">
    <path clip-path="url(#pb0f9f9fdc4)" d="M 57.061105 100.449052 
L 69.792434 101.148323 
L 94.406337 102.867658 
L 113.927708 104.318635 
L 135.995345 105.793661 
L 151.272939 106.607035 
L 168.248044 107.245996 
L 183.525639 107.63411 
L 195.408213 107.832848 
L 195.408213 107.832848 
" style="fill:none;stroke:#0000ff;stroke-linecap:square;stroke-width:1.5;"/>
   </g>
   <g id="line2d_7">
    <path clip-path="url(#pb0f9f9fdc4)" d="M 57.061105 37.671174 
L 64.699903 38.798777 
L 68.943679 39.500734 
L 78.279987 41.262602 
L 93.557582 44.31768 
L 121.566505 50.096173 
L 133.449079 52.291023 
L 143.634142 53.939357 
L 152.97045 55.206047 
L 159.760492 55.986675 
L 173.340576 57.197558 
L 186.071905 58.0255 
L 195.408213 58.426531 
L 195.408213 58.426531 
" style="fill:none;stroke:#ff0000;stroke-dasharray:15,3;stroke-dashoffset:0;stroke-width:1.5;"/>
   </g>
   <g id="patch_3">
    <path d="M 50.14375 134.836364 
L 50.14375 36 
" style="fill:none;stroke:#000000;stroke-linecap:square;stroke-linejoin:miter;stroke-width:0.8;"/>
   </g>
   <g id="patch_4">
    <path d="M 202.325568 134.836364 
L 202.325568 36 
" style="fill:none;stroke:#000000;stroke-linecap:square;stroke-linejoin:miter;stroke-width:0.8;"/>
   </g>
   <g id="patch_5">
    <path d="M 50.14375 134.836364 
L 202.325568 134.836364 
" style="fill:none;stroke:#000000;stroke-linecap:square;stroke-linejoin:miter;stroke-width:0.8;"/>
   </g>
   <g id="patch_6">
    <path d="M 50.14375 36 
L 202.325568 36 
" style="fill:none;stroke:#000000;stroke-linecap:square;stroke-linejoin:miter;stroke-width:0.8;"/>
   </g>
   <g id="text_7">
    <!-- All education (mean) -->
    <defs>
     <path d="M 34.1875 63.1875 
L 20.796875 26.90625 
L 47.609375 26.90625 
z
M 28.609375 72.90625 
L 39.796875 72.90625 
L 67.578125 0 
L 57.328125 0 
L 50.6875 18.703125 
L 17.828125 18.703125 
L 11.1875 0 
L 0.78125 0 
z
" id="DejaVuSans-65"/>
     <path id="DejaVuSans-32"/>
     <path d="M 56.203125 29.59375 
L 56.203125 25.203125 
L 14.890625 25.203125 
Q 15.484375 15.921875 20.484375 11.0625 
Q 25.484375 6.203125 34.421875 6.203125 
Q 39.59375 6.203125 44.453125 7.46875 
Q 49.3125 8.734375 54.109375 11.28125 
L 54.109375 2.78125 
Q 49.265625 0.734375 44.1875 -0.34375 
Q 39.109375 -1.421875 33.890625 -1.421875 
Q 20.796875 -1.421875 13.15625 6.1875 
Q 5.515625 13.8125 5.515625 26.8125 
Q 5.515625 40.234375 12.765625 48.109375 
Q 20.015625 56 32.328125 56 
Q 43.359375 56 49.78125 48.890625 
Q 56.203125 41.796875 56.203125 29.59375 
z
M 47.21875 32.234375 
Q 47.125 39.59375 43.09375 43.984375 
Q 39.0625 48.390625 32.421875 48.390625 
Q 24.90625 48.390625 20.390625 44.140625 
Q 15.875 39.890625 15.1875 32.171875 
z
" id="DejaVuSans-101"/>
     <path d="M 45.40625 46.390625 
L 45.40625 75.984375 
L 54.390625 75.984375 
L 54.390625 0 
L 45.40625 0 
L 45.40625 8.203125 
Q 42.578125 3.328125 38.25 0.953125 
Q 33.9375 -1.421875 27.875 -1.421875 
Q 17.96875 -1.421875 11.734375 6.484375 
Q 5.515625 14.40625 5.515625 27.296875 
Q 5.515625 40.1875 11.734375 48.09375 
Q 17.96875 56 27.875 56 
Q 33.9375 56 38.25 53.625 
Q 42.578125 51.265625 45.40625 46.390625 
z
M 14.796875 27.296875 
Q 14.796875 17.390625 18.875 11.75 
Q 22.953125 6.109375 30.078125 6.109375 
Q 37.203125 6.109375 41.296875 11.75 
Q 45.40625 17.390625 45.40625 27.296875 
Q 45.40625 37.203125 41.296875 42.84375 
Q 37.203125 48.484375 30.078125 48.484375 
Q 22.953125 48.484375 18.875 42.84375 
Q 14.796875 37.203125 14.796875 27.296875 
z
" id="DejaVuSans-100"/>
     <path d="M 8.5 21.578125 
L 8.5 54.6875 
L 17.484375 54.6875 
L 17.484375 21.921875 
Q 17.484375 14.15625 20.5 10.265625 
Q 23.53125 6.390625 29.59375 6.390625 
Q 36.859375 6.390625 41.078125 11.03125 
Q 45.3125 15.671875 45.3125 23.6875 
L 45.3125 54.6875 
L 54.296875 54.6875 
L 54.296875 0 
L 45.3125 0 
L 45.3125 8.40625 
Q 42.046875 3.421875 37.71875 1 
Q 33.40625 -1.421875 27.6875 -1.421875 
Q 18.265625 -1.421875 13.375 4.4375 
Q 8.5 10.296875 8.5 21.578125 
z
M 31.109375 56 
z
" id="DejaVuSans-117"/>
     <path d="M 48.78125 52.59375 
L 48.78125 44.1875 
Q 44.96875 46.296875 41.140625 47.34375 
Q 37.3125 48.390625 33.40625 48.390625 
Q 24.65625 48.390625 19.8125 42.84375 
Q 14.984375 37.3125 14.984375 27.296875 
Q 14.984375 17.28125 19.8125 11.734375 
Q 24.65625 6.203125 33.40625 6.203125 
Q 37.3125 6.203125 41.140625 7.25 
Q 44.96875 8.296875 48.78125 10.40625 
L 48.78125 2.09375 
Q 45.015625 0.34375 40.984375 -0.53125 
Q 36.96875 -1.421875 32.421875 -1.421875 
Q 20.0625 -1.421875 12.78125 6.34375 
Q 5.515625 14.109375 5.515625 27.296875 
Q 5.515625 40.671875 12.859375 48.328125 
Q 20.21875 56 33.015625 56 
Q 37.15625 56 41.109375 55.140625 
Q 45.0625 54.296875 48.78125 52.59375 
z
" id="DejaVuSans-99"/>
     <path d="M 54.890625 33.015625 
L 54.890625 0 
L 45.90625 0 
L 45.90625 32.71875 
Q 45.90625 40.484375 42.875 44.328125 
Q 39.84375 48.1875 33.796875 48.1875 
Q 26.515625 48.1875 22.3125 43.546875 
Q 18.109375 38.921875 18.109375 30.90625 
L 18.109375 0 
L 9.078125 0 
L 9.078125 54.6875 
L 18.109375 54.6875 
L 18.109375 46.1875 
Q 21.34375 51.125 25.703125 53.5625 
Q 30.078125 56 35.796875 56 
Q 45.21875 56 50.046875 50.171875 
Q 54.890625 44.34375 54.890625 33.015625 
z
" id="DejaVuSans-110"/>
     <path d="M 31 75.875 
Q 24.46875 64.65625 21.28125 53.65625 
Q 18.109375 42.671875 18.109375 31.390625 
Q 18.109375 20.125 21.3125 9.0625 
Q 24.515625 -2 31 -13.1875 
L 23.1875 -13.1875 
Q 15.875 -1.703125 12.234375 9.375 
Q 8.59375 20.453125 8.59375 31.390625 
Q 8.59375 42.28125 12.203125 53.3125 
Q 15.828125 64.359375 23.1875 75.875 
z
" id="DejaVuSans-40"/>
     <path d="M 52 44.1875 
Q 55.375 50.25 60.0625 53.125 
Q 64.75 56 71.09375 56 
Q 79.640625 56 84.28125 50.015625 
Q 88.921875 44.046875 88.921875 33.015625 
L 88.921875 0 
L 79.890625 0 
L 79.890625 32.71875 
Q 79.890625 40.578125 77.09375 44.375 
Q 74.3125 48.1875 68.609375 48.1875 
Q 61.625 48.1875 57.5625 43.546875 
Q 53.515625 38.921875 53.515625 30.90625 
L 53.515625 0 
L 44.484375 0 
L 44.484375 32.71875 
Q 44.484375 40.625 41.703125 44.40625 
Q 38.921875 48.1875 33.109375 48.1875 
Q 26.21875 48.1875 22.15625 43.53125 
Q 18.109375 38.875 18.109375 30.90625 
L 18.109375 0 
L 9.078125 0 
L 9.078125 54.6875 
L 18.109375 54.6875 
L 18.109375 46.1875 
Q 21.1875 51.21875 25.484375 53.609375 
Q 29.78125 56 35.6875 56 
Q 41.65625 56 45.828125 52.96875 
Q 50 49.953125 52 44.1875 
z
" id="DejaVuSans-109"/>
     <path d="M 8.015625 75.875 
L 15.828125 75.875 
Q 23.140625 64.359375 26.78125 53.3125 
Q 30.421875 42.28125 30.421875 31.390625 
Q 30.421875 20.453125 26.78125 9.375 
Q 23.140625 -1.703125 15.828125 -13.1875 
L 8.015625 -13.1875 
Q 14.5 -2 17.703125 9.0625 
Q 20.90625 20.125 20.90625 31.390625 
Q 20.90625 42.671875 17.703125 53.65625 
Q 14.5 64.65625 8.015625 75.875 
z
" id="DejaVuSans-41"/>
    </defs>
    <g transform="translate(63.513097 30)scale(0.12 -0.12)">
     <use xlink:href="#DejaVuSans-65"/>
     <use x="68.408203" xlink:href="#DejaVuSans-108"/>
     <use x="96.191406" xlink:href="#DejaVuSans-108"/>
     <use x="123.974609" xlink:href="#DejaVuSans-32"/>
     <use x="155.761719" xlink:href="#DejaVuSans-101"/>
     <use x="217.285156" xlink:href="#DejaVuSans-100"/>
     <use x="280.761719" xlink:href="#DejaVuSans-117"/>
     <use x="344.140625" xlink:href="#DejaVuSans-99"/>
     <use x="399.121094" xlink:href="#DejaVuSans-97"/>
     <use x="460.400391" xlink:href="#DejaVuSans-116"/>
     <use x="499.609375" xlink:href="#DejaVuSans-105"/>
     <use x="527.392578" xlink:href="#DejaVuSans-111"/>
     <use x="588.574219" xlink:href="#DejaVuSans-110"/>
     <use x="651.953125" xlink:href="#DejaVuSans-32"/>
     <use x="683.740234" xlink:href="#DejaVuSans-40"/>
     <use x="722.753906" xlink:href="#DejaVuSans-109"/>
     <use x="820.166016" xlink:href="#DejaVuSans-101"/>
     <use x="881.689453" xlink:href="#DejaVuSans-97"/>
     <use x="942.96875" xlink:href="#DejaVuSans-110"/>
     <use x="1006.347656" xlink:href="#DejaVuSans-41"/>
    </g>
   </g>
   <g id="legend_1">
    <g id="patch_7">
     <path d="M 98.875568 73.35625 
L 195.325568 73.35625 
Q 197.325568 73.35625 197.325568 71.35625 
L 197.325568 43 
Q 197.325568 41 195.325568 41 
L 98.875568 41 
Q 96.875568 41 96.875568 43 
L 96.875568 71.35625 
Q 96.875568 73.35625 98.875568 73.35625 
z
" style="fill:#ffffff;opacity:0.8;stroke:#cccccc;stroke-linejoin:miter;"/>
    </g>
    <g id="line2d_8">
     <path d="M 100.875568 49.098437 
L 120.875568 49.098437 
" style="fill:none;stroke:#0000ff;stroke-linecap:square;stroke-width:1.5;"/>
    </g>
    <g id="line2d_9"/>
    <g id="text_8">
     <!-- Unemployed -->
     <defs>
      <path d="M 8.6875 72.90625 
L 18.609375 72.90625 
L 18.609375 28.609375 
Q 18.609375 16.890625 22.84375 11.734375 
Q 27.09375 6.59375 36.625 6.59375 
Q 46.09375 6.59375 50.34375 11.734375 
Q 54.59375 16.890625 54.59375 28.609375 
L 54.59375 72.90625 
L 64.5 72.90625 
L 64.5 27.390625 
Q 64.5 13.140625 57.4375 5.859375 
Q 50.390625 -1.421875 36.625 -1.421875 
Q 22.796875 -1.421875 15.734375 5.859375 
Q 8.6875 13.140625 8.6875 27.390625 
z
" id="DejaVuSans-85"/>
      <path d="M 18.109375 8.203125 
L 18.109375 -20.796875 
L 9.078125 -20.796875 
L 9.078125 54.6875 
L 18.109375 54.6875 
L 18.109375 46.390625 
Q 20.953125 51.265625 25.265625 53.625 
Q 29.59375 56 35.59375 56 
Q 45.5625 56 51.78125 48.09375 
Q 58.015625 40.1875 58.015625 27.296875 
Q 58.015625 14.40625 51.78125 6.484375 
Q 45.5625 -1.421875 35.59375 -1.421875 
Q 29.59375 -1.421875 25.265625 0.953125 
Q 20.953125 3.328125 18.109375 8.203125 
z
M 48.6875 27.296875 
Q 48.6875 37.203125 44.609375 42.84375 
Q 40.53125 48.484375 33.40625 48.484375 
Q 26.265625 48.484375 22.1875 42.84375 
Q 18.109375 37.203125 18.109375 27.296875 
Q 18.109375 17.390625 22.1875 11.75 
Q 26.265625 6.109375 33.40625 6.109375 
Q 40.53125 6.109375 44.609375 11.75 
Q 48.6875 17.390625 48.6875 27.296875 
z
" id="DejaVuSans-112"/>
     </defs>
     <g transform="translate(128.875568 52.598437)scale(0.1 -0.1)">
      <use xlink:href="#DejaVuSans-85"/>
      <use x="73.193359" xlink:href="#DejaVuSans-110"/>
      <use x="136.572266" xlink:href="#DejaVuSans-101"/>
      <use x="198.095703" xlink:href="#DejaVuSans-109"/>
      <use x="295.507812" xlink:href="#DejaVuSans-112"/>
      <use x="358.984375" xlink:href="#DejaVuSans-108"/>
      <use x="386.767578" xlink:href="#DejaVuSans-111"/>
      <use x="447.949219" xlink:href="#DejaVuSans-121"/>
      <use x="507.128906" xlink:href="#DejaVuSans-101"/>
      <use x="568.652344" xlink:href="#DejaVuSans-100"/>
     </g>
    </g>
    <g id="line2d_10">
     <path d="M 100.875568 63.776562 
L 120.875568 63.776562 
" style="fill:none;stroke:#ff0000;stroke-dasharray:15,3;stroke-dashoffset:0;stroke-width:1.5;"/>
    </g>
    <g id="line2d_11"/>
    <g id="text_9">
     <!-- Deep unemp -->
     <defs>
      <path d="M 19.671875 64.796875 
L 19.671875 8.109375 
L 31.59375 8.109375 
Q 46.6875 8.109375 53.6875 14.9375 
Q 60.6875 21.78125 60.6875 36.53125 
Q 60.6875 51.171875 53.6875 57.984375 
Q 46.6875 64.796875 31.59375 64.796875 
z
M 9.8125 72.90625 
L 30.078125 72.90625 
Q 51.265625 72.90625 61.171875 64.09375 
Q 71.09375 55.28125 71.09375 36.53125 
Q 71.09375 17.671875 61.125 8.828125 
Q 51.171875 0 30.078125 0 
L 9.8125 0 
z
" id="DejaVuSans-68"/>
     </defs>
     <g transform="translate(128.875568 67.276562)scale(0.1 -0.1)">
      <use xlink:href="#DejaVuSans-68"/>
      <use x="77.001953" xlink:href="#DejaVuSans-101"/>
      <use x="138.525391" xlink:href="#DejaVuSans-101"/>
      <use x="200.048828" xlink:href="#DejaVuSans-112"/>
      <use x="263.525391" xlink:href="#DejaVuSans-32"/>
      <use x="295.3125" xlink:href="#DejaVuSans-117"/>
      <use x="358.691406" xlink:href="#DejaVuSans-110"/>
      <use x="422.070312" xlink:href="#DejaVuSans-101"/>
      <use x="483.59375" xlink:href="#DejaVuSans-109"/>
      <use x="581.005859" xlink:href="#DejaVuSans-112"/>
     </g>
    </g>
   </g>
  </g>
  <g id="axes_2">
   <g id="patch_8">
    <path d="M 232.761932 134.836364 
L 384.94375 134.836364 
L 384.94375 36 
L 232.761932 36 
z
" style="fill:#ffffff;"/>
   </g>
   <g id="matplotlib.axis_3"/>
   <g id="matplotlib.axis_4"/>
   <g id="line2d_12">
    <path clip-path="url(#pf0df94e876)" d="M 239.679287 88.648371 
L 243.074308 88.007362 
L 253.259371 87.221644 
L 254.956882 87.202999 
L 258.351903 87.0865 
L 262.595679 87.039336 
L 263.444434 86.937604 
L 266.839456 86.942751 
L 273.629498 86.966156 
L 277.873274 87.28178 
L 279.570784 87.242299 
L 292.302113 87.865015 
L 293.999624 87.970245 
L 298.2434 88.041783 
L 299.092155 88.211804 
L 300.789666 88.294416 
L 303.335932 88.442202 
L 306.730953 88.687799 
L 311.823484 88.849101 
L 316.067261 89.101974 
L 319.462282 89.191562 
L 322.008547 89.337047 
L 327.101079 89.551549 
L 330.4961 89.665291 
L 332.193611 89.752444 
L 333.891121 89.731535 
L 334.739876 89.820669 
L 336.437387 89.867011 
L 354.261247 90.089173 
L 355.110003 89.964987 
L 356.807513 90.055165 
L 365.295066 89.944578 
L 366.143821 90.029963 
L 368.690087 89.934095 
L 369.538842 90.038481 
L 372.085108 90.024596 
L 378.026395 89.887066 
L 378.026395 89.887066 
" style="fill:none;stroke:#0000ff;stroke-dasharray:1.5,2.475;stroke-dashoffset:0;stroke-width:1.5;"/>
   </g>
   <g id="line2d_13">
    <path clip-path="url(#pf0df94e876)" d="M 0 0 
" style="fill:none;stroke:#ff0000;stroke-dasharray:1.5,2.475;stroke-dashoffset:0;stroke-width:1.5;"/>
   </g>
   <g id="line2d_14">
    <path clip-path="url(#pf0df94e876)" d="M 239.679287 95.900461 
L 241.376798 96.576137 
L 243.074308 97.027923 
L 253.259371 99.377731 
L 258.351903 100.258188 
L 267.688211 101.688999 
L 269.385721 101.815683 
L 276.175763 102.636043 
L 277.873274 102.78447 
L 286.360827 103.725776 
L 289.755848 104.038054 
L 292.302113 104.240687 
L 293.999624 104.436644 
L 301.638421 105.078631 
L 303.335932 105.189302 
L 307.579708 105.409169 
L 309.277219 105.64002 
L 319.462282 106.298716 
L 351.714982 108.092463 
L 361.051289 108.515266 
L 362.7488 108.598148 
L 378.026395 109.190719 
L 378.026395 109.190719 
" style="fill:none;stroke:#0000ff;stroke-dasharray:1.5,2.475;stroke-dashoffset:0;stroke-width:1.5;"/>
   </g>
   <g id="line2d_15">
    <path clip-path="url(#pf0df94e876)" d="M 239.679287 11.869272 
L 241.376798 14.003187 
L 242.225553 14.568709 
L 243.074308 15.430014 
L 244.771819 16.83813 
L 245.620574 17.562711 
L 249.015595 19.808822 
L 249.86435 20.629677 
L 256.654392 24.797733 
L 259.200658 26.044853 
L 260.049413 26.632702 
L 265.9907 29.343406 
L 266.839456 29.844539 
L 267.688211 30.150592 
L 268.536966 30.199011 
L 271.083232 31.141513 
L 273.629498 32.151815 
L 274.478253 32.60328 
L 277.873274 33.610302 
L 278.722029 33.940225 
L 279.570784 34.441395 
L 280.41954 34.749321 
L 281.268295 34.824935 
L 282.965805 35.390634 
L 283.814561 35.915472 
L 285.512071 36.292006 
L 287.209582 36.877304 
L 288.058337 36.923659 
L 288.907092 37.417012 
L 291.453358 37.977703 
L 292.302113 38.209315 
L 293.150869 38.643928 
L 295.697134 39.287368 
L 297.394645 39.699993 
L 298.2434 40.041354 
L 301.638421 40.855704 
L 302.487176 41.179294 
L 304.184687 41.309119 
L 305.882197 41.810603 
L 307.579708 41.899606 
L 308.428463 42.38252 
L 310.125974 42.830394 
L 312.67224 43.26722 
L 313.520995 43.620283 
L 314.36975 43.82868 
L 316.067261 43.951472 
L 316.916016 44.23511 
L 317.764771 44.328473 
L 318.613526 44.582286 
L 322.857303 45.242201 
L 323.706058 45.567554 
L 328.79859 46.477251 
L 329.647345 46.527966 
L 331.344855 46.990498 
L 332.193611 47.0651 
L 333.042366 47.302851 
L 333.891121 47.24933 
L 334.739876 47.52673 
L 335.588632 47.580056 
L 336.437387 47.874631 
L 340.681163 48.7256 
L 341.529918 48.965797 
L 342.378674 48.931243 
L 344.076184 49.159413 
L 344.924939 49.348583 
L 345.773695 49.673963 
L 348.319961 49.901106 
L 349.168716 50.151309 
L 350.017471 50.240802 
L 350.866226 50.217112 
L 352.563737 50.465042 
L 353.412492 50.532287 
L 354.261247 50.787555 
L 356.807513 50.873374 
L 357.656268 51.008663 
L 358.505024 51.308382 
L 361.051289 51.70926 
L 361.900045 51.970249 
L 362.7488 51.971018 
L 364.44631 52.241417 
L 365.295066 52.537552 
L 368.690087 52.852323 
L 369.538842 52.824578 
L 370.387597 52.920799 
L 371.236353 53.219431 
L 375.480129 53.551575 
L 378.026395 53.84247 
L 378.026395 53.84247 
" style="fill:none;stroke:#ff0000;stroke-dasharray:1.5,2.475;stroke-dashoffset:0;stroke-width:1.5;"/>
   </g>
   <g id="line2d_16">
    <path clip-path="url(#pf0df94e876)" d="M 239.679287 92.371896 
L 294.848379 96.690093 
L 298.2434 96.948517 
L 317.764771 98.189538 
L 327.949834 98.771002 
L 330.4961 98.88543 
L 370.387597 100.222658 
L 378.026395 100.383647 
L 378.026395 100.383647 
" style="fill:none;stroke:#0000ff;stroke-linecap:square;stroke-width:1.5;"/>
   </g>
   <g id="line2d_17">
    <path clip-path="url(#pf0df94e876)" d="M 239.679287 0.725383 
L 251.561861 3.656945 
L 252.410616 3.800829 
L 253.259371 4.166498 
L 255.805637 4.805576 
L 256.654392 4.94015 
L 259.200658 5.780264 
L 260.049413 5.900461 
L 261.746924 6.466761 
L 262.595679 6.667534 
L 263.444434 7.006149 
L 265.141945 7.352322 
L 266.839456 7.827036 
L 268.536966 8.223508 
L 273.629498 9.508857 
L 275.327008 9.794446 
L 277.024519 10.242187 
L 277.873274 10.565732 
L 279.570784 10.866391 
L 281.268295 11.342113 
L 283.814561 11.933007 
L 286.360827 12.526457 
L 287.209582 12.647324 
L 288.058337 12.936016 
L 289.755848 13.231996 
L 293.150869 14.006833 
L 296.54589 14.753056 
L 304.184687 16.442534 
L 305.882197 16.901536 
L 308.428463 17.3739 
L 309.277219 17.582972 
L 310.125974 17.654927 
L 315.218505 18.702082 
L 317.764771 19.098619 
L 318.613526 19.2227 
L 319.462282 19.50285 
L 320.311037 19.552128 
L 322.008547 19.882128 
L 324.554813 20.264662 
L 326.252324 20.537314 
L 328.79859 21.171479 
L 331.344855 21.393318 
L 333.042366 21.680137 
L 338.983653 22.406454 
L 344.076184 23.060735 
L 345.773695 23.274768 
L 346.62245 23.299191 
L 348.319961 23.554182 
L 350.017471 23.655854 
L 351.714982 23.883034 
L 355.110003 24.248443 
L 355.958758 24.370292 
L 357.656268 24.393674 
L 358.505024 24.554338 
L 360.202534 24.557588 
L 368.690087 25.462007 
L 370.387597 25.519605 
L 373.782618 25.725875 
L 374.631374 25.839186 
L 375.480129 25.795764 
L 377.177639 26.069061 
L 378.026395 26.028039 
L 378.026395 26.028039 
" style="fill:none;stroke:#ff0000;stroke-dasharray:15,3;stroke-dashoffset:0;stroke-width:1.5;"/>
   </g>
   <g id="patch_9">
    <path d="M 232.761932 134.836364 
L 232.761932 36 
" style="fill:none;stroke:#000000;stroke-linecap:square;stroke-linejoin:miter;stroke-width:0.8;"/>
   </g>
   <g id="patch_10">
    <path d="M 384.94375 134.836364 
L 384.94375 36 
" style="fill:none;stroke:#000000;stroke-linecap:square;stroke-linejoin:miter;stroke-width:0.8;"/>
   </g>
   <g id="patch_11">
    <path d="M 232.761932 134.836364 
L 384.94375 134.836364 
" style="fill:none;stroke:#000000;stroke-linecap:square;stroke-linejoin:miter;stroke-width:0.8;"/>
   </g>
   <g id="patch_12">
    <path d="M 232.761932 36 
L 384.94375 36 
" style="fill:none;stroke:#000000;stroke-linecap:square;stroke-linejoin:miter;stroke-width:0.8;"/>
   </g>
   <g id="text_10">
    <!-- Dropout -->
    <g transform="translate(284.461903 30)scale(0.12 -0.12)">
     <use xlink:href="#DejaVuSans-68"/>
     <use x="77.001953" xlink:href="#DejaVuSans-114"/>
     <use x="118.083984" xlink:href="#DejaVuSans-111"/>
     <use x="179.265625" xlink:href="#DejaVuSans-112"/>
     <use x="242.742188" xlink:href="#DejaVuSans-111"/>
     <use x="303.923828" xlink:href="#DejaVuSans-117"/>
     <use x="367.302734" xlink:href="#DejaVuSans-116"/>
    </g>
   </g>
  </g>
  <g id="axes_3">
   <g id="patch_13">
    <path d="M 50.14375 253.44 
L 202.325568 253.44 
L 202.325568 154.603636 
L 50.14375 154.603636 
z
" style="fill:#ffffff;"/>
   </g>
   <g id="matplotlib.axis_5">
    <g id="xtick_1">
     <g id="line2d_18">
      <defs>
       <path d="M 0 0 
L 0 3.5 
" id="mcf0aa041f6" style="stroke:#000000;stroke-width:0.8;"/>
      </defs>
      <g>
       <use style="stroke:#000000;stroke-width:0.8;" x="77.431232" xlink:href="#mcf0aa041f6" y="253.44"/>
      </g>
     </g>
     <g id="text_11">
      <!-- 30 -->
      <defs>
       <path d="M 40.578125 39.3125 
Q 47.65625 37.796875 51.625 33 
Q 55.609375 28.21875 55.609375 21.1875 
Q 55.609375 10.40625 48.1875 4.484375 
Q 40.765625 -1.421875 27.09375 -1.421875 
Q 22.515625 -1.421875 17.65625 -0.515625 
Q 12.796875 0.390625 7.625 2.203125 
L 7.625 11.71875 
Q 11.71875 9.328125 16.59375 8.109375 
Q 21.484375 6.890625 26.8125 6.890625 
Q 36.078125 6.890625 40.9375 10.546875 
Q 45.796875 14.203125 45.796875 21.1875 
Q 45.796875 27.640625 41.28125 31.265625 
Q 36.765625 34.90625 28.71875 34.90625 
L 20.21875 34.90625 
L 20.21875 43.015625 
L 29.109375 43.015625 
Q 36.375 43.015625 40.234375 45.921875 
Q 44.09375 48.828125 44.09375 54.296875 
Q 44.09375 59.90625 40.109375 62.90625 
Q 36.140625 65.921875 28.71875 65.921875 
Q 24.65625 65.921875 20.015625 65.03125 
Q 15.375 64.15625 9.8125 62.3125 
L 9.8125 71.09375 
Q 15.4375 72.65625 20.34375 73.4375 
Q 25.25 74.21875 29.59375 74.21875 
Q 40.828125 74.21875 47.359375 69.109375 
Q 53.90625 64.015625 53.90625 55.328125 
Q 53.90625 49.265625 50.4375 45.09375 
Q 46.96875 40.921875 40.578125 39.3125 
z
" id="DejaVuSans-51"/>
      </defs>
      <g transform="translate(71.068732 268.038437)scale(0.1 -0.1)">
       <use xlink:href="#DejaVuSans-51"/>
       <use x="63.623047" xlink:href="#DejaVuSans-48"/>
      </g>
     </g>
    </g>
    <g id="xtick_2">
     <g id="line2d_19">
      <g>
       <use style="stroke:#000000;stroke-width:0.8;" x="111.381442" xlink:href="#mcf0aa041f6" y="253.44"/>
      </g>
     </g>
     <g id="text_12">
      <!-- 40 -->
      <defs>
       <path d="M 37.796875 64.3125 
L 12.890625 25.390625 
L 37.796875 25.390625 
z
M 35.203125 72.90625 
L 47.609375 72.90625 
L 47.609375 25.390625 
L 58.015625 25.390625 
L 58.015625 17.1875 
L 47.609375 17.1875 
L 47.609375 0 
L 37.796875 0 
L 37.796875 17.1875 
L 4.890625 17.1875 
L 4.890625 26.703125 
z
" id="DejaVuSans-52"/>
      </defs>
      <g transform="translate(105.018942 268.038437)scale(0.1 -0.1)">
       <use xlink:href="#DejaVuSans-52"/>
       <use x="63.623047" xlink:href="#DejaVuSans-48"/>
      </g>
     </g>
    </g>
    <g id="xtick_3">
     <g id="line2d_20">
      <g>
       <use style="stroke:#000000;stroke-width:0.8;" x="145.331652" xlink:href="#mcf0aa041f6" y="253.44"/>
      </g>
     </g>
     <g id="text_13">
      <!-- 50 -->
      <g transform="translate(138.969152 268.038437)scale(0.1 -0.1)">
       <use xlink:href="#DejaVuSans-53"/>
       <use x="63.623047" xlink:href="#DejaVuSans-48"/>
      </g>
     </g>
    </g>
    <g id="xtick_4">
     <g id="line2d_21">
      <g>
       <use style="stroke:#000000;stroke-width:0.8;" x="179.281863" xlink:href="#mcf0aa041f6" y="253.44"/>
      </g>
     </g>
     <g id="text_14">
      <!-- 60 -->
      <defs>
       <path d="M 33.015625 40.375 
Q 26.375 40.375 22.484375 35.828125 
Q 18.609375 31.296875 18.609375 23.390625 
Q 18.609375 15.53125 22.484375 10.953125 
Q 26.375 6.390625 33.015625 6.390625 
Q 39.65625 6.390625 43.53125 10.953125 
Q 47.40625 15.53125 47.40625 23.390625 
Q 47.40625 31.296875 43.53125 35.828125 
Q 39.65625 40.375 33.015625 40.375 
z
M 52.59375 71.296875 
L 52.59375 62.3125 
Q 48.875 64.0625 45.09375 64.984375 
Q 41.3125 65.921875 37.59375 65.921875 
Q 27.828125 65.921875 22.671875 59.328125 
Q 17.53125 52.734375 16.796875 39.40625 
Q 19.671875 43.65625 24.015625 45.921875 
Q 28.375 48.1875 33.59375 48.1875 
Q 44.578125 48.1875 50.953125 41.515625 
Q 57.328125 34.859375 57.328125 23.390625 
Q 57.328125 12.15625 50.6875 5.359375 
Q 44.046875 -1.421875 33.015625 -1.421875 
Q 20.359375 -1.421875 13.671875 8.265625 
Q 6.984375 17.96875 6.984375 36.375 
Q 6.984375 53.65625 15.1875 63.9375 
Q 23.390625 74.21875 37.203125 74.21875 
Q 40.921875 74.21875 44.703125 73.484375 
Q 48.484375 72.75 52.59375 71.296875 
z
" id="DejaVuSans-54"/>
      </defs>
      <g transform="translate(172.919363 268.038437)scale(0.1 -0.1)">
       <use xlink:href="#DejaVuSans-54"/>
       <use x="63.623047" xlink:href="#DejaVuSans-48"/>
      </g>
     </g>
    </g>
    <g id="text_15">
     <!-- Age -->
     <defs>
      <path d="M 45.40625 27.984375 
Q 45.40625 37.75 41.375 43.109375 
Q 37.359375 48.484375 30.078125 48.484375 
Q 22.859375 48.484375 18.828125 43.109375 
Q 14.796875 37.75 14.796875 27.984375 
Q 14.796875 18.265625 18.828125 12.890625 
Q 22.859375 7.515625 30.078125 7.515625 
Q 37.359375 7.515625 41.375 12.890625 
Q 45.40625 18.265625 45.40625 27.984375 
z
M 54.390625 6.78125 
Q 54.390625 -7.171875 48.1875 -13.984375 
Q 42 -20.796875 29.203125 -20.796875 
Q 24.46875 -20.796875 20.265625 -20.09375 
Q 16.0625 -19.390625 12.109375 -17.921875 
L 12.109375 -9.1875 
Q 16.0625 -11.328125 19.921875 -12.34375 
Q 23.78125 -13.375 27.78125 -13.375 
Q 36.625 -13.375 41.015625 -8.765625 
Q 45.40625 -4.15625 45.40625 5.171875 
L 45.40625 9.625 
Q 42.625 4.78125 38.28125 2.390625 
Q 33.9375 0 27.875 0 
Q 17.828125 0 11.671875 7.65625 
Q 5.515625 15.328125 5.515625 27.984375 
Q 5.515625 40.671875 11.671875 48.328125 
Q 17.828125 56 27.875 56 
Q 33.9375 56 38.28125 53.609375 
Q 42.625 51.21875 45.40625 46.390625 
L 45.40625 54.6875 
L 54.390625 54.6875 
z
" id="DejaVuSans-103"/>
     </defs>
     <g transform="translate(116.563565 281.716562)scale(0.1 -0.1)">
      <use xlink:href="#DejaVuSans-65"/>
      <use x="68.408203" xlink:href="#DejaVuSans-103"/>
      <use x="131.884766" xlink:href="#DejaVuSans-101"/>
     </g>
    </g>
   </g>
   <g id="matplotlib.axis_6">
    <g id="ytick_6">
     <g id="line2d_22">
      <g>
       <use style="stroke:#000000;stroke-width:0.8;" x="50.14375" xlink:href="#m42d90c9ed7" y="253.44"/>
      </g>
     </g>
     <g id="text_16">
      <!-- 0.00 -->
      <g transform="translate(20.878125 257.239219)scale(0.1 -0.1)">
       <use xlink:href="#DejaVuSans-48"/>
       <use x="63.623047" xlink:href="#DejaVuSans-46"/>
       <use x="95.410156" xlink:href="#DejaVuSans-48"/>
       <use x="159.033203" xlink:href="#DejaVuSans-48"/>
      </g>
     </g>
    </g>
    <g id="ytick_7">
     <g id="line2d_23">
      <g>
       <use style="stroke:#000000;stroke-width:0.8;" x="50.14375" xlink:href="#m42d90c9ed7" y="228.730909"/>
      </g>
     </g>
     <g id="text_17">
      <!-- 0.05 -->
      <g transform="translate(20.878125 232.530128)scale(0.1 -0.1)">
       <use xlink:href="#DejaVuSans-48"/>
       <use x="63.623047" xlink:href="#DejaVuSans-46"/>
       <use x="95.410156" xlink:href="#DejaVuSans-48"/>
       <use x="159.033203" xlink:href="#DejaVuSans-53"/>
      </g>
     </g>
    </g>
    <g id="ytick_8">
     <g id="line2d_24">
      <g>
       <use style="stroke:#000000;stroke-width:0.8;" x="50.14375" xlink:href="#m42d90c9ed7" y="204.021818"/>
      </g>
     </g>
     <g id="text_18">
      <!-- 0.10 -->
      <g transform="translate(20.878125 207.821037)scale(0.1 -0.1)">
       <use xlink:href="#DejaVuSans-48"/>
       <use x="63.623047" xlink:href="#DejaVuSans-46"/>
       <use x="95.410156" xlink:href="#DejaVuSans-49"/>
       <use x="159.033203" xlink:href="#DejaVuSans-48"/>
      </g>
     </g>
    </g>
    <g id="ytick_9">
     <g id="line2d_25">
      <g>
       <use style="stroke:#000000;stroke-width:0.8;" x="50.14375" xlink:href="#m42d90c9ed7" y="179.312727"/>
      </g>
     </g>
     <g id="text_19">
      <!-- 0.15 -->
      <g transform="translate(20.878125 183.111946)scale(0.1 -0.1)">
       <use xlink:href="#DejaVuSans-48"/>
       <use x="63.623047" xlink:href="#DejaVuSans-46"/>
       <use x="95.410156" xlink:href="#DejaVuSans-49"/>
       <use x="159.033203" xlink:href="#DejaVuSans-53"/>
      </g>
     </g>
    </g>
    <g id="ytick_10">
     <g id="line2d_26">
      <g>
       <use style="stroke:#000000;stroke-width:0.8;" x="50.14375" xlink:href="#m42d90c9ed7" y="154.603636"/>
      </g>
     </g>
     <g id="text_20">
      <!-- 0.20 -->
      <g transform="translate(20.878125 158.402855)scale(0.1 -0.1)">
       <use xlink:href="#DejaVuSans-48"/>
       <use x="63.623047" xlink:href="#DejaVuSans-46"/>
       <use x="95.410156" xlink:href="#DejaVuSans-50"/>
       <use x="159.033203" xlink:href="#DejaVuSans-48"/>
      </g>
     </g>
    </g>
    <g id="text_21">
     <!-- Probability -->
     <g transform="translate(14.798438 230.648381)rotate(-90)scale(0.1 -0.1)">
      <use xlink:href="#DejaVuSans-80"/>
      <use x="60.287109" xlink:href="#DejaVuSans-114"/>
      <use x="101.369141" xlink:href="#DejaVuSans-111"/>
      <use x="162.550781" xlink:href="#DejaVuSans-98"/>
      <use x="226.027344" xlink:href="#DejaVuSans-97"/>
      <use x="287.306641" xlink:href="#DejaVuSans-98"/>
      <use x="350.783203" xlink:href="#DejaVuSans-105"/>
      <use x="378.566406" xlink:href="#DejaVuSans-108"/>
      <use x="406.349609" xlink:href="#DejaVuSans-105"/>
      <use x="434.132812" xlink:href="#DejaVuSans-116"/>
      <use x="473.341797" xlink:href="#DejaVuSans-121"/>
     </g>
    </g>
   </g>
   <g id="line2d_27">
    <path clip-path="url(#p50304de93c)" d="M 57.061105 212.645401 
L 60.456126 211.924812 
L 65.548658 211.294715 
L 75.733721 210.742089 
L 90.162561 210.777722 
L 101.196379 211.241449 
L 113.078953 212.032541 
L 117.322729 212.255626 
L 137.692855 213.634251 
L 147.877918 214.138049 
L 156.365471 214.405732 
L 176.735597 214.722831 
L 178.433108 214.697067 
L 180.130618 214.709814 
L 184.374394 214.714798 
L 190.315681 214.703499 
L 195.408213 214.614992 
L 195.408213 214.614992 
" style="fill:none;stroke:#0000ff;stroke-dasharray:1.5,2.475;stroke-dashoffset:0;stroke-width:1.5;"/>
   </g>
   <g id="line2d_28">
    <path clip-path="url(#p50304de93c)" d="M 57.061105 136.863269 
L 58.758616 135.765266 
L 61.304882 134.459299 
L 67.246168 132.575987 
L 70.64119 131.851793 
L 71.489945 131.850469 
L 72.3387 131.695716 
L 73.187455 131.680035 
L 74.036211 131.495999 
L 76.582476 131.411917 
L 79.128742 131.206529 
L 87.616295 131.298405 
L 102.045134 133.030397 
L 113.078953 135.111928 
L 115.625218 135.37057 
L 117.322729 135.749427 
L 120.71775 136.544759 
L 122.41526 136.915521 
L 124.112771 137.175753 
L 135.146589 139.277033 
L 138.54161 139.783512 
L 141.087876 140.128242 
L 146.180408 140.873937 
L 153.819205 141.742739 
L 165.701779 142.363797 
L 166.550534 142.330038 
L 169.0968 142.503616 
L 171.643066 142.645962 
L 172.491821 142.562399 
L 174.189331 142.659875 
L 175.038087 142.643825 
L 176.735597 142.799838 
L 177.584352 142.678909 
L 180.130618 142.762639 
L 181.828129 142.682002 
L 184.374394 142.776882 
L 187.769415 142.807994 
L 192.013192 142.625219 
L 192.861947 142.789696 
L 194.559458 142.729672 
L 195.408213 142.491673 
L 195.408213 142.491673 
" style="fill:none;stroke:#ff0000;stroke-dasharray:1.5,2.475;stroke-dashoffset:0;stroke-width:1.5;"/>
   </g>
   <g id="line2d_29">
    <path clip-path="url(#p50304de93c)" d="M 57.061105 219.559723 
L 59.607371 220.32892 
L 63.002392 221.160468 
L 69.792434 222.542922 
L 78.279987 223.885749 
L 84.221274 224.745451 
L 88.46505 225.244332 
L 91.860071 225.624388 
L 102.045134 226.754668 
L 130.054058 229.129411 
L 166.550534 231.216832 
L 195.408213 232.195522 
L 195.408213 232.195522 
" style="fill:none;stroke:#0000ff;stroke-dasharray:1.5,2.475;stroke-dashoffset:0;stroke-width:1.5;"/>
   </g>
   <g id="line2d_30">
    <path clip-path="url(#p50304de93c)" d="M 57.061105 156.62199 
L 58.758616 158.20201 
L 63.002392 161.196359 
L 67.246168 163.776699 
L 74.884966 167.584149 
L 81.675008 170.42346 
L 87.616295 172.606698 
L 95.255092 174.96976 
L 96.952603 175.612152 
L 102.045134 177.182631 
L 105.440155 178.098869 
L 107.986421 178.806122 
L 114.776463 180.46812 
L 116.473974 180.908596 
L 119.020239 181.534659 
L 122.41526 182.269192 
L 124.112771 182.672231 
L 125.810281 183.063458 
L 133.449079 184.613992 
L 141.936631 186.099645 
L 159.760492 189.011899 
L 161.458002 189.188661 
L 175.886842 191.036138 
L 187.769415 192.19348 
L 195.408213 192.730694 
L 195.408213 192.730694 
" style="fill:none;stroke:#ff0000;stroke-dasharray:1.5,2.475;stroke-dashoffset:0;stroke-width:1.5;"/>
   </g>
   <g id="line2d_31">
    <path clip-path="url(#p50304de93c)" d="M 57.061105 216.218469 
L 69.792434 217.002862 
L 103.742645 219.794822 
L 113.078953 220.530218 
L 119.868995 221.075352 
L 135.146589 222.154023 
L 160.609247 223.529548 
L 180.130618 224.10336 
L 195.408213 224.376248 
L 195.408213 224.376248 
" style="fill:none;stroke:#0000ff;stroke-linecap:square;stroke-width:1.5;"/>
   </g>
   <g id="line2d_32">
    <path clip-path="url(#p50304de93c)" d="M 57.061105 147.073852 
L 63.851147 148.194819 
L 66.397413 148.687528 
L 71.489945 149.702806 
L 76.582476 150.842131 
L 78.279987 151.198179 
L 82.523763 152.231999 
L 85.070029 152.813289 
L 91.860071 154.418095 
L 101.196379 156.678787 
L 102.893889 157.093724 
L 116.473974 160.189012 
L 134.297834 163.898012 
L 138.54161 164.688976 
L 147.877918 166.283951 
L 164.004268 168.292161 
L 168.248044 168.71528 
L 171.643066 168.984592 
L 185.22315 169.954267 
L 187.769415 170.062041 
L 195.408213 170.385937 
L 195.408213 170.385937 
" style="fill:none;stroke:#ff0000;stroke-dasharray:15,3;stroke-dashoffset:0;stroke-width:1.5;"/>
   </g>
   <g id="patch_14">
    <path d="M 50.14375 253.44 
L 50.14375 154.603636 
" style="fill:none;stroke:#000000;stroke-linecap:square;stroke-linejoin:miter;stroke-width:0.8;"/>
   </g>
   <g id="patch_15">
    <path d="M 202.325568 253.44 
L 202.325568 154.603636 
" style="fill:none;stroke:#000000;stroke-linecap:square;stroke-linejoin:miter;stroke-width:0.8;"/>
   </g>
   <g id="patch_16">
    <path d="M 50.14375 253.44 
L 202.325568 253.44 
" style="fill:none;stroke:#000000;stroke-linecap:square;stroke-linejoin:miter;stroke-width:0.8;"/>
   </g>
   <g id="patch_17">
    <path d="M 50.14375 154.603636 
L 202.325568 154.603636 
" style="fill:none;stroke:#000000;stroke-linecap:square;stroke-linejoin:miter;stroke-width:0.8;"/>
   </g>
   <g id="text_22">
    <!-- High school -->
    <defs>
     <path d="M 9.8125 72.90625 
L 19.671875 72.90625 
L 19.671875 43.015625 
L 55.515625 43.015625 
L 55.515625 72.90625 
L 65.375 72.90625 
L 65.375 0 
L 55.515625 0 
L 55.515625 34.71875 
L 19.671875 34.71875 
L 19.671875 0 
L 9.8125 0 
z
" id="DejaVuSans-72"/>
     <path d="M 54.890625 33.015625 
L 54.890625 0 
L 45.90625 0 
L 45.90625 32.71875 
Q 45.90625 40.484375 42.875 44.328125 
Q 39.84375 48.1875 33.796875 48.1875 
Q 26.515625 48.1875 22.3125 43.546875 
Q 18.109375 38.921875 18.109375 30.90625 
L 18.109375 0 
L 9.078125 0 
L 9.078125 75.984375 
L 18.109375 75.984375 
L 18.109375 46.1875 
Q 21.34375 51.125 25.703125 53.5625 
Q 30.078125 56 35.796875 56 
Q 45.21875 56 50.046875 50.171875 
Q 54.890625 44.34375 54.890625 33.015625 
z
" id="DejaVuSans-104"/>
     <path d="M 44.28125 53.078125 
L 44.28125 44.578125 
Q 40.484375 46.53125 36.375 47.5 
Q 32.28125 48.484375 27.875 48.484375 
Q 21.1875 48.484375 17.84375 46.4375 
Q 14.5 44.390625 14.5 40.28125 
Q 14.5 37.15625 16.890625 35.375 
Q 19.28125 33.59375 26.515625 31.984375 
L 29.59375 31.296875 
Q 39.15625 29.25 43.1875 25.515625 
Q 47.21875 21.78125 47.21875 15.09375 
Q 47.21875 7.46875 41.1875 3.015625 
Q 35.15625 -1.421875 24.609375 -1.421875 
Q 20.21875 -1.421875 15.453125 -0.5625 
Q 10.6875 0.296875 5.421875 2 
L 5.421875 11.28125 
Q 10.40625 8.6875 15.234375 7.390625 
Q 20.0625 6.109375 24.8125 6.109375 
Q 31.15625 6.109375 34.5625 8.28125 
Q 37.984375 10.453125 37.984375 14.40625 
Q 37.984375 18.0625 35.515625 20.015625 
Q 33.0625 21.96875 24.703125 23.78125 
L 21.578125 24.515625 
Q 13.234375 26.265625 9.515625 29.90625 
Q 5.8125 33.546875 5.8125 39.890625 
Q 5.8125 47.609375 11.28125 51.796875 
Q 16.75 56 26.8125 56 
Q 31.78125 56 36.171875 55.265625 
Q 40.578125 54.546875 44.28125 53.078125 
z
" id="DejaVuSans-115"/>
    </defs>
    <g transform="translate(91.300597 148.603636)scale(0.12 -0.12)">
     <use xlink:href="#DejaVuSans-72"/>
     <use x="75.195312" xlink:href="#DejaVuSans-105"/>
     <use x="102.978516" xlink:href="#DejaVuSans-103"/>
     <use x="166.455078" xlink:href="#DejaVuSans-104"/>
     <use x="229.833984" xlink:href="#DejaVuSans-32"/>
     <use x="261.621094" xlink:href="#DejaVuSans-115"/>
     <use x="313.720703" xlink:href="#DejaVuSans-99"/>
     <use x="368.701172" xlink:href="#DejaVuSans-104"/>
     <use x="432.080078" xlink:href="#DejaVuSans-111"/>
     <use x="493.261719" xlink:href="#DejaVuSans-111"/>
     <use x="554.443359" xlink:href="#DejaVuSans-108"/>
    </g>
   </g>
  </g>
  <g id="axes_4">
   <g id="patch_18">
    <path d="M 232.761932 253.44 
L 384.94375 253.44 
L 384.94375 154.603636 
L 232.761932 154.603636 
z
" style="fill:#ffffff;"/>
   </g>
   <g id="matplotlib.axis_7">
    <g id="xtick_5">
     <g id="line2d_33">
      <g>
       <use style="stroke:#000000;stroke-width:0.8;" x="260.049413" xlink:href="#mcf0aa041f6" y="253.44"/>
      </g>
     </g>
     <g id="text_23">
      <!-- 30 -->
      <g transform="translate(253.686913 268.038437)scale(0.1 -0.1)">
       <use xlink:href="#DejaVuSans-51"/>
       <use x="63.623047" xlink:href="#DejaVuSans-48"/>
      </g>
     </g>
    </g>
    <g id="xtick_6">
     <g id="line2d_34">
      <g>
       <use style="stroke:#000000;stroke-width:0.8;" x="293.999624" xlink:href="#mcf0aa041f6" y="253.44"/>
      </g>
     </g>
     <g id="text_24">
      <!-- 40 -->
      <g transform="translate(287.637124 268.038437)scale(0.1 -0.1)">
       <use xlink:href="#DejaVuSans-52"/>
       <use x="63.623047" xlink:href="#DejaVuSans-48"/>
      </g>
     </g>
    </g>
    <g id="xtick_7">
     <g id="line2d_35">
      <g>
       <use style="stroke:#000000;stroke-width:0.8;" x="327.949834" xlink:href="#mcf0aa041f6" y="253.44"/>
      </g>
     </g>
     <g id="text_25">
      <!-- 50 -->
      <g transform="translate(321.587334 268.038437)scale(0.1 -0.1)">
       <use xlink:href="#DejaVuSans-53"/>
       <use x="63.623047" xlink:href="#DejaVuSans-48"/>
      </g>
     </g>
    </g>
    <g id="xtick_8">
     <g id="line2d_36">
      <g>
       <use style="stroke:#000000;stroke-width:0.8;" x="361.900045" xlink:href="#mcf0aa041f6" y="253.44"/>
      </g>
     </g>
     <g id="text_26">
      <!-- 60 -->
      <g transform="translate(355.537545 268.038437)scale(0.1 -0.1)">
       <use xlink:href="#DejaVuSans-54"/>
       <use x="63.623047" xlink:href="#DejaVuSans-48"/>
      </g>
     </g>
    </g>
    <g id="text_27">
     <!-- Age -->
     <g transform="translate(299.181747 281.716562)scale(0.1 -0.1)">
      <use xlink:href="#DejaVuSans-65"/>
      <use x="68.408203" xlink:href="#DejaVuSans-103"/>
      <use x="131.884766" xlink:href="#DejaVuSans-101"/>
     </g>
    </g>
   </g>
   <g id="matplotlib.axis_8"/>
   <g id="line2d_37">
    <path clip-path="url(#p3d0891ca8e)" d="M 239.679287 223.386862 
L 243.074308 222.782506 
L 250.713106 222.038894 
L 257.503148 221.739824 
L 274.478253 221.728468 
L 303.335932 223.136081 
L 305.882197 223.295014 
L 313.520995 223.751602 
L 321.159792 224.149031 
L 324.554813 224.295955 
L 332.193611 224.657415 
L 354.261247 225.196684 
L 355.958758 225.188089 
L 359.353779 225.291921 
L 361.051289 225.277459 
L 366.143821 225.349196 
L 374.631374 225.396994 
L 376.328884 225.426071 
L 378.026395 225.378771 
L 378.026395 225.378771 
" style="fill:none;stroke:#0000ff;stroke-dasharray:1.5,2.475;stroke-dashoffset:0;stroke-width:1.5;"/>
   </g>
   <g id="line2d_38">
    <path clip-path="url(#p3d0891ca8e)" d="M 239.679287 175.731311 
L 242.225553 174.483814 
L 243.923063 173.924177 
L 248.16684 172.787817 
L 251.561861 172.116535 
L 252.410616 171.864177 
L 257.503148 171.47255 
L 259.200658 171.397801 
L 260.049413 171.303318 
L 260.898169 171.377906 
L 264.29319 171.194826 
L 265.9907 171.222309 
L 268.536966 171.146857 
L 269.385721 171.256347 
L 270.234477 171.178512 
L 272.780742 171.348486 
L 274.478253 171.443186 
L 278.722029 171.85987 
L 281.268295 172.054465 
L 287.209582 172.726366 
L 290.604603 173.236463 
L 295.697134 173.980093 
L 299.092155 174.380226 
L 301.638421 174.77659 
L 306.730953 175.655379 
L 308.428463 175.883517 
L 318.613526 177.357843 
L 320.311037 177.560933 
L 322.008547 177.744054 
L 324.554813 178.081962 
L 327.949834 178.512614 
L 329.647345 178.697816 
L 333.042366 179.07897 
L 334.739876 179.19811 
L 338.134897 179.513114 
L 340.681163 179.624814 
L 344.924939 179.935398 
L 349.168716 180.082972 
L 352.563737 180.314739 
L 372.933863 180.98362 
L 374.631374 180.928929 
L 375.480129 181.07289 
L 378.026395 180.881809 
L 378.026395 180.881809 
" style="fill:none;stroke:#ff0000;stroke-dasharray:1.5,2.475;stroke-dashoffset:0;stroke-width:1.5;"/>
   </g>
   <g id="line2d_39">
    <path clip-path="url(#p3d0891ca8e)" d="M 239.679287 229.086239 
L 242.225553 229.703166 
L 244.771819 230.205635 
L 249.86435 231.079248 
L 266.839456 233.139206 
L 294.848379 235.334698 
L 310.974729 236.353878 
L 323.706058 237.003546 
L 344.076184 237.934915 
L 350.866226 238.215317 
L 378.026395 239.0245 
L 378.026395 239.0245 
" style="fill:none;stroke:#0000ff;stroke-dasharray:1.5,2.475;stroke-dashoffset:0;stroke-width:1.5;"/>
   </g>
   <g id="line2d_40">
    <path clip-path="url(#p3d0891ca8e)" d="M 239.679287 190.468244 
L 241.376798 191.607752 
L 245.620574 193.779657 
L 248.16684 194.900189 
L 254.108127 197.131943 
L 258.351903 198.530465 
L 267.688211 201.128589 
L 268.536966 201.218675 
L 273.629498 202.463979 
L 277.024519 203.113277 
L 291.453358 206.070669 
L 292.302113 206.175596 
L 293.999624 206.532759 
L 296.54589 206.913101 
L 299.092155 207.370244 
L 302.487176 207.927252 
L 308.428463 208.884027 
L 312.67224 209.492543 
L 316.916016 210.073909 
L 327.101079 211.380519 
L 328.79859 211.613493 
L 333.042366 212.161898 
L 335.588632 212.420164 
L 344.076184 213.348351 
L 346.62245 213.615704 
L 361.900045 215.046543 
L 363.597555 215.167124 
L 365.295066 215.330106 
L 369.538842 215.661384 
L 378.026395 216.165702 
L 378.026395 216.165702 
" style="fill:none;stroke:#ff0000;stroke-dasharray:1.5,2.475;stroke-dashoffset:0;stroke-width:1.5;"/>
   </g>
   <g id="line2d_41">
    <path clip-path="url(#p3d0891ca8e)" d="M 239.679287 226.376527 
L 253.259371 227.042559 
L 316.067261 230.956254 
L 326.252324 231.492938 
L 339.832408 232.092582 
L 350.866226 232.486595 
L 359.353779 232.732418 
L 378.026395 233.168535 
L 378.026395 233.168535 
" style="fill:none;stroke:#0000ff;stroke-linecap:square;stroke-width:1.5;"/>
   </g>
   <g id="line2d_42">
    <path clip-path="url(#p3d0891ca8e)" d="M 239.679287 183.461716 
L 247.318085 184.404121 
L 254.956882 185.446293 
L 264.29319 186.941023 
L 272.780742 188.342697 
L 277.024519 189.058613 
L 291.453358 191.46866 
L 295.697134 192.142907 
L 299.092155 192.715841 
L 321.159792 195.989044 
L 338.134897 198.077728 
L 354.261247 199.524094 
L 374.631374 200.87249 
L 378.026395 201.023878 
L 378.026395 201.023878 
" style="fill:none;stroke:#ff0000;stroke-dasharray:15,3;stroke-dashoffset:0;stroke-width:1.5;"/>
   </g>
   <g id="patch_19">
    <path d="M 232.761932 253.44 
L 232.761932 154.603636 
" style="fill:none;stroke:#000000;stroke-linecap:square;stroke-linejoin:miter;stroke-width:0.8;"/>
   </g>
   <g id="patch_20">
    <path d="M 384.94375 253.44 
L 384.94375 154.603636 
" style="fill:none;stroke:#000000;stroke-linecap:square;stroke-linejoin:miter;stroke-width:0.8;"/>
   </g>
   <g id="patch_21">
    <path d="M 232.761932 253.44 
L 384.94375 253.44 
" style="fill:none;stroke:#000000;stroke-linecap:square;stroke-linejoin:miter;stroke-width:0.8;"/>
   </g>
   <g id="patch_22">
    <path d="M 232.761932 154.603636 
L 384.94375 154.603636 
" style="fill:none;stroke:#000000;stroke-linecap:square;stroke-linejoin:miter;stroke-width:0.8;"/>
   </g>
   <g id="text_28">
    <!-- College -->
    <defs>
     <path d="M 64.40625 67.28125 
L 64.40625 56.890625 
Q 59.421875 61.53125 53.78125 63.8125 
Q 48.140625 66.109375 41.796875 66.109375 
Q 29.296875 66.109375 22.65625 58.46875 
Q 16.015625 50.828125 16.015625 36.375 
Q 16.015625 21.96875 22.65625 14.328125 
Q 29.296875 6.6875 41.796875 6.6875 
Q 48.140625 6.6875 53.78125 8.984375 
Q 59.421875 11.28125 64.40625 15.921875 
L 64.40625 5.609375 
Q 59.234375 2.09375 53.4375 0.328125 
Q 47.65625 -1.421875 41.21875 -1.421875 
Q 24.65625 -1.421875 15.125 8.703125 
Q 5.609375 18.84375 5.609375 36.375 
Q 5.609375 53.953125 15.125 64.078125 
Q 24.65625 74.21875 41.21875 74.21875 
Q 47.75 74.21875 53.53125 72.484375 
Q 59.328125 70.75 64.40625 67.28125 
z
" id="DejaVuSans-67"/>
    </defs>
    <g transform="translate(286.465341 148.603636)scale(0.12 -0.12)">
     <use xlink:href="#DejaVuSans-67"/>
     <use x="69.824219" xlink:href="#DejaVuSans-111"/>
     <use x="131.005859" xlink:href="#DejaVuSans-108"/>
     <use x="158.789062" xlink:href="#DejaVuSans-108"/>
     <use x="186.572266" xlink:href="#DejaVuSans-101"/>
     <use x="248.095703" xlink:href="#DejaVuSans-103"/>
     <use x="311.572266" xlink:href="#DejaVuSans-101"/>
    </g>
   </g>
  </g>
  <g id="text_29">
   <!-- Unemployment probability after pandemic shock -->
   <defs>
    <path d="M 37.109375 75.984375 
L 37.109375 68.5 
L 28.515625 68.5 
Q 23.6875 68.5 21.796875 66.546875 
Q 19.921875 64.59375 19.921875 59.515625 
L 19.921875 54.6875 
L 34.71875 54.6875 
L 34.71875 47.703125 
L 19.921875 47.703125 
L 19.921875 0 
L 10.890625 0 
L 10.890625 47.703125 
L 2.296875 47.703125 
L 2.296875 54.6875 
L 10.890625 54.6875 
L 10.890625 58.5 
Q 10.890625 67.625 15.140625 71.796875 
Q 19.390625 75.984375 28.609375 75.984375 
z
" id="DejaVuSans-102"/>
    <path d="M 9.078125 75.984375 
L 18.109375 75.984375 
L 18.109375 31.109375 
L 44.921875 54.6875 
L 56.390625 54.6875 
L 27.390625 29.109375 
L 57.625 0 
L 45.90625 0 
L 18.109375 26.703125 
L 18.109375 0 
L 9.078125 0 
z
" id="DejaVuSans-107"/>
   </defs>
   <g transform="translate(64.981563 16.318125)scale(0.12 -0.12)">
    <use xlink:href="#DejaVuSans-85"/>
    <use x="73.193359" xlink:href="#DejaVuSans-110"/>
    <use x="136.572266" xlink:href="#DejaVuSans-101"/>
    <use x="198.095703" xlink:href="#DejaVuSans-109"/>
    <use x="295.507812" xlink:href="#DejaVuSans-112"/>
    <use x="358.984375" xlink:href="#DejaVuSans-108"/>
    <use x="386.767578" xlink:href="#DejaVuSans-111"/>
    <use x="447.949219" xlink:href="#DejaVuSans-121"/>
    <use x="507.128906" xlink:href="#DejaVuSans-109"/>
    <use x="604.541016" xlink:href="#DejaVuSans-101"/>
    <use x="666.064453" xlink:href="#DejaVuSans-110"/>
    <use x="729.443359" xlink:href="#DejaVuSans-116"/>
    <use x="768.652344" xlink:href="#DejaVuSans-32"/>
    <use x="800.439453" xlink:href="#DejaVuSans-112"/>
    <use x="863.916016" xlink:href="#DejaVuSans-114"/>
    <use x="904.998047" xlink:href="#DejaVuSans-111"/>
    <use x="966.179688" xlink:href="#DejaVuSans-98"/>
    <use x="1029.65625" xlink:href="#DejaVuSans-97"/>
    <use x="1090.935547" xlink:href="#DejaVuSans-98"/>
    <use x="1154.412109" xlink:href="#DejaVuSans-105"/>
    <use x="1182.195312" xlink:href="#DejaVuSans-108"/>
    <use x="1209.978516" xlink:href="#DejaVuSans-105"/>
    <use x="1237.761719" xlink:href="#DejaVuSans-116"/>
    <use x="1276.970703" xlink:href="#DejaVuSans-121"/>
    <use x="1336.150391" xlink:href="#DejaVuSans-32"/>
    <use x="1367.9375" xlink:href="#DejaVuSans-97"/>
    <use x="1429.216797" xlink:href="#DejaVuSans-102"/>
    <use x="1464.40625" xlink:href="#DejaVuSans-116"/>
    <use x="1503.615234" xlink:href="#DejaVuSans-101"/>
    <use x="1565.138672" xlink:href="#DejaVuSans-114"/>
    <use x="1606.251953" xlink:href="#DejaVuSans-32"/>
    <use x="1638.039062" xlink:href="#DejaVuSans-112"/>
    <use x="1701.515625" xlink:href="#DejaVuSans-97"/>
    <use x="1762.794922" xlink:href="#DejaVuSans-110"/>
    <use x="1826.173828" xlink:href="#DejaVuSans-100"/>
    <use x="1889.650391" xlink:href="#DejaVuSans-101"/>
    <use x="1951.173828" xlink:href="#DejaVuSans-109"/>
    <use x="2048.585938" xlink:href="#DejaVuSans-105"/>
    <use x="2076.369141" xlink:href="#DejaVuSans-99"/>
    <use x="2131.349609" xlink:href="#DejaVuSans-32"/>
    <use x="2163.136719" xlink:href="#DejaVuSans-115"/>
    <use x="2215.236328" xlink:href="#DejaVuSans-104"/>
    <use x="2278.615234" xlink:href="#DejaVuSans-111"/>
    <use x="2339.796875" xlink:href="#DejaVuSans-99"/>
    <use x="2394.777344" xlink:href="#DejaVuSans-107"/>
   </g>
  </g>
 </g>
 <defs>
  <clipPath id="pb0f9f9fdc4">
   <rect height="98.836364" width="152.181818" x="50.14375" y="36"/>
  </clipPath>
  <clipPath id="pf0df94e876">
   <rect height="98.836364" width="152.181818" x="232.761932" y="36"/>
  </clipPath>
  <clipPath id="p50304de93c">
   <rect height="98.836364" width="152.181818" x="50.14375" y="154.603636"/>
  </clipPath>
  <clipPath id="p3d0891ca8e">
   <rect height="98.836364" width="152.181818" x="232.761932" y="154.603636"/>
  </clipPath>
 </defs>
</svg>
