<?xml version="1.0" encoding="utf-8" standalone="no"?>
<!DOCTYPE svg PUBLIC "-//W3C//DTD SVG 1.1//EN"
  "http://www.w3.org/Graphics/SVG/1.1/DTD/svg11.dtd">
<!-- Created with matplotlib (https://matplotlib.org/) -->
<svg height="290.99625pt" version="1.1" viewBox="0 0 392.14375 290.99625" width="392.14375pt" xmlns="http://www.w3.org/2000/svg" xmlns:xlink="http://www.w3.org/1999/xlink">
 <defs>
  <style type="text/css">
*{stroke-linecap:butt;stroke-linejoin:round;}
  </style>
 </defs>
 <g id="figure_1">
  <g id="patch_1">
   <path d="M 0 290.99625 
L 392.14375 290.99625 
L 392.14375 0 
L 0 0 
z
" style="fill:#ffffff;"/>
  </g>
  <g id="axes_1">
   <g id="patch_2">
    <path d="M 50.14375 134.836364 
L 202.325568 134.836364 
L 202.325568 36 
L 50.14375 36 
z
" style="fill:#ffffff;"/>
   </g>
   <g id="matplotlib.axis_1"/>
   <g id="matplotlib.axis_2">
    <g id="ytick_1">
     <g id="line2d_1">
      <defs>
       <path d="M 0 0 
L -3.5 0 
" id="me8ff6073b8" style="stroke:#000000;stroke-width:0.8;"/>
      </defs>
      <g>
       <use style="stroke:#000000;stroke-width:0.8;" x="50.14375" xlink:href="#me8ff6073b8" y="134.836364"/>
      </g>
     </g>
     <g id="text_1">
      <!-- 0.00 -->
      <defs>
       <path d="M 31.78125 66.40625 
Q 24.171875 66.40625 20.328125 58.90625 
Q 16.5 51.421875 16.5 36.375 
Q 16.5 21.390625 20.328125 13.890625 
Q 24.171875 6.390625 31.78125 6.390625 
Q 39.453125 6.390625 43.28125 13.890625 
Q 47.125 21.390625 47.125 36.375 
Q 47.125 51.421875 43.28125 58.90625 
Q 39.453125 66.40625 31.78125 66.40625 
z
M 31.78125 74.21875 
Q 44.046875 74.21875 50.515625 64.515625 
Q 56.984375 54.828125 56.984375 36.375 
Q 56.984375 17.96875 50.515625 8.265625 
Q 44.046875 -1.421875 31.78125 -1.421875 
Q 19.53125 -1.421875 13.0625 8.265625 
Q 6.59375 17.96875 6.59375 36.375 
Q 6.59375 54.828125 13.0625 64.515625 
Q 19.53125 74.21875 31.78125 74.21875 
z
" id="DejaVuSans-48"/>
       <path d="M 10.6875 12.40625 
L 21 12.40625 
L 21 0 
L 10.6875 0 
z
" id="DejaVuSans-46"/>
      </defs>
      <g transform="translate(20.878125 138.635582)scale(0.1 -0.1)">
       <use xlink:href="#DejaVuSans-48"/>
       <use x="63.623047" xlink:href="#DejaVuSans-46"/>
       <use x="95.410156" xlink:href="#DejaVuSans-48"/>
       <use x="159.033203" xlink:href="#DejaVuSans-48"/>
      </g>
     </g>
    </g>
    <g id="ytick_2">
     <g id="line2d_2">
      <g>
       <use style="stroke:#000000;stroke-width:0.8;" x="50.14375" xlink:href="#me8ff6073b8" y="110.127273"/>
      </g>
     </g>
     <g id="text_2">
      <!-- 0.05 -->
      <defs>
       <path d="M 10.796875 72.90625 
L 49.515625 72.90625 
L 49.515625 64.59375 
L 19.828125 64.59375 
L 19.828125 46.734375 
Q 21.96875 47.46875 24.109375 47.828125 
Q 26.265625 48.1875 28.421875 48.1875 
Q 40.625 48.1875 47.75 41.5 
Q 54.890625 34.8125 54.890625 23.390625 
Q 54.890625 11.625 47.5625 5.09375 
Q 40.234375 -1.421875 26.90625 -1.421875 
Q 22.3125 -1.421875 17.546875 -0.640625 
Q 12.796875 0.140625 7.71875 1.703125 
L 7.71875 11.625 
Q 12.109375 9.234375 16.796875 8.0625 
Q 21.484375 6.890625 26.703125 6.890625 
Q 35.15625 6.890625 40.078125 11.328125 
Q 45.015625 15.765625 45.015625 23.390625 
Q 45.015625 31 40.078125 35.4375 
Q 35.15625 39.890625 26.703125 39.890625 
Q 22.75 39.890625 18.8125 39.015625 
Q 14.890625 38.140625 10.796875 36.28125 
z
" id="DejaVuSans-53"/>
      </defs>
      <g transform="translate(20.878125 113.926491)scale(0.1 -0.1)">
       <use xlink:href="#DejaVuSans-48"/>
       <use x="63.623047" xlink:href="#DejaVuSans-46"/>
       <use x="95.410156" xlink:href="#DejaVuSans-48"/>
       <use x="159.033203" xlink:href="#DejaVuSans-53"/>
      </g>
     </g>
    </g>
    <g id="ytick_3">
     <g id="line2d_3">
      <g>
       <use style="stroke:#000000;stroke-width:0.8;" x="50.14375" xlink:href="#me8ff6073b8" y="85.418182"/>
      </g>
     </g>
     <g id="text_3">
      <!-- 0.10 -->
      <defs>
       <path d="M 12.40625 8.296875 
L 28.515625 8.296875 
L 28.515625 63.921875 
L 10.984375 60.40625 
L 10.984375 69.390625 
L 28.421875 72.90625 
L 38.28125 72.90625 
L 38.28125 8.296875 
L 54.390625 8.296875 
L 54.390625 0 
L 12.40625 0 
z
" id="DejaVuSans-49"/>
      </defs>
      <g transform="translate(20.878125 89.217401)scale(0.1 -0.1)">
       <use xlink:href="#DejaVuSans-48"/>
       <use x="63.623047" xlink:href="#DejaVuSans-46"/>
       <use x="95.410156" xlink:href="#DejaVuSans-49"/>
       <use x="159.033203" xlink:href="#DejaVuSans-48"/>
      </g>
     </g>
    </g>
    <g id="ytick_4">
     <g id="line2d_4">
      <g>
       <use style="stroke:#000000;stroke-width:0.8;" x="50.14375" xlink:href="#me8ff6073b8" y="60.709091"/>
      </g>
     </g>
     <g id="text_4">
      <!-- 0.15 -->
      <g transform="translate(20.878125 64.50831)scale(0.1 -0.1)">
       <use xlink:href="#DejaVuSans-48"/>
       <use x="63.623047" xlink:href="#DejaVuSans-46"/>
       <use x="95.410156" xlink:href="#DejaVuSans-49"/>
       <use x="159.033203" xlink:href="#DejaVuSans-53"/>
      </g>
     </g>
    </g>
    <g id="ytick_5">
     <g id="line2d_5">
      <g>
       <use style="stroke:#000000;stroke-width:0.8;" x="50.14375" xlink:href="#me8ff6073b8" y="36"/>
      </g>
     </g>
     <g id="text_5">
      <!-- 0.20 -->
      <defs>
       <path d="M 19.1875 8.296875 
L 53.609375 8.296875 
L 53.609375 0 
L 7.328125 0 
L 7.328125 8.296875 
Q 12.9375 14.109375 22.625 23.890625 
Q 32.328125 33.6875 34.8125 36.53125 
Q 39.546875 41.84375 41.421875 45.53125 
Q 43.3125 49.21875 43.3125 52.78125 
Q 43.3125 58.59375 39.234375 62.25 
Q 35.15625 65.921875 28.609375 65.921875 
Q 23.96875 65.921875 18.8125 64.3125 
Q 13.671875 62.703125 7.8125 59.421875 
L 7.8125 69.390625 
Q 13.765625 71.78125 18.9375 73 
Q 24.125 74.21875 28.421875 74.21875 
Q 39.75 74.21875 46.484375 68.546875 
Q 53.21875 62.890625 53.21875 53.421875 
Q 53.21875 48.921875 51.53125 44.890625 
Q 49.859375 40.875 45.40625 35.40625 
Q 44.1875 33.984375 37.640625 27.21875 
Q 31.109375 20.453125 19.1875 8.296875 
z
" id="DejaVuSans-50"/>
      </defs>
      <g transform="translate(20.878125 39.799219)scale(0.1 -0.1)">
       <use xlink:href="#DejaVuSans-48"/>
       <use x="63.623047" xlink:href="#DejaVuSans-46"/>
       <use x="95.410156" xlink:href="#DejaVuSans-50"/>
       <use x="159.033203" xlink:href="#DejaVuSans-48"/>
      </g>
     </g>
    </g>
    <g id="text_6">
     <!-- Probability -->
     <defs>
      <path d="M 19.671875 64.796875 
L 19.671875 37.40625 
L 32.078125 37.40625 
Q 38.96875 37.40625 42.71875 40.96875 
Q 46.484375 44.53125 46.484375 51.125 
Q 46.484375 57.671875 42.71875 61.234375 
Q 38.96875 64.796875 32.078125 64.796875 
z
M 9.8125 72.90625 
L 32.078125 72.90625 
Q 44.34375 72.90625 50.609375 67.359375 
Q 56.890625 61.8125 56.890625 51.125 
Q 56.890625 40.328125 50.609375 34.8125 
Q 44.34375 29.296875 32.078125 29.296875 
L 19.671875 29.296875 
L 19.671875 0 
L 9.8125 0 
z
" id="DejaVuSans-80"/>
      <path d="M 41.109375 46.296875 
Q 39.59375 47.171875 37.8125 47.578125 
Q 36.03125 48 33.890625 48 
Q 26.265625 48 22.1875 43.046875 
Q 18.109375 38.09375 18.109375 28.8125 
L 18.109375 0 
L 9.078125 0 
L 9.078125 54.6875 
L 18.109375 54.6875 
L 18.109375 46.1875 
Q 20.953125 51.171875 25.484375 53.578125 
Q 30.03125 56 36.53125 56 
Q 37.453125 56 38.578125 55.875 
Q 39.703125 55.765625 41.0625 55.515625 
z
" id="DejaVuSans-114"/>
      <path d="M 30.609375 48.390625 
Q 23.390625 48.390625 19.1875 42.75 
Q 14.984375 37.109375 14.984375 27.296875 
Q 14.984375 17.484375 19.15625 11.84375 
Q 23.34375 6.203125 30.609375 6.203125 
Q 37.796875 6.203125 41.984375 11.859375 
Q 46.1875 17.53125 46.1875 27.296875 
Q 46.1875 37.015625 41.984375 42.703125 
Q 37.796875 48.390625 30.609375 48.390625 
z
M 30.609375 56 
Q 42.328125 56 49.015625 48.375 
Q 55.71875 40.765625 55.71875 27.296875 
Q 55.71875 13.875 49.015625 6.21875 
Q 42.328125 -1.421875 30.609375 -1.421875 
Q 18.84375 -1.421875 12.171875 6.21875 
Q 5.515625 13.875 5.515625 27.296875 
Q 5.515625 40.765625 12.171875 48.375 
Q 18.84375 56 30.609375 56 
z
" id="DejaVuSans-111"/>
      <path d="M 48.6875 27.296875 
Q 48.6875 37.203125 44.609375 42.84375 
Q 40.53125 48.484375 33.40625 48.484375 
Q 26.265625 48.484375 22.1875 42.84375 
Q 18.109375 37.203125 18.109375 27.296875 
Q 18.109375 17.390625 22.1875 11.75 
Q 26.265625 6.109375 33.40625 6.109375 
Q 40.53125 6.109375 44.609375 11.75 
Q 48.6875 17.390625 48.6875 27.296875 
z
M 18.109375 46.390625 
Q 20.953125 51.265625 25.265625 53.625 
Q 29.59375 56 35.59375 56 
Q 45.5625 56 51.78125 48.09375 
Q 58.015625 40.1875 58.015625 27.296875 
Q 58.015625 14.40625 51.78125 6.484375 
Q 45.5625 -1.421875 35.59375 -1.421875 
Q 29.59375 -1.421875 25.265625 0.953125 
Q 20.953125 3.328125 18.109375 8.203125 
L 18.109375 0 
L 9.078125 0 
L 9.078125 75.984375 
L 18.109375 75.984375 
z
" id="DejaVuSans-98"/>
      <path d="M 34.28125 27.484375 
Q 23.390625 27.484375 19.1875 25 
Q 14.984375 22.515625 14.984375 16.5 
Q 14.984375 11.71875 18.140625 8.90625 
Q 21.296875 6.109375 26.703125 6.109375 
Q 34.1875 6.109375 38.703125 11.40625 
Q 43.21875 16.703125 43.21875 25.484375 
L 43.21875 27.484375 
z
M 52.203125 31.203125 
L 52.203125 0 
L 43.21875 0 
L 43.21875 8.296875 
Q 40.140625 3.328125 35.546875 0.953125 
Q 30.953125 -1.421875 24.3125 -1.421875 
Q 15.921875 -1.421875 10.953125 3.296875 
Q 6 8.015625 6 15.921875 
Q 6 25.140625 12.171875 29.828125 
Q 18.359375 34.515625 30.609375 34.515625 
L 43.21875 34.515625 
L 43.21875 35.40625 
Q 43.21875 41.609375 39.140625 45 
Q 35.0625 48.390625 27.6875 48.390625 
Q 23 48.390625 18.546875 47.265625 
Q 14.109375 46.140625 10.015625 43.890625 
L 10.015625 52.203125 
Q 14.9375 54.109375 19.578125 55.046875 
Q 24.21875 56 28.609375 56 
Q 40.484375 56 46.34375 49.84375 
Q 52.203125 43.703125 52.203125 31.203125 
z
" id="DejaVuSans-97"/>
      <path d="M 9.421875 54.6875 
L 18.40625 54.6875 
L 18.40625 0 
L 9.421875 0 
z
M 9.421875 75.984375 
L 18.40625 75.984375 
L 18.40625 64.59375 
L 9.421875 64.59375 
z
" id="DejaVuSans-105"/>
      <path d="M 9.421875 75.984375 
L 18.40625 75.984375 
L 18.40625 0 
L 9.421875 0 
z
" id="DejaVuSans-108"/>
      <path d="M 18.3125 70.21875 
L 18.3125 54.6875 
L 36.8125 54.6875 
L 36.8125 47.703125 
L 18.3125 47.703125 
L 18.3125 18.015625 
Q 18.3125 11.328125 20.140625 9.421875 
Q 21.96875 7.515625 27.59375 7.515625 
L 36.8125 7.515625 
L 36.8125 0 
L 27.59375 0 
Q 17.1875 0 13.234375 3.875 
Q 9.28125 7.765625 9.28125 18.015625 
L 9.28125 47.703125 
L 2.6875 47.703125 
L 2.6875 54.6875 
L 9.28125 54.6875 
L 9.28125 70.21875 
z
" id="DejaVuSans-116"/>
      <path d="M 32.171875 -5.078125 
Q 28.375 -14.84375 24.75 -17.8125 
Q 21.140625 -20.796875 15.09375 -20.796875 
L 7.90625 -20.796875 
L 7.90625 -13.28125 
L 13.1875 -13.28125 
Q 16.890625 -13.28125 18.9375 -11.515625 
Q 21 -9.765625 23.484375 -3.21875 
L 25.09375 0.875 
L 2.984375 54.6875 
L 12.5 54.6875 
L 29.59375 11.921875 
L 46.6875 54.6875 
L 56.203125 54.6875 
z
" id="DejaVuSans-121"/>
     </defs>
     <g transform="translate(14.798438 112.044744)rotate(-90)scale(0.1 -0.1)">
      <use xlink:href="#DejaVuSans-80"/>
      <use x="60.287109" xlink:href="#DejaVuSans-114"/>
      <use x="101.369141" xlink:href="#DejaVuSans-111"/>
      <use x="162.550781" xlink:href="#DejaVuSans-98"/>
      <use x="226.027344" xlink:href="#DejaVuSans-97"/>
      <use x="287.306641" xlink:href="#DejaVuSans-98"/>
      <use x="350.783203" xlink:href="#DejaVuSans-105"/>
      <use x="378.566406" xlink:href="#DejaVuSans-108"/>
      <use x="406.349609" xlink:href="#DejaVuSans-105"/>
      <use x="434.132812" xlink:href="#DejaVuSans-116"/>
      <use x="473.341797" xlink:href="#DejaVuSans-121"/>
     </g>
    </g>
   </g>
   <g id="line2d_6">
    <path clip-path="url(#p08e7223856)" d="M 57.061105 100.449052 
L 74.036211 101.436776 
L 92.708826 102.746128 
L 137.692855 105.921087 
L 155.516716 106.821127 
L 173.340576 107.41035 
L 194.559458 107.860106 
L 195.408213 107.850486 
L 195.408213 107.850486 
" style="fill:none;stroke:#0000ff;stroke-linecap:square;stroke-width:1.5;"/>
   </g>
   <g id="line2d_7">
    <path clip-path="url(#p08e7223856)" d="M 57.061105 37.671174 
L 68.094924 39.41058 
L 78.279987 41.232846 
L 89.313805 43.454007 
L 130.902813 51.901105 
L 139.390366 53.345471 
L 152.97045 55.280766 
L 160.609247 56.150948 
L 171.643066 57.114781 
L 185.22315 58.036215 
L 194.559458 58.501864 
L 195.408213 58.474523 
L 195.408213 58.474523 
" style="fill:none;stroke:#ff0000;stroke-linecap:square;stroke-width:1.5;"/>
   </g>
   <g id="patch_3">
    <path d="M 50.14375 134.836364 
L 50.14375 36 
" style="fill:none;stroke:#000000;stroke-linecap:square;stroke-linejoin:miter;stroke-width:0.8;"/>
   </g>
   <g id="patch_4">
    <path d="M 202.325568 134.836364 
L 202.325568 36 
" style="fill:none;stroke:#000000;stroke-linecap:square;stroke-linejoin:miter;stroke-width:0.8;"/>
   </g>
   <g id="patch_5">
    <path d="M 50.14375 134.836364 
L 202.325568 134.836364 
" style="fill:none;stroke:#000000;stroke-linecap:square;stroke-linejoin:miter;stroke-width:0.8;"/>
   </g>
   <g id="patch_6">
    <path d="M 50.14375 36 
L 202.325568 36 
" style="fill:none;stroke:#000000;stroke-linecap:square;stroke-linejoin:miter;stroke-width:0.8;"/>
   </g>
   <g id="text_7">
    <!-- All education (mean) -->
    <defs>
     <path d="M 34.1875 63.1875 
L 20.796875 26.90625 
L 47.609375 26.90625 
z
M 28.609375 72.90625 
L 39.796875 72.90625 
L 67.578125 0 
L 57.328125 0 
L 50.6875 18.703125 
L 17.828125 18.703125 
L 11.1875 0 
L 0.78125 0 
z
" id="DejaVuSans-65"/>
     <path id="DejaVuSans-32"/>
     <path d="M 56.203125 29.59375 
L 56.203125 25.203125 
L 14.890625 25.203125 
Q 15.484375 15.921875 20.484375 11.0625 
Q 25.484375 6.203125 34.421875 6.203125 
Q 39.59375 6.203125 44.453125 7.46875 
Q 49.3125 8.734375 54.109375 11.28125 
L 54.109375 2.78125 
Q 49.265625 0.734375 44.1875 -0.34375 
Q 39.109375 -1.421875 33.890625 -1.421875 
Q 20.796875 -1.421875 13.15625 6.1875 
Q 5.515625 13.8125 5.515625 26.8125 
Q 5.515625 40.234375 12.765625 48.109375 
Q 20.015625 56 32.328125 56 
Q 43.359375 56 49.78125 48.890625 
Q 56.203125 41.796875 56.203125 29.59375 
z
M 47.21875 32.234375 
Q 47.125 39.59375 43.09375 43.984375 
Q 39.0625 48.390625 32.421875 48.390625 
Q 24.90625 48.390625 20.390625 44.140625 
Q 15.875 39.890625 15.1875 32.171875 
z
" id="DejaVuSans-101"/>
     <path d="M 45.40625 46.390625 
L 45.40625 75.984375 
L 54.390625 75.984375 
L 54.390625 0 
L 45.40625 0 
L 45.40625 8.203125 
Q 42.578125 3.328125 38.25 0.953125 
Q 33.9375 -1.421875 27.875 -1.421875 
Q 17.96875 -1.421875 11.734375 6.484375 
Q 5.515625 14.40625 5.515625 27.296875 
Q 5.515625 40.1875 11.734375 48.09375 
Q 17.96875 56 27.875 56 
Q 33.9375 56 38.25 53.625 
Q 42.578125 51.265625 45.40625 46.390625 
z
M 14.796875 27.296875 
Q 14.796875 17.390625 18.875 11.75 
Q 22.953125 6.109375 30.078125 6.109375 
Q 37.203125 6.109375 41.296875 11.75 
Q 45.40625 17.390625 45.40625 27.296875 
Q 45.40625 37.203125 41.296875 42.84375 
Q 37.203125 48.484375 30.078125 48.484375 
Q 22.953125 48.484375 18.875 42.84375 
Q 14.796875 37.203125 14.796875 27.296875 
z
" id="DejaVuSans-100"/>
     <path d="M 8.5 21.578125 
L 8.5 54.6875 
L 17.484375 54.6875 
L 17.484375 21.921875 
Q 17.484375 14.15625 20.5 10.265625 
Q 23.53125 6.390625 29.59375 6.390625 
Q 36.859375 6.390625 41.078125 11.03125 
Q 45.3125 15.671875 45.3125 23.6875 
L 45.3125 54.6875 
L 54.296875 54.6875 
L 54.296875 0 
L 45.3125 0 
L 45.3125 8.40625 
Q 42.046875 3.421875 37.71875 1 
Q 33.40625 -1.421875 27.6875 -1.421875 
Q 18.265625 -1.421875 13.375 4.4375 
Q 8.5 10.296875 8.5 21.578125 
z
M 31.109375 56 
z
" id="DejaVuSans-117"/>
     <path d="M 48.78125 52.59375 
L 48.78125 44.1875 
Q 44.96875 46.296875 41.140625 47.34375 
Q 37.3125 48.390625 33.40625 48.390625 
Q 24.65625 48.390625 19.8125 42.84375 
Q 14.984375 37.3125 14.984375 27.296875 
Q 14.984375 17.28125 19.8125 11.734375 
Q 24.65625 6.203125 33.40625 6.203125 
Q 37.3125 6.203125 41.140625 7.25 
Q 44.96875 8.296875 48.78125 10.40625 
L 48.78125 2.09375 
Q 45.015625 0.34375 40.984375 -0.53125 
Q 36.96875 -1.421875 32.421875 -1.421875 
Q 20.0625 -1.421875 12.78125 6.34375 
Q 5.515625 14.109375 5.515625 27.296875 
Q 5.515625 40.671875 12.859375 48.328125 
Q 20.21875 56 33.015625 56 
Q 37.15625 56 41.109375 55.140625 
Q 45.0625 54.296875 48.78125 52.59375 
z
" id="DejaVuSans-99"/>
     <path d="M 54.890625 33.015625 
L 54.890625 0 
L 45.90625 0 
L 45.90625 32.71875 
Q 45.90625 40.484375 42.875 44.328125 
Q 39.84375 48.1875 33.796875 48.1875 
Q 26.515625 48.1875 22.3125 43.546875 
Q 18.109375 38.921875 18.109375 30.90625 
L 18.109375 0 
L 9.078125 0 
L 9.078125 54.6875 
L 18.109375 54.6875 
L 18.109375 46.1875 
Q 21.34375 51.125 25.703125 53.5625 
Q 30.078125 56 35.796875 56 
Q 45.21875 56 50.046875 50.171875 
Q 54.890625 44.34375 54.890625 33.015625 
z
" id="DejaVuSans-110"/>
     <path d="M 31 75.875 
Q 24.46875 64.65625 21.28125 53.65625 
Q 18.109375 42.671875 18.109375 31.390625 
Q 18.109375 20.125 21.3125 9.0625 
Q 24.515625 -2 31 -13.1875 
L 23.1875 -13.1875 
Q 15.875 -1.703125 12.234375 9.375 
Q 8.59375 20.453125 8.59375 31.390625 
Q 8.59375 42.28125 12.203125 53.3125 
Q 15.828125 64.359375 23.1875 75.875 
z
" id="DejaVuSans-40"/>
     <path d="M 52 44.1875 
Q 55.375 50.25 60.0625 53.125 
Q 64.75 56 71.09375 56 
Q 79.640625 56 84.28125 50.015625 
Q 88.921875 44.046875 88.921875 33.015625 
L 88.921875 0 
L 79.890625 0 
L 79.890625 32.71875 
Q 79.890625 40.578125 77.09375 44.375 
Q 74.3125 48.1875 68.609375 48.1875 
Q 61.625 48.1875 57.5625 43.546875 
Q 53.515625 38.921875 53.515625 30.90625 
L 53.515625 0 
L 44.484375 0 
L 44.484375 32.71875 
Q 44.484375 40.625 41.703125 44.40625 
Q 38.921875 48.1875 33.109375 48.1875 
Q 26.21875 48.1875 22.15625 43.53125 
Q 18.109375 38.875 18.109375 30.90625 
L 18.109375 0 
L 9.078125 0 
L 9.078125 54.6875 
L 18.109375 54.6875 
L 18.109375 46.1875 
Q 21.1875 51.21875 25.484375 53.609375 
Q 29.78125 56 35.6875 56 
Q 41.65625 56 45.828125 52.96875 
Q 50 49.953125 52 44.1875 
z
" id="DejaVuSans-109"/>
     <path d="M 8.015625 75.875 
L 15.828125 75.875 
Q 23.140625 64.359375 26.78125 53.3125 
Q 30.421875 42.28125 30.421875 31.390625 
Q 30.421875 20.453125 26.78125 9.375 
Q 23.140625 -1.703125 15.828125 -13.1875 
L 8.015625 -13.1875 
Q 14.5 -2 17.703125 9.0625 
Q 20.90625 20.125 20.90625 31.390625 
Q 20.90625 42.671875 17.703125 53.65625 
Q 14.5 64.65625 8.015625 75.875 
z
" id="DejaVuSans-41"/>
    </defs>
    <g transform="translate(63.513097 30)scale(0.12 -0.12)">
     <use xlink:href="#DejaVuSans-65"/>
     <use x="68.408203" xlink:href="#DejaVuSans-108"/>
     <use x="96.191406" xlink:href="#DejaVuSans-108"/>
     <use x="123.974609" xlink:href="#DejaVuSans-32"/>
     <use x="155.761719" xlink:href="#DejaVuSans-101"/>
     <use x="217.285156" xlink:href="#DejaVuSans-100"/>
     <use x="280.761719" xlink:href="#DejaVuSans-117"/>
     <use x="344.140625" xlink:href="#DejaVuSans-99"/>
     <use x="399.121094" xlink:href="#DejaVuSans-97"/>
     <use x="460.400391" xlink:href="#DejaVuSans-116"/>
     <use x="499.609375" xlink:href="#DejaVuSans-105"/>
     <use x="527.392578" xlink:href="#DejaVuSans-111"/>
     <use x="588.574219" xlink:href="#DejaVuSans-110"/>
     <use x="651.953125" xlink:href="#DejaVuSans-32"/>
     <use x="683.740234" xlink:href="#DejaVuSans-40"/>
     <use x="722.753906" xlink:href="#DejaVuSans-109"/>
     <use x="820.166016" xlink:href="#DejaVuSans-101"/>
     <use x="881.689453" xlink:href="#DejaVuSans-97"/>
     <use x="942.96875" xlink:href="#DejaVuSans-110"/>
     <use x="1006.347656" xlink:href="#DejaVuSans-41"/>
    </g>
   </g>
   <g id="legend_1">
    <g id="patch_7">
     <path d="M 98.875568 73.35625 
L 195.325568 73.35625 
Q 197.325568 73.35625 197.325568 71.35625 
L 197.325568 43 
Q 197.325568 41 195.325568 41 
L 98.875568 41 
Q 96.875568 41 96.875568 43 
L 96.875568 71.35625 
Q 96.875568 73.35625 98.875568 73.35625 
z
" style="fill:#ffffff;opacity:0.8;stroke:#cccccc;stroke-linejoin:miter;"/>
    </g>
    <g id="line2d_8">
     <path d="M 100.875568 49.098437 
L 120.875568 49.098437 
" style="fill:none;stroke:#0000ff;stroke-linecap:square;stroke-width:1.5;"/>
    </g>
    <g id="line2d_9"/>
    <g id="text_8">
     <!-- Unemployed -->
     <defs>
      <path d="M 8.6875 72.90625 
L 18.609375 72.90625 
L 18.609375 28.609375 
Q 18.609375 16.890625 22.84375 11.734375 
Q 27.09375 6.59375 36.625 6.59375 
Q 46.09375 6.59375 50.34375 11.734375 
Q 54.59375 16.890625 54.59375 28.609375 
L 54.59375 72.90625 
L 64.5 72.90625 
L 64.5 27.390625 
Q 64.5 13.140625 57.4375 5.859375 
Q 50.390625 -1.421875 36.625 -1.421875 
Q 22.796875 -1.421875 15.734375 5.859375 
Q 8.6875 13.140625 8.6875 27.390625 
z
" id="DejaVuSans-85"/>
      <path d="M 18.109375 8.203125 
L 18.109375 -20.796875 
L 9.078125 -20.796875 
L 9.078125 54.6875 
L 18.109375 54.6875 
L 18.109375 46.390625 
Q 20.953125 51.265625 25.265625 53.625 
Q 29.59375 56 35.59375 56 
Q 45.5625 56 51.78125 48.09375 
Q 58.015625 40.1875 58.015625 27.296875 
Q 58.015625 14.40625 51.78125 6.484375 
Q 45.5625 -1.421875 35.59375 -1.421875 
Q 29.59375 -1.421875 25.265625 0.953125 
Q 20.953125 3.328125 18.109375 8.203125 
z
M 48.6875 27.296875 
Q 48.6875 37.203125 44.609375 42.84375 
Q 40.53125 48.484375 33.40625 48.484375 
Q 26.265625 48.484375 22.1875 42.84375 
Q 18.109375 37.203125 18.109375 27.296875 
Q 18.109375 17.390625 22.1875 11.75 
Q 26.265625 6.109375 33.40625 6.109375 
Q 40.53125 6.109375 44.609375 11.75 
Q 48.6875 17.390625 48.6875 27.296875 
z
" id="DejaVuSans-112"/>
     </defs>
     <g transform="translate(128.875568 52.598437)scale(0.1 -0.1)">
      <use xlink:href="#DejaVuSans-85"/>
      <use x="73.193359" xlink:href="#DejaVuSans-110"/>
      <use x="136.572266" xlink:href="#DejaVuSans-101"/>
      <use x="198.095703" xlink:href="#DejaVuSans-109"/>
      <use x="295.507812" xlink:href="#DejaVuSans-112"/>
      <use x="358.984375" xlink:href="#DejaVuSans-108"/>
      <use x="386.767578" xlink:href="#DejaVuSans-111"/>
      <use x="447.949219" xlink:href="#DejaVuSans-121"/>
      <use x="507.128906" xlink:href="#DejaVuSans-101"/>
      <use x="568.652344" xlink:href="#DejaVuSans-100"/>
     </g>
    </g>
    <g id="line2d_10">
     <path d="M 100.875568 63.776562 
L 120.875568 63.776562 
" style="fill:none;stroke:#ff0000;stroke-linecap:square;stroke-width:1.5;"/>
    </g>
    <g id="line2d_11"/>
    <g id="text_9">
     <!-- Deep unemp -->
     <defs>
      <path d="M 19.671875 64.796875 
L 19.671875 8.109375 
L 31.59375 8.109375 
Q 46.6875 8.109375 53.6875 14.9375 
Q 60.6875 21.78125 60.6875 36.53125 
Q 60.6875 51.171875 53.6875 57.984375 
Q 46.6875 64.796875 31.59375 64.796875 
z
M 9.8125 72.90625 
L 30.078125 72.90625 
Q 51.265625 72.90625 61.171875 64.09375 
Q 71.09375 55.28125 71.09375 36.53125 
Q 71.09375 17.671875 61.125 8.828125 
Q 51.171875 0 30.078125 0 
L 9.8125 0 
z
" id="DejaVuSans-68"/>
     </defs>
     <g transform="translate(128.875568 67.276562)scale(0.1 -0.1)">
      <use xlink:href="#DejaVuSans-68"/>
      <use x="77.001953" xlink:href="#DejaVuSans-101"/>
      <use x="138.525391" xlink:href="#DejaVuSans-101"/>
      <use x="200.048828" xlink:href="#DejaVuSans-112"/>
      <use x="263.525391" xlink:href="#DejaVuSans-32"/>
      <use x="295.3125" xlink:href="#DejaVuSans-117"/>
      <use x="358.691406" xlink:href="#DejaVuSans-110"/>
      <use x="422.070312" xlink:href="#DejaVuSans-101"/>
      <use x="483.59375" xlink:href="#DejaVuSans-109"/>
      <use x="581.005859" xlink:href="#DejaVuSans-112"/>
     </g>
    </g>
   </g>
  </g>
  <g id="axes_2">
   <g id="patch_8">
    <path d="M 232.761932 134.836364 
L 384.94375 134.836364 
L 384.94375 36 
L 232.761932 36 
z
" style="fill:#ffffff;"/>
   </g>
   <g id="matplotlib.axis_3"/>
   <g id="matplotlib.axis_4"/>
   <g id="line2d_12">
    <path clip-path="url(#p96437509be)" d="M 239.679287 88.648371 
L 240.528042 88.380106 
L 242.225553 88.085144 
L 244.771819 87.723504 
L 246.469329 87.590937 
L 249.86435 87.309006 
L 254.956882 86.942216 
L 260.049413 86.73011 
L 266.839456 86.64851 
L 268.536966 86.689774 
L 285.512071 87.334586 
L 286.360827 87.449511 
L 288.058337 87.44088 
L 291.453358 87.659838 
L 292.302113 87.590384 
L 297.394645 87.905149 
L 302.487176 88.181687 
L 304.184687 88.29004 
L 305.882197 88.392637 
L 309.277219 88.44822 
L 314.36975 88.788385 
L 317.764771 89.014363 
L 333.042366 89.677572 
L 335.588632 89.624389 
L 338.134897 89.819528 
L 344.076184 89.953191 
L 348.319961 90.014261 
L 351.714982 89.971998 
L 353.412492 90.028687 
L 356.807513 90.072416 
L 359.353779 90.081487 
L 361.900045 90.049326 
L 366.143821 90.035131 
L 367.841332 90.139741 
L 369.538842 89.979801 
L 371.236353 90.071633 
L 372.933863 90.07134 
L 374.631374 89.997794 
L 375.480129 90.052689 
L 376.328884 89.970007 
L 378.026395 89.971829 
L 378.026395 89.971829 
" style="fill:none;stroke:#0000ff;stroke-dasharray:5.55,2.4;stroke-dashoffset:0;stroke-width:1.5;"/>
   </g>
   <g id="line2d_13">
    <path clip-path="url(#p96437509be)" d="M 0 0 
" style="fill:none;stroke:#ff0000;stroke-dasharray:5.55,2.4;stroke-dashoffset:0;stroke-width:1.5;"/>
   </g>
   <g id="line2d_14">
    <path clip-path="url(#p96437509be)" d="M 239.679287 95.900461 
L 240.528042 96.312126 
L 242.225553 96.778486 
L 248.16684 98.285547 
L 258.351903 100.256484 
L 262.595679 100.924208 
L 264.29319 101.155507 
L 266.839456 101.538335 
L 270.234477 101.963987 
L 276.175763 102.605138 
L 277.873274 102.781788 
L 279.570784 103.060187 
L 282.11705 103.329776 
L 286.360827 103.679636 
L 292.302113 104.149936 
L 300.789666 104.87516 
L 303.335932 105.072883 
L 305.882197 105.241922 
L 307.579708 105.501007 
L 319.462282 106.167101 
L 324.554813 106.544318 
L 328.79859 106.762271 
L 331.344855 106.89694 
L 352.563737 108.070109 
L 365.295066 108.584976 
L 366.992576 108.696794 
L 378.026395 109.088239 
L 378.026395 109.088239 
" style="fill:none;stroke:#0000ff;stroke-dasharray:5.55,2.4;stroke-dashoffset:0;stroke-width:1.5;"/>
   </g>
   <g id="line2d_15">
    <path clip-path="url(#p96437509be)" d="M 239.679287 11.869272 
L 240.528042 13.16939 
L 241.376798 13.74589 
L 242.225553 14.642243 
L 243.923063 16.084646 
L 244.771819 16.620523 
L 245.620574 17.288251 
L 246.469329 18.149773 
L 249.015595 19.949579 
L 249.86435 20.665379 
L 250.713106 21.208138 
L 251.561861 21.890779 
L 254.956882 23.585801 
L 255.805637 24.200334 
L 257.503148 25.129099 
L 259.200658 26.085915 
L 262.595679 27.735233 
L 263.444434 27.938244 
L 264.29319 28.465722 
L 265.141945 28.767318 
L 266.839456 29.674766 
L 267.688211 30.097142 
L 269.385721 30.726043 
L 271.083232 31.344544 
L 271.931987 31.418691 
L 274.478253 32.332225 
L 276.175763 33.043937 
L 277.024519 33.205743 
L 277.873274 33.60183 
L 278.722029 34.141514 
L 281.268295 35.125686 
L 288.058337 36.881646 
L 288.907092 37.269851 
L 291.453358 37.730571 
L 296.54589 38.867302 
L 297.394645 39.254241 
L 299.092155 39.75053 
L 299.940911 39.82092 
L 301.638421 40.519684 
L 304.184687 40.994031 
L 305.882197 41.371408 
L 307.579708 42.189647 
L 312.67224 43.043618 
L 315.218505 43.654527 
L 316.067261 43.672304 
L 329.647345 46.423368 
L 330.4961 46.43076 
L 333.042366 46.885327 
L 333.891121 47.282221 
L 334.739876 47.197848 
L 337.286142 47.739704 
L 338.134897 47.758253 
L 338.983653 47.984389 
L 339.832408 48.05069 
L 341.529918 48.469705 
L 345.773695 49.193953 
L 346.62245 49.271254 
L 348.319961 49.714124 
L 349.168716 49.910407 
L 350.866226 50.000749 
L 351.714982 50.091209 
L 352.563737 50.303369 
L 354.261247 50.476024 
L 355.958758 50.930891 
L 357.656268 50.947261 
L 359.353779 51.197927 
L 360.202534 51.248914 
L 361.051289 51.459137 
L 361.900045 51.39956 
L 363.597555 51.703688 
L 367.841332 52.361055 
L 368.690087 52.312769 
L 369.538842 52.618102 
L 374.631374 53.063984 
L 376.328884 53.216239 
L 378.026395 53.518818 
L 378.026395 53.518818 
" style="fill:none;stroke:#ff0000;stroke-dasharray:5.55,2.4;stroke-dashoffset:0;stroke-width:1.5;"/>
   </g>
   <g id="line2d_16">
    <path clip-path="url(#p96437509be)" d="M 239.679287 92.371896 
L 252.410616 93.436297 
L 254.108127 93.538586 
L 257.503148 93.812689 
L 262.595679 94.180043 
L 264.29319 94.317968 
L 265.9907 94.386369 
L 271.931987 94.916021 
L 290.604603 96.36167 
L 306.730953 97.502596 
L 310.125974 97.744535 
L 314.36975 97.985417 
L 318.613526 98.264978 
L 330.4961 98.912962 
L 333.042366 99.038692 
L 343.227429 99.463727 
L 360.202534 99.961972 
L 362.7488 100.032553 
L 372.933863 100.296794 
L 377.177639 100.354606 
L 378.026395 100.412252 
L 378.026395 100.412252 
" style="fill:none;stroke:#0000ff;stroke-linecap:square;stroke-width:1.5;"/>
   </g>
   <g id="line2d_17">
    <path clip-path="url(#p96437509be)" d="M 239.679287 0.725383 
L 242.225553 1.42589 
L 243.074308 1.56868 
L 243.923063 1.835896 
L 245.620574 2.173524 
L 246.469329 2.52766 
L 249.86435 3.371722 
L 251.561861 3.833969 
L 252.410616 4.086968 
L 253.259371 4.149938 
L 256.654392 5.098031 
L 260.898169 6.010173 
L 261.746924 6.326356 
L 262.595679 6.435859 
L 263.444434 6.75117 
L 265.9907 7.087478 
L 266.839456 7.37405 
L 267.688211 7.474396 
L 269.385721 7.987071 
L 270.234477 8.198885 
L 271.931987 8.76022 
L 280.41954 10.920541 
L 281.268295 10.960438 
L 282.965805 11.49419 
L 284.663316 11.859851 
L 288.058337 12.673863 
L 289.755848 13.191651 
L 292.302113 13.627191 
L 293.150869 13.928467 
L 294.848379 14.200173 
L 303.335932 16.238628 
L 305.033442 16.548748 
L 307.579708 17.18043 
L 310.125974 17.693215 
L 312.67224 18.026569 
L 316.916016 18.969548 
L 330.4961 21.383331 
L 332.193611 21.550526 
L 333.891121 21.919315 
L 335.588632 22.073633 
L 336.437387 22.165514 
L 337.286142 22.390637 
L 338.134897 22.451064 
L 339.832408 22.720753 
L 340.681163 22.704338 
L 343.227429 23.122753 
L 349.168716 23.678359 
L 352.563737 24.192326 
L 353.412492 24.182664 
L 355.110003 24.355829 
L 356.807513 24.437703 
L 361.051289 24.86683 
L 361.900045 24.821236 
L 367.841332 25.448272 
L 368.690087 25.43307 
L 370.387597 25.620774 
L 378.026395 26.118379 
L 378.026395 26.118379 
" style="fill:none;stroke:#ff0000;stroke-linecap:square;stroke-width:1.5;"/>
   </g>
   <g id="patch_9">
    <path d="M 232.761932 134.836364 
L 232.761932 36 
" style="fill:none;stroke:#000000;stroke-linecap:square;stroke-linejoin:miter;stroke-width:0.8;"/>
   </g>
   <g id="patch_10">
    <path d="M 384.94375 134.836364 
L 384.94375 36 
" style="fill:none;stroke:#000000;stroke-linecap:square;stroke-linejoin:miter;stroke-width:0.8;"/>
   </g>
   <g id="patch_11">
    <path d="M 232.761932 134.836364 
L 384.94375 134.836364 
" style="fill:none;stroke:#000000;stroke-linecap:square;stroke-linejoin:miter;stroke-width:0.8;"/>
   </g>
   <g id="patch_12">
    <path d="M 232.761932 36 
L 384.94375 36 
" style="fill:none;stroke:#000000;stroke-linecap:square;stroke-linejoin:miter;stroke-width:0.8;"/>
   </g>
   <g id="text_10">
    <!-- Dropout -->
    <g transform="translate(284.461903 30)scale(0.12 -0.12)">
     <use xlink:href="#DejaVuSans-68"/>
     <use x="77.001953" xlink:href="#DejaVuSans-114"/>
     <use x="118.083984" xlink:href="#DejaVuSans-111"/>
     <use x="179.265625" xlink:href="#DejaVuSans-112"/>
     <use x="242.742188" xlink:href="#DejaVuSans-111"/>
     <use x="303.923828" xlink:href="#DejaVuSans-117"/>
     <use x="367.302734" xlink:href="#DejaVuSans-116"/>
    </g>
   </g>
  </g>
  <g id="axes_3">
   <g id="patch_13">
    <path d="M 50.14375 253.44 
L 202.325568 253.44 
L 202.325568 154.603636 
L 50.14375 154.603636 
z
" style="fill:#ffffff;"/>
   </g>
   <g id="matplotlib.axis_5">
    <g id="xtick_1">
     <g id="line2d_18">
      <defs>
       <path d="M 0 0 
L 0 3.5 
" id="mb65e3f4a84" style="stroke:#000000;stroke-width:0.8;"/>
      </defs>
      <g>
       <use style="stroke:#000000;stroke-width:0.8;" x="77.431232" xlink:href="#mb65e3f4a84" y="253.44"/>
      </g>
     </g>
     <g id="text_11">
      <!-- 30 -->
      <defs>
       <path d="M 40.578125 39.3125 
Q 47.65625 37.796875 51.625 33 
Q 55.609375 28.21875 55.609375 21.1875 
Q 55.609375 10.40625 48.1875 4.484375 
Q 40.765625 -1.421875 27.09375 -1.421875 
Q 22.515625 -1.421875 17.65625 -0.515625 
Q 12.796875 0.390625 7.625 2.203125 
L 7.625 11.71875 
Q 11.71875 9.328125 16.59375 8.109375 
Q 21.484375 6.890625 26.8125 6.890625 
Q 36.078125 6.890625 40.9375 10.546875 
Q 45.796875 14.203125 45.796875 21.1875 
Q 45.796875 27.640625 41.28125 31.265625 
Q 36.765625 34.90625 28.71875 34.90625 
L 20.21875 34.90625 
L 20.21875 43.015625 
L 29.109375 43.015625 
Q 36.375 43.015625 40.234375 45.921875 
Q 44.09375 48.828125 44.09375 54.296875 
Q 44.09375 59.90625 40.109375 62.90625 
Q 36.140625 65.921875 28.71875 65.921875 
Q 24.65625 65.921875 20.015625 65.03125 
Q 15.375 64.15625 9.8125 62.3125 
L 9.8125 71.09375 
Q 15.4375 72.65625 20.34375 73.4375 
Q 25.25 74.21875 29.59375 74.21875 
Q 40.828125 74.21875 47.359375 69.109375 
Q 53.90625 64.015625 53.90625 55.328125 
Q 53.90625 49.265625 50.4375 45.09375 
Q 46.96875 40.921875 40.578125 39.3125 
z
" id="DejaVuSans-51"/>
      </defs>
      <g transform="translate(71.068732 268.038437)scale(0.1 -0.1)">
       <use xlink:href="#DejaVuSans-51"/>
       <use x="63.623047" xlink:href="#DejaVuSans-48"/>
      </g>
     </g>
    </g>
    <g id="xtick_2">
     <g id="line2d_19">
      <g>
       <use style="stroke:#000000;stroke-width:0.8;" x="111.381442" xlink:href="#mb65e3f4a84" y="253.44"/>
      </g>
     </g>
     <g id="text_12">
      <!-- 40 -->
      <defs>
       <path d="M 37.796875 64.3125 
L 12.890625 25.390625 
L 37.796875 25.390625 
z
M 35.203125 72.90625 
L 47.609375 72.90625 
L 47.609375 25.390625 
L 58.015625 25.390625 
L 58.015625 17.1875 
L 47.609375 17.1875 
L 47.609375 0 
L 37.796875 0 
L 37.796875 17.1875 
L 4.890625 17.1875 
L 4.890625 26.703125 
z
" id="DejaVuSans-52"/>
      </defs>
      <g transform="translate(105.018942 268.038437)scale(0.1 -0.1)">
       <use xlink:href="#DejaVuSans-52"/>
       <use x="63.623047" xlink:href="#DejaVuSans-48"/>
      </g>
     </g>
    </g>
    <g id="xtick_3">
     <g id="line2d_20">
      <g>
       <use style="stroke:#000000;stroke-width:0.8;" x="145.331652" xlink:href="#mb65e3f4a84" y="253.44"/>
      </g>
     </g>
     <g id="text_13">
      <!-- 50 -->
      <g transform="translate(138.969152 268.038437)scale(0.1 -0.1)">
       <use xlink:href="#DejaVuSans-53"/>
       <use x="63.623047" xlink:href="#DejaVuSans-48"/>
      </g>
     </g>
    </g>
    <g id="xtick_4">
     <g id="line2d_21">
      <g>
       <use style="stroke:#000000;stroke-width:0.8;" x="179.281863" xlink:href="#mb65e3f4a84" y="253.44"/>
      </g>
     </g>
     <g id="text_14">
      <!-- 60 -->
      <defs>
       <path d="M 33.015625 40.375 
Q 26.375 40.375 22.484375 35.828125 
Q 18.609375 31.296875 18.609375 23.390625 
Q 18.609375 15.53125 22.484375 10.953125 
Q 26.375 6.390625 33.015625 6.390625 
Q 39.65625 6.390625 43.53125 10.953125 
Q 47.40625 15.53125 47.40625 23.390625 
Q 47.40625 31.296875 43.53125 35.828125 
Q 39.65625 40.375 33.015625 40.375 
z
M 52.59375 71.296875 
L 52.59375 62.3125 
Q 48.875 64.0625 45.09375 64.984375 
Q 41.3125 65.921875 37.59375 65.921875 
Q 27.828125 65.921875 22.671875 59.328125 
Q 17.53125 52.734375 16.796875 39.40625 
Q 19.671875 43.65625 24.015625 45.921875 
Q 28.375 48.1875 33.59375 48.1875 
Q 44.578125 48.1875 50.953125 41.515625 
Q 57.328125 34.859375 57.328125 23.390625 
Q 57.328125 12.15625 50.6875 5.359375 
Q 44.046875 -1.421875 33.015625 -1.421875 
Q 20.359375 -1.421875 13.671875 8.265625 
Q 6.984375 17.96875 6.984375 36.375 
Q 6.984375 53.65625 15.1875 63.9375 
Q 23.390625 74.21875 37.203125 74.21875 
Q 40.921875 74.21875 44.703125 73.484375 
Q 48.484375 72.75 52.59375 71.296875 
z
" id="DejaVuSans-54"/>
      </defs>
      <g transform="translate(172.919363 268.038437)scale(0.1 -0.1)">
       <use xlink:href="#DejaVuSans-54"/>
       <use x="63.623047" xlink:href="#DejaVuSans-48"/>
      </g>
     </g>
    </g>
    <g id="text_15">
     <!-- Age -->
     <defs>
      <path d="M 45.40625 27.984375 
Q 45.40625 37.75 41.375 43.109375 
Q 37.359375 48.484375 30.078125 48.484375 
Q 22.859375 48.484375 18.828125 43.109375 
Q 14.796875 37.75 14.796875 27.984375 
Q 14.796875 18.265625 18.828125 12.890625 
Q 22.859375 7.515625 30.078125 7.515625 
Q 37.359375 7.515625 41.375 12.890625 
Q 45.40625 18.265625 45.40625 27.984375 
z
M 54.390625 6.78125 
Q 54.390625 -7.171875 48.1875 -13.984375 
Q 42 -20.796875 29.203125 -20.796875 
Q 24.46875 -20.796875 20.265625 -20.09375 
Q 16.0625 -19.390625 12.109375 -17.921875 
L 12.109375 -9.1875 
Q 16.0625 -11.328125 19.921875 -12.34375 
Q 23.78125 -13.375 27.78125 -13.375 
Q 36.625 -13.375 41.015625 -8.765625 
Q 45.40625 -4.15625 45.40625 5.171875 
L 45.40625 9.625 
Q 42.625 4.78125 38.28125 2.390625 
Q 33.9375 0 27.875 0 
Q 17.828125 0 11.671875 7.65625 
Q 5.515625 15.328125 5.515625 27.984375 
Q 5.515625 40.671875 11.671875 48.328125 
Q 17.828125 56 27.875 56 
Q 33.9375 56 38.28125 53.609375 
Q 42.625 51.21875 45.40625 46.390625 
L 45.40625 54.6875 
L 54.390625 54.6875 
z
" id="DejaVuSans-103"/>
     </defs>
     <g transform="translate(116.563565 281.716562)scale(0.1 -0.1)">
      <use xlink:href="#DejaVuSans-65"/>
      <use x="68.408203" xlink:href="#DejaVuSans-103"/>
      <use x="131.884766" xlink:href="#DejaVuSans-101"/>
     </g>
    </g>
   </g>
   <g id="matplotlib.axis_6">
    <g id="ytick_6">
     <g id="line2d_22">
      <g>
       <use style="stroke:#000000;stroke-width:0.8;" x="50.14375" xlink:href="#me8ff6073b8" y="253.44"/>
      </g>
     </g>
     <g id="text_16">
      <!-- 0.00 -->
      <g transform="translate(20.878125 257.239219)scale(0.1 -0.1)">
       <use xlink:href="#DejaVuSans-48"/>
       <use x="63.623047" xlink:href="#DejaVuSans-46"/>
       <use x="95.410156" xlink:href="#DejaVuSans-48"/>
       <use x="159.033203" xlink:href="#DejaVuSans-48"/>
      </g>
     </g>
    </g>
    <g id="ytick_7">
     <g id="line2d_23">
      <g>
       <use style="stroke:#000000;stroke-width:0.8;" x="50.14375" xlink:href="#me8ff6073b8" y="228.730909"/>
      </g>
     </g>
     <g id="text_17">
      <!-- 0.05 -->
      <g transform="translate(20.878125 232.530128)scale(0.1 -0.1)">
       <use xlink:href="#DejaVuSans-48"/>
       <use x="63.623047" xlink:href="#DejaVuSans-46"/>
       <use x="95.410156" xlink:href="#DejaVuSans-48"/>
       <use x="159.033203" xlink:href="#DejaVuSans-53"/>
      </g>
     </g>
    </g>
    <g id="ytick_8">
     <g id="line2d_24">
      <g>
       <use style="stroke:#000000;stroke-width:0.8;" x="50.14375" xlink:href="#me8ff6073b8" y="204.021818"/>
      </g>
     </g>
     <g id="text_18">
      <!-- 0.10 -->
      <g transform="translate(20.878125 207.821037)scale(0.1 -0.1)">
       <use xlink:href="#DejaVuSans-48"/>
       <use x="63.623047" xlink:href="#DejaVuSans-46"/>
       <use x="95.410156" xlink:href="#DejaVuSans-49"/>
       <use x="159.033203" xlink:href="#DejaVuSans-48"/>
      </g>
     </g>
    </g>
    <g id="ytick_9">
     <g id="line2d_25">
      <g>
       <use style="stroke:#000000;stroke-width:0.8;" x="50.14375" xlink:href="#me8ff6073b8" y="179.312727"/>
      </g>
     </g>
     <g id="text_19">
      <!-- 0.15 -->
      <g transform="translate(20.878125 183.111946)scale(0.1 -0.1)">
       <use xlink:href="#DejaVuSans-48"/>
       <use x="63.623047" xlink:href="#DejaVuSans-46"/>
       <use x="95.410156" xlink:href="#DejaVuSans-49"/>
       <use x="159.033203" xlink:href="#DejaVuSans-53"/>
      </g>
     </g>
    </g>
    <g id="ytick_10">
     <g id="line2d_26">
      <g>
       <use style="stroke:#000000;stroke-width:0.8;" x="50.14375" xlink:href="#me8ff6073b8" y="154.603636"/>
      </g>
     </g>
     <g id="text_20">
      <!-- 0.20 -->
      <g transform="translate(20.878125 158.402855)scale(0.1 -0.1)">
       <use xlink:href="#DejaVuSans-48"/>
       <use x="63.623047" xlink:href="#DejaVuSans-46"/>
       <use x="95.410156" xlink:href="#DejaVuSans-50"/>
       <use x="159.033203" xlink:href="#DejaVuSans-48"/>
      </g>
     </g>
    </g>
    <g id="text_21">
     <!-- Probability -->
     <g transform="translate(14.798438 230.648381)rotate(-90)scale(0.1 -0.1)">
      <use xlink:href="#DejaVuSans-80"/>
      <use x="60.287109" xlink:href="#DejaVuSans-114"/>
      <use x="101.369141" xlink:href="#DejaVuSans-111"/>
      <use x="162.550781" xlink:href="#DejaVuSans-98"/>
      <use x="226.027344" xlink:href="#DejaVuSans-97"/>
      <use x="287.306641" xlink:href="#DejaVuSans-98"/>
      <use x="350.783203" xlink:href="#DejaVuSans-105"/>
      <use x="378.566406" xlink:href="#DejaVuSans-108"/>
      <use x="406.349609" xlink:href="#DejaVuSans-105"/>
      <use x="434.132812" xlink:href="#DejaVuSans-116"/>
      <use x="473.341797" xlink:href="#DejaVuSans-121"/>
     </g>
    </g>
   </g>
   <g id="line2d_27">
    <path clip-path="url(#p89a800ae05)" d="M 57.061105 212.645401 
L 59.607371 212.101261 
L 62.153637 211.702703 
L 68.094924 211.077599 
L 77.431232 210.673463 
L 83.372518 210.681444 
L 100.347624 211.280093 
L 108.835176 211.795098 
L 112.230197 211.984077 
L 124.961526 212.847933 
L 148.726673 214.237717 
L 154.66796 214.455488 
L 159.760492 214.586228 
L 163.155513 214.65923 
L 169.945555 214.681494 
L 173.340576 214.727211 
L 179.281863 214.763357 
L 186.92066 214.732747 
L 188.618171 214.769068 
L 194.559458 214.765606 
L 195.408213 214.707502 
L 195.408213 214.707502 
" style="fill:none;stroke:#0000ff;stroke-dasharray:5.55,2.4;stroke-dashoffset:0;stroke-width:1.5;"/>
   </g>
   <g id="line2d_28">
    <path clip-path="url(#p89a800ae05)" d="M 57.061105 136.863269 
L 58.758616 135.755274 
L 60.456126 134.834441 
L 62.153637 134.169366 
L 65.548658 133.051205 
L 70.64119 131.874852 
L 75.733721 131.303564 
L 79.128742 131.300226 
L 80.826253 131.192258 
L 83.372518 131.250965 
L 85.918784 131.385577 
L 86.767539 131.34854 
L 87.616295 131.504818 
L 88.46505 131.428625 
L 89.313805 131.552342 
L 91.011316 131.622168 
L 93.557582 131.913695 
L 97.801358 132.484538 
L 99.498868 132.886304 
L 102.893889 133.27775 
L 103.742645 133.565148 
L 113.927708 135.299065 
L 115.625218 135.661589 
L 118.171484 136.109694 
L 119.020239 136.334919 
L 119.868995 136.399573 
L 121.566505 136.813611 
L 123.264016 137.130036 
L 125.810281 137.594616 
L 127.507792 137.968165 
L 129.205303 138.291022 
L 130.902813 138.608035 
L 131.751568 138.846939 
L 134.297834 139.240576 
L 138.54161 139.984537 
L 139.390366 140.02585 
L 141.087876 140.241102 
L 142.785387 140.520384 
L 150.424184 141.661499 
L 152.121695 141.808416 
L 155.516716 142.057384 
L 157.214226 142.236451 
L 162.306758 142.608013 
L 173.340576 142.812356 
L 175.886842 142.90764 
L 184.374394 142.953401 
L 186.071905 142.936568 
L 186.92066 142.828175 
L 187.769415 142.994199 
L 189.466926 142.95852 
L 193.710702 142.883884 
L 194.559458 142.922074 
L 195.408213 142.756032 
L 195.408213 142.756032 
" style="fill:none;stroke:#ff0000;stroke-dasharray:5.55,2.4;stroke-dashoffset:0;stroke-width:1.5;"/>
   </g>
   <g id="line2d_29">
    <path clip-path="url(#p89a800ae05)" d="M 57.061105 219.559723 
L 60.456126 220.56407 
L 65.548658 221.766645 
L 76.582476 223.673333 
L 83.372518 224.612839 
L 89.313805 225.348071 
L 99.498868 226.502695 
L 105.440155 227.074634 
L 107.986421 227.315927 
L 131.751568 229.264854 
L 169.945555 231.385349 
L 172.491821 231.458504 
L 175.038087 231.552037 
L 180.979373 231.784112 
L 195.408213 232.232192 
L 195.408213 232.232192 
" style="fill:none;stroke:#0000ff;stroke-dasharray:5.55,2.4;stroke-dashoffset:0;stroke-width:1.5;"/>
   </g>
   <g id="line2d_30">
    <path clip-path="url(#p89a800ae05)" d="M 57.061105 156.62199 
L 58.758616 158.140045 
L 62.153637 160.702392 
L 68.943679 164.843789 
L 72.3387 166.497416 
L 76.582476 168.37725 
L 79.128742 169.381003 
L 84.221274 171.407496 
L 85.070029 171.620381 
L 85.918784 172.019712 
L 87.616295 172.577836 
L 88.46505 172.948465 
L 91.011316 173.686862 
L 93.557582 174.632817 
L 96.103847 175.416703 
L 107.137666 178.612113 
L 110.532687 179.389173 
L 112.230197 179.858002 
L 114.776463 180.512902 
L 129.205303 183.818316 
L 134.297834 184.819444 
L 142.785387 186.382862 
L 147.029163 187.077356 
L 151.272939 187.801165 
L 152.121695 187.870727 
L 153.819205 188.205974 
L 158.911737 188.899408 
L 161.458002 189.226553 
L 164.853023 189.711881 
L 167.399289 190.09272 
L 175.038087 190.891838 
L 176.735597 191.083464 
L 182.676884 191.721151 
L 184.374394 191.90679 
L 190.315681 192.453705 
L 192.861947 192.6059 
L 195.408213 192.835484 
L 195.408213 192.835484 
" style="fill:none;stroke:#ff0000;stroke-dasharray:5.55,2.4;stroke-dashoffset:0;stroke-width:1.5;"/>
   </g>
   <g id="line2d_31">
    <path clip-path="url(#p89a800ae05)" d="M 57.061105 216.218469 
L 74.036211 217.357579 
L 141.087876 222.579131 
L 152.97045 223.225635 
L 187.769415 224.333371 
L 195.408213 224.446004 
L 195.408213 224.446004 
" style="fill:none;stroke:#0000ff;stroke-linecap:square;stroke-width:1.5;"/>
   </g>
   <g id="line2d_32">
    <path clip-path="url(#p89a800ae05)" d="M 57.061105 147.073852 
L 68.094924 149.099434 
L 73.187455 150.114105 
L 76.582476 150.891604 
L 83.372518 152.354795 
L 112.230197 159.186119 
L 119.020239 160.839394 
L 123.264016 161.697642 
L 126.659037 162.448799 
L 146.180408 166.098826 
L 159.760492 167.958261 
L 165.701779 168.513561 
L 167.399289 168.733311 
L 171.643066 169.126209 
L 174.189331 169.31711 
L 181.828129 169.88736 
L 185.22315 170.126797 
L 187.769415 170.26341 
L 195.408213 170.585275 
L 195.408213 170.585275 
" style="fill:none;stroke:#ff0000;stroke-linecap:square;stroke-width:1.5;"/>
   </g>
   <g id="patch_14">
    <path d="M 50.14375 253.44 
L 50.14375 154.603636 
" style="fill:none;stroke:#000000;stroke-linecap:square;stroke-linejoin:miter;stroke-width:0.8;"/>
   </g>
   <g id="patch_15">
    <path d="M 202.325568 253.44 
L 202.325568 154.603636 
" style="fill:none;stroke:#000000;stroke-linecap:square;stroke-linejoin:miter;stroke-width:0.8;"/>
   </g>
   <g id="patch_16">
    <path d="M 50.14375 253.44 
L 202.325568 253.44 
" style="fill:none;stroke:#000000;stroke-linecap:square;stroke-linejoin:miter;stroke-width:0.8;"/>
   </g>
   <g id="patch_17">
    <path d="M 50.14375 154.603636 
L 202.325568 154.603636 
" style="fill:none;stroke:#000000;stroke-linecap:square;stroke-linejoin:miter;stroke-width:0.8;"/>
   </g>
   <g id="text_22">
    <!-- High school -->
    <defs>
     <path d="M 9.8125 72.90625 
L 19.671875 72.90625 
L 19.671875 43.015625 
L 55.515625 43.015625 
L 55.515625 72.90625 
L 65.375 72.90625 
L 65.375 0 
L 55.515625 0 
L 55.515625 34.71875 
L 19.671875 34.71875 
L 19.671875 0 
L 9.8125 0 
z
" id="DejaVuSans-72"/>
     <path d="M 54.890625 33.015625 
L 54.890625 0 
L 45.90625 0 
L 45.90625 32.71875 
Q 45.90625 40.484375 42.875 44.328125 
Q 39.84375 48.1875 33.796875 48.1875 
Q 26.515625 48.1875 22.3125 43.546875 
Q 18.109375 38.921875 18.109375 30.90625 
L 18.109375 0 
L 9.078125 0 
L 9.078125 75.984375 
L 18.109375 75.984375 
L 18.109375 46.1875 
Q 21.34375 51.125 25.703125 53.5625 
Q 30.078125 56 35.796875 56 
Q 45.21875 56 50.046875 50.171875 
Q 54.890625 44.34375 54.890625 33.015625 
z
" id="DejaVuSans-104"/>
     <path d="M 44.28125 53.078125 
L 44.28125 44.578125 
Q 40.484375 46.53125 36.375 47.5 
Q 32.28125 48.484375 27.875 48.484375 
Q 21.1875 48.484375 17.84375 46.4375 
Q 14.5 44.390625 14.5 40.28125 
Q 14.5 37.15625 16.890625 35.375 
Q 19.28125 33.59375 26.515625 31.984375 
L 29.59375 31.296875 
Q 39.15625 29.25 43.1875 25.515625 
Q 47.21875 21.78125 47.21875 15.09375 
Q 47.21875 7.46875 41.1875 3.015625 
Q 35.15625 -1.421875 24.609375 -1.421875 
Q 20.21875 -1.421875 15.453125 -0.5625 
Q 10.6875 0.296875 5.421875 2 
L 5.421875 11.28125 
Q 10.40625 8.6875 15.234375 7.390625 
Q 20.0625 6.109375 24.8125 6.109375 
Q 31.15625 6.109375 34.5625 8.28125 
Q 37.984375 10.453125 37.984375 14.40625 
Q 37.984375 18.0625 35.515625 20.015625 
Q 33.0625 21.96875 24.703125 23.78125 
L 21.578125 24.515625 
Q 13.234375 26.265625 9.515625 29.90625 
Q 5.8125 33.546875 5.8125 39.890625 
Q 5.8125 47.609375 11.28125 51.796875 
Q 16.75 56 26.8125 56 
Q 31.78125 56 36.171875 55.265625 
Q 40.578125 54.546875 44.28125 53.078125 
z
" id="DejaVuSans-115"/>
    </defs>
    <g transform="translate(91.300597 148.603636)scale(0.12 -0.12)">
     <use xlink:href="#DejaVuSans-72"/>
     <use x="75.195312" xlink:href="#DejaVuSans-105"/>
     <use x="102.978516" xlink:href="#DejaVuSans-103"/>
     <use x="166.455078" xlink:href="#DejaVuSans-104"/>
     <use x="229.833984" xlink:href="#DejaVuSans-32"/>
     <use x="261.621094" xlink:href="#DejaVuSans-115"/>
     <use x="313.720703" xlink:href="#DejaVuSans-99"/>
     <use x="368.701172" xlink:href="#DejaVuSans-104"/>
     <use x="432.080078" xlink:href="#DejaVuSans-111"/>
     <use x="493.261719" xlink:href="#DejaVuSans-111"/>
     <use x="554.443359" xlink:href="#DejaVuSans-108"/>
    </g>
   </g>
  </g>
  <g id="axes_4">
   <g id="patch_18">
    <path d="M 232.761932 253.44 
L 384.94375 253.44 
L 384.94375 154.603636 
L 232.761932 154.603636 
z
" style="fill:#ffffff;"/>
   </g>
   <g id="matplotlib.axis_7">
    <g id="xtick_5">
     <g id="line2d_33">
      <g>
       <use style="stroke:#000000;stroke-width:0.8;" x="260.049413" xlink:href="#mb65e3f4a84" y="253.44"/>
      </g>
     </g>
     <g id="text_23">
      <!-- 30 -->
      <g transform="translate(253.686913 268.038437)scale(0.1 -0.1)">
       <use xlink:href="#DejaVuSans-51"/>
       <use x="63.623047" xlink:href="#DejaVuSans-48"/>
      </g>
     </g>
    </g>
    <g id="xtick_6">
     <g id="line2d_34">
      <g>
       <use style="stroke:#000000;stroke-width:0.8;" x="293.999624" xlink:href="#mb65e3f4a84" y="253.44"/>
      </g>
     </g>
     <g id="text_24">
      <!-- 40 -->
      <g transform="translate(287.637124 268.038437)scale(0.1 -0.1)">
       <use xlink:href="#DejaVuSans-52"/>
       <use x="63.623047" xlink:href="#DejaVuSans-48"/>
      </g>
     </g>
    </g>
    <g id="xtick_7">
     <g id="line2d_35">
      <g>
       <use style="stroke:#000000;stroke-width:0.8;" x="327.949834" xlink:href="#mb65e3f4a84" y="253.44"/>
      </g>
     </g>
     <g id="text_25">
      <!-- 50 -->
      <g transform="translate(321.587334 268.038437)scale(0.1 -0.1)">
       <use xlink:href="#DejaVuSans-53"/>
       <use x="63.623047" xlink:href="#DejaVuSans-48"/>
      </g>
     </g>
    </g>
    <g id="xtick_8">
     <g id="line2d_36">
      <g>
       <use style="stroke:#000000;stroke-width:0.8;" x="361.900045" xlink:href="#mb65e3f4a84" y="253.44"/>
      </g>
     </g>
     <g id="text_26">
      <!-- 60 -->
      <g transform="translate(355.537545 268.038437)scale(0.1 -0.1)">
       <use xlink:href="#DejaVuSans-54"/>
       <use x="63.623047" xlink:href="#DejaVuSans-48"/>
      </g>
     </g>
    </g>
    <g id="text_27">
     <!-- Age -->
     <g transform="translate(299.181747 281.716562)scale(0.1 -0.1)">
      <use xlink:href="#DejaVuSans-65"/>
      <use x="68.408203" xlink:href="#DejaVuSans-103"/>
      <use x="131.884766" xlink:href="#DejaVuSans-101"/>
     </g>
    </g>
   </g>
   <g id="matplotlib.axis_8"/>
   <g id="line2d_37">
    <path clip-path="url(#p976d290a2e)" d="M 239.679287 223.386862 
L 242.225553 222.919917 
L 244.771819 222.577392 
L 254.956882 221.781767 
L 267.688211 221.640523 
L 277.024519 221.801129 
L 283.814561 222.149793 
L 285.512071 222.174798 
L 288.058337 222.348803 
L 293.150869 222.542529 
L 297.394645 222.817732 
L 309.277219 223.47649 
L 313.520995 223.737477 
L 322.857303 224.268371 
L 326.252324 224.407394 
L 329.647345 224.590204 
L 338.983653 224.938706 
L 342.378674 225.0136 
L 359.353779 225.27522 
L 370.387597 225.391552 
L 377.177639 225.431317 
L 378.026395 225.390258 
L 378.026395 225.390258 
" style="fill:none;stroke:#0000ff;stroke-dasharray:5.55,2.4;stroke-dashoffset:0;stroke-width:1.5;"/>
   </g>
   <g id="line2d_38">
    <path clip-path="url(#p976d290a2e)" d="M 239.679287 175.731311 
L 240.528042 175.242105 
L 243.923063 173.916296 
L 247.318085 172.891042 
L 253.259371 171.788601 
L 260.049413 171.151134 
L 264.29319 171.081585 
L 268.536966 171.227919 
L 277.873274 171.771307 
L 280.41954 172.029029 
L 282.11705 172.340294 
L 293.150869 173.54811 
L 294.848379 173.848109 
L 311.823484 176.364309 
L 316.067261 177.003867 
L 321.159792 177.829942 
L 322.008547 177.85413 
L 322.857303 178.010638 
L 324.554813 178.149304 
L 326.252324 178.370111 
L 327.949834 178.633537 
L 331.344855 179.02991 
L 336.437387 179.435269 
L 337.286142 179.613991 
L 341.529918 179.866164 
L 344.924939 180.197534 
L 345.773695 180.107946 
L 346.62245 180.223454 
L 350.017471 180.267628 
L 352.563737 180.365261 
L 353.412492 180.320561 
L 357.656268 180.683489 
L 360.202534 180.616476 
L 366.143821 180.829467 
L 371.236353 180.948718 
L 374.631374 180.988074 
L 377.177639 181.017678 
L 378.026395 180.91151 
L 378.026395 180.91151 
" style="fill:none;stroke:#ff0000;stroke-dasharray:5.55,2.4;stroke-dashoffset:0;stroke-width:1.5;"/>
   </g>
   <g id="line2d_39">
    <path clip-path="url(#p976d290a2e)" d="M 239.679287 229.086239 
L 242.225553 229.704425 
L 245.620574 230.343988 
L 251.561861 231.357491 
L 264.29319 232.848299 
L 278.722029 234.179322 
L 286.360827 234.775629 
L 302.487176 235.836694 
L 320.311037 236.865471 
L 327.949834 237.237425 
L 370.387597 238.875243 
L 378.026395 239.05676 
L 378.026395 239.05676 
" style="fill:none;stroke:#0000ff;stroke-dasharray:5.55,2.4;stroke-dashoffset:0;stroke-width:1.5;"/>
   </g>
   <g id="line2d_40">
    <path clip-path="url(#p976d290a2e)" d="M 239.679287 190.468244 
L 240.528042 191.086728 
L 243.923063 192.976037 
L 247.318085 194.541896 
L 251.561861 196.341044 
L 260.898169 199.282334 
L 266.839456 200.860679 
L 267.688211 201.025522 
L 268.536966 201.330767 
L 270.234477 201.682482 
L 271.931987 202.126876 
L 275.327008 202.862375 
L 279.570784 203.840466 
L 285.512071 205.00122 
L 290.604603 205.96025 
L 293.999624 206.516261 
L 298.2434 207.224871 
L 309.277219 209.0916 
L 311.823484 209.427035 
L 317.764771 210.217992 
L 322.857303 210.892454 
L 325.403568 211.239791 
L 327.949834 211.544846 
L 341.529918 213.082688 
L 345.773695 213.496923 
L 359.353779 214.800162 
L 365.295066 215.358605 
L 366.992576 215.515149 
L 378.026395 216.249117 
L 378.026395 216.249117 
" style="fill:none;stroke:#ff0000;stroke-dasharray:5.55,2.4;stroke-dashoffset:0;stroke-width:1.5;"/>
   </g>
   <g id="line2d_41">
    <path clip-path="url(#p976d290a2e)" d="M 239.679287 226.376527 
L 251.561861 226.971043 
L 271.083232 228.106833 
L 310.974729 230.67853 
L 316.916016 231.011157 
L 338.134897 232.066374 
L 349.168716 232.4644 
L 366.992576 232.988521 
L 374.631374 233.147608 
L 378.026395 233.208945 
L 378.026395 233.208945 
" style="fill:none;stroke:#0000ff;stroke-linecap:square;stroke-width:1.5;"/>
   </g>
   <g id="line2d_42">
    <path clip-path="url(#p976d290a2e)" d="M 239.679287 183.461716 
L 245.620574 184.167271 
L 250.713106 184.903683 
L 254.956882 185.485502 
L 262.595679 186.591701 
L 265.141945 186.988348 
L 269.385721 187.632757 
L 277.873274 189.080662 
L 310.125974 194.452704 
L 319.462282 195.803591 
L 338.983653 198.273547 
L 345.773695 198.880773 
L 348.319961 199.093849 
L 350.866226 199.334875 
L 353.412492 199.571088 
L 367.841332 200.634547 
L 378.026395 201.128366 
L 378.026395 201.128366 
" style="fill:none;stroke:#ff0000;stroke-linecap:square;stroke-width:1.5;"/>
   </g>
   <g id="patch_19">
    <path d="M 232.761932 253.44 
L 232.761932 154.603636 
" style="fill:none;stroke:#000000;stroke-linecap:square;stroke-linejoin:miter;stroke-width:0.8;"/>
   </g>
   <g id="patch_20">
    <path d="M 384.94375 253.44 
L 384.94375 154.603636 
" style="fill:none;stroke:#000000;stroke-linecap:square;stroke-linejoin:miter;stroke-width:0.8;"/>
   </g>
   <g id="patch_21">
    <path d="M 232.761932 253.44 
L 384.94375 253.44 
" style="fill:none;stroke:#000000;stroke-linecap:square;stroke-linejoin:miter;stroke-width:0.8;"/>
   </g>
   <g id="patch_22">
    <path d="M 232.761932 154.603636 
L 384.94375 154.603636 
" style="fill:none;stroke:#000000;stroke-linecap:square;stroke-linejoin:miter;stroke-width:0.8;"/>
   </g>
   <g id="text_28">
    <!-- College -->
    <defs>
     <path d="M 64.40625 67.28125 
L 64.40625 56.890625 
Q 59.421875 61.53125 53.78125 63.8125 
Q 48.140625 66.109375 41.796875 66.109375 
Q 29.296875 66.109375 22.65625 58.46875 
Q 16.015625 50.828125 16.015625 36.375 
Q 16.015625 21.96875 22.65625 14.328125 
Q 29.296875 6.6875 41.796875 6.6875 
Q 48.140625 6.6875 53.78125 8.984375 
Q 59.421875 11.28125 64.40625 15.921875 
L 64.40625 5.609375 
Q 59.234375 2.09375 53.4375 0.328125 
Q 47.65625 -1.421875 41.21875 -1.421875 
Q 24.65625 -1.421875 15.125 8.703125 
Q 5.609375 18.84375 5.609375 36.375 
Q 5.609375 53.953125 15.125 64.078125 
Q 24.65625 74.21875 41.21875 74.21875 
Q 47.75 74.21875 53.53125 72.484375 
Q 59.328125 70.75 64.40625 67.28125 
z
" id="DejaVuSans-67"/>
    </defs>
    <g transform="translate(286.465341 148.603636)scale(0.12 -0.12)">
     <use xlink:href="#DejaVuSans-67"/>
     <use x="69.824219" xlink:href="#DejaVuSans-111"/>
     <use x="131.005859" xlink:href="#DejaVuSans-108"/>
     <use x="158.789062" xlink:href="#DejaVuSans-108"/>
     <use x="186.572266" xlink:href="#DejaVuSans-101"/>
     <use x="248.095703" xlink:href="#DejaVuSans-103"/>
     <use x="311.572266" xlink:href="#DejaVuSans-101"/>
    </g>
   </g>
  </g>
  <g id="text_29">
   <!-- Unemployment probability after pandemic shock -->
   <defs>
    <path d="M 37.109375 75.984375 
L 37.109375 68.5 
L 28.515625 68.5 
Q 23.6875 68.5 21.796875 66.546875 
Q 19.921875 64.59375 19.921875 59.515625 
L 19.921875 54.6875 
L 34.71875 54.6875 
L 34.71875 47.703125 
L 19.921875 47.703125 
L 19.921875 0 
L 10.890625 0 
L 10.890625 47.703125 
L 2.296875 47.703125 
L 2.296875 54.6875 
L 10.890625 54.6875 
L 10.890625 58.5 
Q 10.890625 67.625 15.140625 71.796875 
Q 19.390625 75.984375 28.609375 75.984375 
z
" id="DejaVuSans-102"/>
    <path d="M 9.078125 75.984375 
L 18.109375 75.984375 
L 18.109375 31.109375 
L 44.921875 54.6875 
L 56.390625 54.6875 
L 27.390625 29.109375 
L 57.625 0 
L 45.90625 0 
L 18.109375 26.703125 
L 18.109375 0 
L 9.078125 0 
z
" id="DejaVuSans-107"/>
   </defs>
   <g transform="translate(64.981563 16.318125)scale(0.12 -0.12)">
    <use xlink:href="#DejaVuSans-85"/>
    <use x="73.193359" xlink:href="#DejaVuSans-110"/>
    <use x="136.572266" xlink:href="#DejaVuSans-101"/>
    <use x="198.095703" xlink:href="#DejaVuSans-109"/>
    <use x="295.507812" xlink:href="#DejaVuSans-112"/>
    <use x="358.984375" xlink:href="#DejaVuSans-108"/>
    <use x="386.767578" xlink:href="#DejaVuSans-111"/>
    <use x="447.949219" xlink:href="#DejaVuSans-121"/>
    <use x="507.128906" xlink:href="#DejaVuSans-109"/>
    <use x="604.541016" xlink:href="#DejaVuSans-101"/>
    <use x="666.064453" xlink:href="#DejaVuSans-110"/>
    <use x="729.443359" xlink:href="#DejaVuSans-116"/>
    <use x="768.652344" xlink:href="#DejaVuSans-32"/>
    <use x="800.439453" xlink:href="#DejaVuSans-112"/>
    <use x="863.916016" xlink:href="#DejaVuSans-114"/>
    <use x="904.998047" xlink:href="#DejaVuSans-111"/>
    <use x="966.179688" xlink:href="#DejaVuSans-98"/>
    <use x="1029.65625" xlink:href="#DejaVuSans-97"/>
    <use x="1090.935547" xlink:href="#DejaVuSans-98"/>
    <use x="1154.412109" xlink:href="#DejaVuSans-105"/>
    <use x="1182.195312" xlink:href="#DejaVuSans-108"/>
    <use x="1209.978516" xlink:href="#DejaVuSans-105"/>
    <use x="1237.761719" xlink:href="#DejaVuSans-116"/>
    <use x="1276.970703" xlink:href="#DejaVuSans-121"/>
    <use x="1336.150391" xlink:href="#DejaVuSans-32"/>
    <use x="1367.9375" xlink:href="#DejaVuSans-97"/>
    <use x="1429.216797" xlink:href="#DejaVuSans-102"/>
    <use x="1464.40625" xlink:href="#DejaVuSans-116"/>
    <use x="1503.615234" xlink:href="#DejaVuSans-101"/>
    <use x="1565.138672" xlink:href="#DejaVuSans-114"/>
    <use x="1606.251953" xlink:href="#DejaVuSans-32"/>
    <use x="1638.039062" xlink:href="#DejaVuSans-112"/>
    <use x="1701.515625" xlink:href="#DejaVuSans-97"/>
    <use x="1762.794922" xlink:href="#DejaVuSans-110"/>
    <use x="1826.173828" xlink:href="#DejaVuSans-100"/>
    <use x="1889.650391" xlink:href="#DejaVuSans-101"/>
    <use x="1951.173828" xlink:href="#DejaVuSans-109"/>
    <use x="2048.585938" xlink:href="#DejaVuSans-105"/>
    <use x="2076.369141" xlink:href="#DejaVuSans-99"/>
    <use x="2131.349609" xlink:href="#DejaVuSans-32"/>
    <use x="2163.136719" xlink:href="#DejaVuSans-115"/>
    <use x="2215.236328" xlink:href="#DejaVuSans-104"/>
    <use x="2278.615234" xlink:href="#DejaVuSans-111"/>
    <use x="2339.796875" xlink:href="#DejaVuSans-99"/>
    <use x="2394.777344" xlink:href="#DejaVuSans-107"/>
   </g>
  </g>
 </g>
 <defs>
  <clipPath id="p08e7223856">
   <rect height="98.836364" width="152.181818" x="50.14375" y="36"/>
  </clipPath>
  <clipPath id="p96437509be">
   <rect height="98.836364" width="152.181818" x="232.761932" y="36"/>
  </clipPath>
  <clipPath id="p89a800ae05">
   <rect height="98.836364" width="152.181818" x="50.14375" y="154.603636"/>
  </clipPath>
  <clipPath id="p976d290a2e">
   <rect height="98.836364" width="152.181818" x="232.761932" y="154.603636"/>
  </clipPath>
 </defs>
</svg>
